  0
SECTION
  2
HEADER
  9
$ACADVER
  1
AC1003
  9
$EXTMIN
 10
0.584549356171939
 20
5.16193133050561
  9
$EXTMAX
 10
3.58454935620561
 20
0.533323310444969
  9
$INSBASE
 10
2.08454935618878
 20
2.84762732047529
999
Created with OMAX Windows DXF File exporter 7/17/2007
  0
ENDSEC
  0
SECTION
  2
TABLES
  0
TABLE
  2
LAYER
 70
    10
  0
LAYER
  2
0
 70
     0
 62
     7
  6
CONTINUOUS
  0
LAYER
  2
1
 70
     0
 62
     7
  6
CONTINUOUS
  0
LAYER
  2
2
 70
     0
 62
     7
  6
CONTINUOUS
  0
LAYER
  2
3
 70
     0
 62
     7
  6
CONTINUOUS
  0
LAYER
  2
4
 70
     0
 62
     7
  6
CONTINUOUS
  0
LAYER
  2
5
 70
     0
 62
     7
  6
CONTINUOUS
  0
LAYER
  2
6
 70
     0
 62
     7
  6
CONTINUOUS
  0
LAYER
  2
7
 70
     0
 62
     7
  6
CONTINUOUS
  0
LAYER
  2
8
 70
     0
 62
     7
  6
CONTINUOUS
  0
LAYER
  2
9
 70
     0
 62
     7
  6
CONTINUOUS
  0
LAYER
  2
10
 70
     0
 62
     7
  6
CONTINUOUS
  0
LAYER
  2
11
 70
     0
 62
     7
  6
CONTINUOUS
  0
LAYER
  2
12
 70
     0
 62
     7
  6
CONTINUOUS
  0
ENDTAB
  0
ENDSEC
  0
SECTION
  2
ENTITIES
  0
ARC
  8
3
  6
CONTINUOUS
 62
3
 10
2.5845493562
 20
2.16193133051154
 30
0.0
 40
0.1285
 50
5.14486609757022E-9
 51
180.000000005145
  0
ARC
  8
3
  6
CONTINUOUS
 62
3
 10
2.5845493562
 20
1.16193133051154
 30
0.0
 40
0.128500000000001
 50
5.14476431982041E-9
 51
180.000000005145
  0
ARC
  8
3
  6
CONTINUOUS
 62
3
 10
1.5845493562
 20
1.16193133051154
 30
0.0
 40
0.1285
 50
5.14476431982041E-9
 51
180.000000005145
  0
ARC
  8
2
  6
CONTINUOUS
 62
2
 10
0.834549356149491
 20
0.911931330505612
 30
0.0
 40
0.249999999977551
 50
180.000000001286
 51
270.000000011576
  0
LINE
  8
2
  6
CONTINUOUS
 62
2
 10
0.5845493562
 20
0.9119313305
 30
0.0
 11
0.5845493562
 21
4.9119313305
 31
0.0
  0
ARC
  8
2
  6
CONTINUOUS
 62
2
 10
0.834549356183163
 20
4.91193133052806
 30
0.0
 40
0.249999999977551
 50
90.000000006431
 51
180.000000006431
  0
LINE
  8
2
  6
CONTINUOUS
 62
2
 10
0.8345493562
 20
5.1619313305
 30
0.0
 11
3.3345493562
 21
5.1619313305
 31
0.0
  0
ARC
  8
2
  6
CONTINUOUS
 62
2
 10
3.33454935622806
 20
4.91193133051684
 30
0.0
 40
0.249999999977551
 50
6.43123507737878E-9
 51
90.0000000167211
  0
LINE
  8
2
  6
CONTINUOUS
 62
2
 10
3.5845493562
 20
4.9119313305
 30
0.0
 11
3.5845493562
 21
0.9119313305
 31
0.0
  0
ARC
  8
2
  6
CONTINUOUS
 62
2
 10
3.33454935619439
 20
0.911931330494389
 30
0.0
 40
0.25
 50
270.000000001286
 51
1.1576202107864E-8
  0
ARC
  8
3
  6
CONTINUOUS
 62
3
 10
2.0845493562
 20
3.66193133047755
 30
0.0
 40
0.125
 50
1.02894769059311E-8
 51
180
  0
ARC
  8
3
  6
CONTINUOUS
 62
3
 10
1.5845493562
 20
2.1619313305
 30
0.0
 40
0.1285
 50
180.000000005145
 51
1.53511459547513E-13
  0
LINE
  8
9
  6
CONTINUOUS
 62
9
 10
1.67880123120385
 20
0.533323310444969
 30
0.0
 11
1.6045493562
 21
0.6619313305
 31
0.0
  0
LINE
  8
9
  6
CONTINUOUS
 62
9
 10
1.57967435620258
 20
0.618846566660235
 30
0.0
 11
1.6045493562
 21
0.6619313305
 31
0.0
  0
LINE
  8
9
  6
CONTINUOUS
 62
9
 10
1.5433249008166
 20
1.11252296766299
 30
0.0
 11
1.62211912025693
 21
1.03904616935877
 31
0.0
  0
LINE
  8
9
  6
CONTINUOUS
 62
9
 10
1.63331043520108
 20
1.08752108008402
 30
0.0
 11
1.62211912025693
 21
1.03904616935877
 31
0.0
  0
LINE
  8
9
  6
CONTINUOUS
 62
9
 10
2.52482015346707
 20
1.18587009364222
 30
0.0
 11
2.4792883185089
 21
1.08822675842884
 31
0.0
  0
LINE
  8
9
  6
CONTINUOUS
 62
9
 10
2.52884900473812
 20
1.0925627566402
 30
0.0
 11
2.4792883185089
 21
1.08822675842884
 31
0.0
  0
LINE
  8
9
  6
CONTINUOUS
 62
9
 10
2.54332490081661
 20
2.11252296766299
 30
0.0
 11
2.62211912025693
 21
2.03904616935877
 31
0.0
  0
LINE
  8
9
  6
CONTINUOUS
 62
9
 10
2.63331043520109
 20
2.08752108008402
 30
0.0
 11
2.62211912025693
 21
2.03904616935877
 31
0.0
  0
LINE
  8
9
  6
CONTINUOUS
 62
9
 10
1.64469030143095
 20
2.13904548327362
 30
0.0
 11
1.68850803996497
 21
2.23746173543639
 31
0.0
  0
LINE
  8
9
  6
CONTINUOUS
 62
9
 10
1.63903057567185
 20
2.232261444375
 30
0.0
 11
1.68850803996497
 21
2.23746173543639
 31
0.0
  0
LINE
  8
9
  6
CONTINUOUS
 62
9
 10
2.02212538085534
 20
3.66593014314701
 30
0.0
 11
2.01107619967615
 21
3.5608042061939
 31
0.0
  0
LINE
  8
9
  6
CONTINUOUS
 62
9
 10
2.05652508618739
 20
3.58103935420147
 30
0.0
 11
2.01107619967615
 21
3.5608042061939
 31
0.0
  0
LINE
  8
0
  6
CONTINUOUS
 62
0
 10
0.584549356171939
 20
0.533323310444969
 30
0.0
 11
2.02212538085534
 21
3.66593014314701
 31
0.0
  0
LINE
  8
0
  6
CONTINUOUS
 62
0
 10
2.05652508618739
 20
3.58103935420147
 30
0.0
 11
1.64469030143095
 21
2.13904548327362
 31
0.0
  0
LINE
  8
0
  6
CONTINUOUS
 62
0
 10
1.63903057567185
 20
2.232261444375
 30
0.0
 11
2.54332490081661
 21
2.11252296766299
 31
0.0
  0
LINE
  8
0
  6
CONTINUOUS
 62
0
 10
2.63331043520109
 20
2.08752108008402
 30
0.0
 11
2.52482015346707
 21
1.18587009364222
 31
0.0
  0
LINE
  8
0
  6
CONTINUOUS
 62
0
 10
2.52884900473812
 20
1.0925627566402
 30
0.0
 11
1.5433249008166
 21
1.11252296766299
 31
0.0
  0
LINE
  8
0
  6
CONTINUOUS
 62
0
 10
1.63331043520108
 20
1.08752108008402
 30
0.0
 11
1.67880123120385
 21
0.533323310444969
 31
0.0
  0
LINE
  8
2
  6
CONTINUOUS
 62
2
 10
3.3345493562
 20
0.6619313305
 30
0.0
 11
1.6045493562
 21
0.6619313305
 31
0.0
  0
LINE
  8
2
  6
CONTINUOUS
 62
2
 10
1.6045493562
 20
0.6619313305
 30
0.0
 11
0.8345493562
 21
0.6619313305
 31
0.0
  0
ARC
  8
3
  6
CONTINUOUS
 62
3
 10
1.5845493562
 20
1.1619313305
 30
0.0
 40
0.1285
 50
287.000000000028
 51
1.02900875724299E-8
  0
ARC
  8
3
  6
CONTINUOUS
 62
3
 10
1.58454935619146
 20
1.16193133048846
 30
0.0
 40
0.128499999991462
 50
179.999999994855
 51
287.000000005173
  0
ARC
  8
3
  6
CONTINUOUS
 62
3
 10
2.5845493562
 20
1.1619313305
 30
0.0
 40
0.128500000000001
 50
215.000000000028
 51
1.02900875724299E-8
  0
ARC
  8
3
  6
CONTINUOUS
 62
3
 10
2.5845493561634
 20
1.16193133048846
 30
0.0
 40
0.128499999963405
 50
179.999999994855
 51
215.000000005173
  0
ARC
  8
3
  6
CONTINUOUS
 62
3
 10
2.5845493562
 20
2.1619313305
 30
0.0
 40
0.1285
 50
287.000000000029
 51
1.02901893501797E-8
  0
ARC
  8
3
  6
CONTINUOUS
 62
3
 10
2.58454935619146
 20
2.16193133048846
 30
0.0
 40
0.128499999991462
 50
179.999999994855
 51
287.000000005173
  0
ARC
  8
3
  6
CONTINUOUS
 62
3
 10
1.58454935619625
 20
2.16193133051154
 30
0.0
 40
0.128499999996251
 50
36.0000000144057
 51
180.00000001029
  0
ARC
  8
3
  6
CONTINUOUS
 62
3
 10
1.58454935623551
 20
2.16193133051154
 30
0.0
 40
0.128499999964487
 50
5.14496787532003E-9
 51
36.0000000246957
  0
ARC
  8
3
  6
CONTINUOUS
 62
3
 10
2.08454935620572
 20
3.66193133048878
 30
0.0
 40
0.124999999994281
 50
234.000000002058
 51
5.14496787532003E-9
  0
ARC
  8
3
  6
CONTINUOUS
 62
3
 10
2.08454935617797
 20
3.66193133048878
 30
0.0
 40
0.124999999977971
 50
180.000000005145
 51
234.000000012347
  0
ENDSEC
  0
EOF
