  0
SECTION
  2
HEADER
  9
$ACADVER
  1
AC1003
  9
$EXTMIN
 10
0.52569457636292
 20
3.59768240340561
  9
$EXTMAX
 10
2.63802575110561
 20
0.597682403394388
  9
$INSBASE
 10
1.58186016373427
 20
2.0976824034
999
Created with OMAX Windows DXF File exporter 7/17/2007
  0
ENDSEC
  0
SECTION
  2
TABLES
  0
TABLE
  2
LAYER
 70
    10
  0
LAYER
  2
0
 70
     0
 62
     7
  6
CONTINUOUS
  0
LAYER
  2
1
 70
     0
 62
     7
  6
CONTINUOUS
  0
LAYER
  2
2
 70
     0
 62
     7
  6
CONTINUOUS
  0
LAYER
  2
3
 70
     0
 62
     7
  6
CONTINUOUS
  0
LAYER
  2
4
 70
     0
 62
     7
  6
CONTINUOUS
  0
LAYER
  2
5
 70
     0
 62
     7
  6
CONTINUOUS
  0
LAYER
  2
6
 70
     0
 62
     7
  6
CONTINUOUS
  0
LAYER
  2
7
 70
     0
 62
     7
  6
CONTINUOUS
  0
LAYER
  2
8
 70
     0
 62
     7
  6
CONTINUOUS
  0
LAYER
  2
9
 70
     0
 62
     7
  6
CONTINUOUS
  0
LAYER
  2
10
 70
     0
 62
     7
  6
CONTINUOUS
  0
LAYER
  2
11
 70
     0
 62
     7
  6
CONTINUOUS
  0
LAYER
  2
12
 70
     0
 62
     7
  6
CONTINUOUS
  0
ENDTAB
  0
ENDSEC
  0
SECTION
  2
ENTITIES
  0
ARC
  8
3
  6
CONTINUOUS
 62
3
 10
2.1380257511
 20
1.0976824034
 30
0.0
 40
0.1285
 50
180.000000005145
 51
1.53511459547513E-13
  0
ARC
  8
3
  6
CONTINUOUS
 62
3
 10
2.1380257511
 20
2.0976824034
 30
0.0
 40
0.1285
 50
1.02896804614307E-8
 51
180.000000005145
  0
ARC
  8
3
  6
CONTINUOUS
 62
3
 10
2.1380257511
 20
3.0976824034
 30
0.0
 40
0.1285
 50
180.000000005145
 51
1.53511459547513E-13
  0
LINE
  8
2
  6
CONTINUOUS
 62
2
 10
0.6380257511
 20
0.8476824034
 30
0.0
 11
0.6380257511
 21
3.3476824034
 31
0.0
  0
ARC
  8
2
  6
CONTINUOUS
 62
2
 10
0.888025751083163
 20
3.34768240342806
 30
0.0
 40
0.249999999977551
 50
90.0000000064308
 51
180.000000006431
  0
LINE
  8
2
  6
CONTINUOUS
 62
2
 10
0.8880257511
 20
3.5976824034
 30
0.0
 11
2.3880257511
 21
3.5976824034
 31
0.0
  0
ARC
  8
2
  6
CONTINUOUS
 62
2
 10
2.38802575112806
 20
3.34768240341684
 30
0.0
 40
0.249999999977551
 50
6.43123507737878E-9
 51
90.0000000167212
  0
LINE
  8
2
  6
CONTINUOUS
 62
2
 10
2.6380257511
 20
3.3476824034
 30
0.0
 11
2.6380257511
 21
0.8476824034
 31
0.0
  0
ARC
  8
2
  6
CONTINUOUS
 62
2
 10
2.38802575109439
 20
0.847682403394389
 30
0.0
 40
0.25
 50
270.000000001286
 51
1.15762529967389E-8
  0
LINE
  8
2
  6
CONTINUOUS
 62
2
 10
2.3880257511
 20
0.5976824034
 30
0.0
 11
0.8880257511
 21
0.5976824034
 31
0.0
  0
ARC
  8
3
  6
CONTINUOUS
 62
3
 10
1.1380257511
 20
3.09768240341154
 30
0.0
 40
0.1285
 50
5.14486609757022E-9
 51
180.000000005145
  0
ARC
  8
3
  6
CONTINUOUS
 62
3
 10
1.1380257511
 20
2.0976824034
 30
0.0
 40
0.1285
 50
180.000000005145
 51
1.53511459547513E-13
  0
ARC
  8
3
  6
CONTINUOUS
 62
3
 10
1.1380257511
 20
1.09768240338846
 30
0.0
 40
0.1285
 50
180.000000005145
 51
5.14506965306984E-9
  0
LINE
  8
9
  6
CONTINUOUS
 62
9
 10
0.52569457636292
 20
0.715117349106694
 30
0.0
 11
0.641103665927544
 21
0.808573787140288
 31
0.0
  0
LINE
  8
9
  6
CONTINUOUS
 62
9
 10
0.59465803970704
 20
0.826402592624258
 30
0.0
 11
0.641103665927544
 21
0.808573787140288
 31
0.0
  0
LINE
  8
9
  6
CONTINUOUS
 62
9
 10
1.2001327613352
 20
1.11451732472999
 30
0.0
 11
1.17773443485523
 21
1.21989316575106
 31
0.0
  0
LINE
  8
9
  6
CONTINUOUS
 62
9
 10
1.14076297979763
 20
1.18660391807372
 30
0.0
 11
1.17773443485523
 21
1.21989316575106
 31
0.0
  0
LINE
  8
9
  6
CONTINUOUS
 62
9
 10
2.14120691110491
 20
1.1619519569815
 30
0.0
 11
2.03406706731468
 21
1.17321280830838
 31
0.0
  0
LINE
  8
9
  6
CONTINUOUS
 62
9
 10
2.05430221531794
 20
1.12776392179522
 30
0.0
 11
2.03406706731468
 21
1.17321280830838
 31
0.0
  0
LINE
  8
9
  6
CONTINUOUS
 62
9
 10
2.08295462456443
 20
2.06450709749892
 30
0.0
 11
2.13578311687864
 21
1.9692019745723
 31
0.0
  0
LINE
  8
9
  6
CONTINUOUS
 62
9
 10
2.16140626109518
 20
2.01184604778838
 30
0.0
 11
2.13578311687864
 21
1.9692019745723
 31
0.0
  0
LINE
  8
9
  6
CONTINUOUS
 62
9
 10
1.19816669633096
 20
2.07479655617362
 30
0.0
 11
1.24198443486497
 21
2.17321280833639
 31
0.0
  0
LINE
  8
9
  6
CONTINUOUS
 62
9
 10
1.19250697057185
 20
2.168012517275
 30
0.0
 11
1.24198443486497
 21
2.17321280833639
 31
0.0
  0
LINE
  8
9
  6
CONTINUOUS
 62
9
 10
1.0968012957166
 20
3.04827404056299
 30
0.0
 11
1.17559551515693
 21
2.97479724225877
 31
0.0
  0
LINE
  8
9
  6
CONTINUOUS
 62
9
 10
1.18678683010108
 20
3.02327215298402
 30
0.0
 11
1.17559551515693
 21
2.97479724225877
 31
0.0
  0
LINE
  8
9
  6
CONTINUOUS
 62
9
 10
2.14120691110491
 20
3.1619519569815
 30
0.0
 11
2.03406706731468
 21
3.17321280830838
 31
0.0
  0
LINE
  8
9
  6
CONTINUOUS
 62
9
 10
2.05430221531794
 20
3.12776392179522
 30
0.0
 11
2.03406706731468
 21
3.17321280830838
 31
0.0
  0
LINE
  8
0
  6
CONTINUOUS
 62
0
 10
0.52569457636292
 20
0.5976824034
 30
0.0
 11
2.14120691110491
 21
3.1619519569815
 31
0.0
  0
LINE
  8
0
  6
CONTINUOUS
 62
0
 10
2.05430221531794
 20
3.12776392179522
 30
0.0
 11
1.0968012957166
 21
3.04827404056299
 31
0.0
  0
LINE
  8
0
  6
CONTINUOUS
 62
0
 10
1.18678683010108
 20
3.02327215298402
 30
0.0
 11
1.19816669633096
 21
2.07479655617362
 31
0.0
  0
LINE
  8
0
  6
CONTINUOUS
 62
0
 10
1.19250697057185
 20
2.168012517275
 30
0.0
 11
2.08295462456443
 21
2.06450709749892
 31
0.0
  0
LINE
  8
0
  6
CONTINUOUS
 62
0
 10
2.16140626109518
 20
2.01184604778838
 30
0.0
 11
2.14120691110491
 21
1.1619519569815
 31
0.0
  0
LINE
  8
0
  6
CONTINUOUS
 62
0
 10
2.05430221531794
 20
1.12776392179522
 30
0.0
 11
1.2001327613352
 21
1.11451732472999
 31
0.0
  0
LINE
  8
0
  6
CONTINUOUS
 62
0
 10
1.14076297979763
 20
1.18660391807372
 30
0.0
 11
0.52569457636292
 21
0.715117349106694
 31
0.0
  0
ARC
  8
2
  6
CONTINUOUS
 62
2
 10
0.888025751049491
 20
0.847682403401777
 30
0.0
 40
0.249999999973716
 50
189.000000001286
 51
270.000000011576
  0
ARC
  8
2
  6
CONTINUOUS
 62
2
 10
0.888025750786698
 20
0.847682403405611
 30
0.0
 40
0.249999999714759
 50
180.000000001286
 51
189.000000011576
  0
ARC
  8
3
  6
CONTINUOUS
 62
3
 10
1.13802575109162
 20
1.09768240341154
 30
0.0
 40
0.128499999991616
 50
72.0000000154345
 51
180.000000015435
  0
ARC
  8
3
  6
CONTINUOUS
 62
3
 10
1.1380257511
 20
1.0976824034
 30
0.0
 40
0.1285
 50
1.53511459547513E-13
 51
72.0000000205798
  0
ARC
  8
3
  6
CONTINUOUS
 62
3
 10
2.13802575106449
 20
1.09768240341154
 30
0.0
 40
0.128499999964487
 50
144.000000011319
 51
180.00000001029
  0
ARC
  8
3
  6
CONTINUOUS
 62
3
 10
2.13802575110375
 20
1.09768240341154
 30
0.0
 40
0.128499999996251
 50
5.14506965306984E-9
 51
144.000000021609
  0
ARC
  8
3
  6
CONTINUOUS
 62
3
 10
2.13802575111134
 20
2.09768240338846
 30
0.0
 40
0.128499999988661
 50
268.999999997456
 51
5.14506965306984E-9
  0
ARC
  8
3
  6
CONTINUOUS
 62
3
 10
2.13802575108826
 20
2.09768240338846
 30
0.0
 40
0.128499999988258
 50
180
 51
269.000000007746
  0
ARC
  8
3
  6
CONTINUOUS
 62
3
 10
1.13802575109625
 20
2.09768240341154
 30
0.0
 40
0.128499999996251
 50
36.0000000144056
 51
180.00000001029
  0
ARC
  8
3
  6
CONTINUOUS
 62
3
 10
1.13802575113551
 20
2.09768240341154
 30
0.0
 40
0.128499999964488
 50
5.14512054194474E-9
 51
36.0000000246958
  0
ARC
  8
3
  6
CONTINUOUS
 62
3
 10
1.1380257511
 20
3.0976824034
 30
0.0
 40
0.1285
 50
287.000000000028
 51
1.02901384613048E-8
  0
ARC
  8
3
  6
CONTINUOUS
 62
3
 10
1.13802575109146
 20
3.09768240338846
 30
0.0
 40
0.128499999991462
 50
179.999999994855
 51
287.000000005173
  0
ARC
  8
3
  6
CONTINUOUS
 62
3
 10
2.13802575106449
 20
3.09768240341154
 30
0.0
 40
0.128499999964488
 50
144.000000011319
 51
180.00000001029
  0
ARC
  8
3
  6
CONTINUOUS
 62
3
 10
2.13802575110375
 20
3.09768240341154
 30
0.0
 40
0.128499999996251
 50
5.14501876419493E-9
 51
144.000000021609
  0
ENDSEC
  0
EOF
