  0
SECTION
  2
HEADER
  9
$ACADVER
  1
AC1003
  9
$EXTMIN
 10
0
 20
21
  9
$EXTMAX
 10
23.0000000000561
 20
0
  9
$INSBASE
 10
11.5000000000281
 20
10.5
999
Created with OMAX Windows DXF File exporter 7/17/2007
  0
ENDSEC
  0
SECTION
  2
TABLES
  0
TABLE
  2
LAYER
 70
    10
  0
LAYER
  2
0
 70
     0
 62
     7
  6
CONTINUOUS
  0
LAYER
  2
1
 70
     0
 62
     7
  6
CONTINUOUS
  0
LAYER
  2
2
 70
     0
 62
     7
  6
CONTINUOUS
  0
LAYER
  2
3
 70
     0
 62
     7
  6
CONTINUOUS
  0
LAYER
  2
4
 70
     0
 62
     7
  6
CONTINUOUS
  0
LAYER
  2
5
 70
     0
 62
     7
  6
CONTINUOUS
  0
LAYER
  2
6
 70
     0
 62
     7
  6
CONTINUOUS
  0
LAYER
  2
7
 70
     0
 62
     7
  6
CONTINUOUS
  0
LAYER
  2
8
 70
     0
 62
     7
  6
CONTINUOUS
  0
LAYER
  2
9
 70
     0
 62
     7
  6
CONTINUOUS
  0
LAYER
  2
10
 70
     0
 62
     7
  6
CONTINUOUS
  0
LAYER
  2
11
 70
     0
 62
     7
  6
CONTINUOUS
  0
LAYER
  2
12
 70
     0
 62
     7
  6
CONTINUOUS
  0
ENDTAB
  0
ENDSEC
  0
SECTION
  2
ENTITIES
  0
ARC
  8
2
  6
CONTINUOUS
 62
2
 10
1.9999999998086
 20
11.5857864377511
 30
0.0
 40
0.999999999792728
 50
135.000000008656
 51
180.000000008656
  0
LINE
  8
2
  6
CONTINUOUS
 62
2
 10
4.70710678111345
 20
15.7071067811866
 30
0.0
 11
1.2928932188
 21
12.2928932188
 31
0.0
  0
ARC
  8
2
  6
CONTINUOUS
 62
2
 10
5.41421356224851
 20
15.0000000002327
 30
0.0
 40
0.999999999783214
 50
90.0000000073399
 51
135.00000001763
  0
ARC
  8
2
  6
CONTINUOUS
 62
2
 10
18.5857864377511
 20
15.0000000001914
 30
0.0
 40
0.999999999792729
 50
45.0000000086564
 51
90.0000000189462
  0
LINE
  8
2
  6
CONTINUOUS
 62
2
 10
22.7071067811865
 20
12.2928932187865
 30
0.0
 11
19.2928932188
 21
15.7071067812
 31
0.0
  0
ARC
  8
2
  6
CONTINUOUS
 62
2
 10
22.0000000002327
 20
11.5857864376515
 30
0.0
 40
0.999999999783213
 50
7.34062478817735E-9
 51
45.0000000176304
  0
ARC
  8
2
  6
CONTINUOUS
 62
2
 10
21.9999999999776
 20
1.99999999997756
 30
0.0
 40
1
 50
270.000000001285
 51
1.15761885408104E-8
  0
ARC
  8
3
  6
CONTINUOUS
 62
3
 10
17.1365
 20
7.80850000001154
 30
0.0
 40
0.128500000000002
 50
5.14557769698403E-9
 51
180.000000005145
  0
ARC
  8
3
  6
CONTINUOUS
 62
3
 10
17.1365
 20
9.19150000001154
 30
0.0
 40
0.128500000000002
 50
5.1448970582822E-9
 51
90.0000000051449
  0
ARC
  8
3
  6
CONTINUOUS
 62
3
 10
17.1365
 20
9.19150000001154
 30
0.0
 40
0.128500000000002
 50
90.0000000051449
 51
180.000000005145
  0
ARC
  8
3
  6
CONTINUOUS
 62
3
 10
6.8635
 20
7.80850000001154
 30
0.0
 40
0.1285
 50
5.14496703048519E-9
 51
180.000000005145
  0
ARC
  8
3
  6
CONTINUOUS
 62
3
 10
6.8635
 20
9.19150000001154
 30
0.0
 40
0.128499999999999
 50
5.145068808235E-9
 51
180.000000005145
  0
ARC
  8
3
  6
CONTINUOUS
 62
3
 10
19.4925
 20
7.80849999998846
 30
0.0
 40
0.128499999999995
 50
180.000000005143
 51
270.000000005143
  0
ARC
  8
3
  6
CONTINUOUS
 62
3
 10
19.4925
 20
7.80849999998846
 30
0.0
 40
0.128499999999996
 50
270.000000005143
 51
5.14382839190923E-9
  0
ARC
  8
3
  6
CONTINUOUS
 62
3
 10
19.4925
 20
9.19149999998846
 30
0.0
 40
0.128499999999995
 50
180.000000005145
 51
5.14487797495411E-9
  0
ARC
  8
3
  6
CONTINUOUS
 62
3
 10
4.5075
 20
9.1915
 30
0.0
 40
0.128500000000001
 50
1.02899340609704E-8
 51
180.000000005145
  0
ARC
  8
3
  6
CONTINUOUS
 62
3
 10
4.5075
 20
7.80849999998846
 30
0.0
 40
0.128499999999999
 50
180.000000005145
 51
5.1447761972043E-9
  0
ARC
  8
2
  6
CONTINUOUS
 62
2
 10
14.7500000000281
 20
3.25000000001684
 30
0.0
 40
0.24999999997755
 50
6.43155864912145E-9
 51
90.0000000167215
  0
ARC
  8
2
  6
CONTINUOUS
 62
2
 10
9.24999999998316
 20
3.25000000002806
 30
0.0
 40
0.249999999977551
 50
90.0000000064305
 51
180.000000006431
  0
LINE
  8
2
  6
CONTINUOUS
 62
2
 10
9
 20
3.25
 30
0.0
 11
9
 21
2.25
 31
0.0
  0
ARC
  8
2
  6
CONTINUOUS
 62
2
 10
9.24999999994949
 20
2.25000000000561
 30
0.0
 40
0.24999999997755
 50
180.000000001286
 51
270.000000011576
  0
LINE
  8
2
  6
CONTINUOUS
 62
2
 10
9.25
 20
2
 30
0.0
 11
14.75
 21
2
 31
0.0
  0
ARC
  8
2
  6
CONTINUOUS
 62
2
 10
14.7499999999944
 20
2.24999999999439
 30
0.0
 40
0.25
 50
270.000000001286
 51
1.15764175407475E-8
  0
LINE
  8
2
  6
CONTINUOUS
 62
2
 10
15
 20
2.25
 30
0.0
 11
15
 21
3.25
 31
0.0
  0
ARC
  8
3
  6
CONTINUOUS
 62
3
 10
22.498
 20
7.15624999998846
 30
0.0
 40
0.1285
 50
180.000000005144
 51
270.000000005144
  0
ARC
  8
3
  6
CONTINUOUS
 62
3
 10
22.498
 20
7.15624999998846
 30
0.0
 40
0.128499999999999
 50
270.000000005144
 51
5.14510697489118E-9
  0
ARC
  8
3
  6
CONTINUOUS
 62
3
 10
22.498
 20
9.84375
 30
0.0
 40
0.128500000000002
 50
180.000000005144
 51
360
  0
ARC
  8
3
  6
CONTINUOUS
 62
3
 10
1.502
 20
9.84375
 30
0.0
 40
0.1285
 50
180.000000005144
 51
360
  0
ARC
  8
3
  6
CONTINUOUS
 62
3
 10
1.502
 20
7.15625
 30
0.0
 40
0.128500000000001
 50
180.000000005144
 51
360
  0
ARC
  8
3
  6
CONTINUOUS
 62
3
 10
1.5
 20
6.125
 30
0.0
 40
0.1285
 50
180.000000005144
 51
360
  0
ARC
  8
3
  6
CONTINUOUS
 62
3
 10
8.5
 20
6.12500000001154
 30
0.0
 40
0.128499999999999
 50
180.000000010289
 51
5.14461080836087E-9
  0
ARC
  8
3
  6
CONTINUOUS
 62
3
 10
8.5
 20
10.8750000000115
 30
0.0
 40
0.128499999999999
 50
5.1448970582822E-9
 51
90.0000000051449
  0
ARC
  8
3
  6
CONTINUOUS
 62
3
 10
8.5
 20
10.8750000000115
 30
0.0
 40
0.128499999999999
 50
90.0000000051449
 51
180.000000005145
  0
ARC
  8
3
  6
CONTINUOUS
 62
3
 10
1.5
 20
10.875
 30
0.0
 40
0.128499999999999
 50
1.02892725055966E-8
 51
180.000000005144
  0
ARC
  8
3
  6
CONTINUOUS
 62
3
 10
22.5
 20
10.8750000000231
 30
0.0
 40
0.128499999999995
 50
180.000000010289
 51
1.14499968532687E-13
  0
ARC
  8
3
  6
CONTINUOUS
 62
3
 10
15.5
 20
10.875
 30
0.0
 40
0.128500000000002
 50
180.000000005144
 51
360
  0
ARC
  8
3
  6
CONTINUOUS
 62
3
 10
15.5
 20
6.12499999998846
 30
0.0
 40
0.128499999999999
 50
180.000000005144
 51
270.000000005144
  0
ARC
  8
3
  6
CONTINUOUS
 62
3
 10
15.5
 20
6.12499999998846
 30
0.0
 40
0.128499999999999
 50
270.000000005144
 51
5.14471258611067E-9
  0
ARC
  8
3
  6
CONTINUOUS
 62
3
 10
22.5
 20
6.12500000002308
 30
0.0
 40
0.128499999999995
 50
180.000000010289
 51
2.16277718339519E-13
  0
ARC
  8
3
  6
CONTINUOUS
 62
3
 10
22
 20
2.25000000000714
 30
0.0
 40
0.079500000000003
 50
5.1450179193601E-9
 51
180.000000005145
  0
ARC
  8
3
  6
CONTINUOUS
 62
3
 10
20
 20
2.24999999999286
 30
0.0
 40
0.0794999999999993
 50
180.000000005144
 51
270.000000005144
  0
ARC
  8
3
  6
CONTINUOUS
 62
3
 10
20
 20
2.24999999999286
 30
0.0
 40
0.0794999999999995
 50
270.000000005143
 51
5.14400650297139E-9
  0
ARC
  8
3
  6
CONTINUOUS
 62
3
 10
16
 20
2.25000000000714
 30
0.0
 40
0.0794999999999995
 50
5.14471258611067E-9
 51
180.000000005145
  0
ARC
  8
3
  6
CONTINUOUS
 62
3
 10
22
 20
5.25
 30
0.0
 40
0.079500000000003
 50
180.000000005144
 51
5.08888749034163E-14
  0
ARC
  8
3
  6
CONTINUOUS
 62
3
 10
20
 20
5.25000000000714
 30
0.0
 40
0.0795000000000029
 50
5.14622016902969E-9
 51
90.0000000051464
  0
ARC
  8
3
  6
CONTINUOUS
 62
3
 10
20
 20
5.25000000000714
 30
0.0
 40
0.079500000000002
 50
90.0000000051456
 51
180.000000005146
  0
ARC
  8
3
  6
CONTINUOUS
 62
3
 10
16
 20
5.25000000001428
 30
0.0
 40
0.0794999999999995
 50
180.000000010289
 51
2.54444374517081E-13
  0
ARC
  8
3
  6
CONTINUOUS
 62
3
 10
7.5
 20
2.4999999999952
 30
0.0
 40
0.0534999999999995
 50
180.000000005144
 51
270.000000005144
  0
ARC
  8
3
  6
CONTINUOUS
 62
3
 10
7.5
 20
2.4999999999952
 30
0.0
 40
0.0534999999999997
 50
270.000000005144
 51
5.14428003067399E-9
  0
ARC
  8
3
  6
CONTINUOUS
 62
3
 10
3.78
 20
2.5000000000048
 30
0.0
 40
0.0534999999999997
 50
5.1451705859848E-9
 51
180.000000005145
  0
ARC
  8
3
  6
CONTINUOUS
 62
3
 10
7.5
 20
5.039
 30
0.0
 40
0.0534999999999979
 50
180.000000005144
 51
359.999999999999
  0
ARC
  8
3
  6
CONTINUOUS
 62
3
 10
3.78
 20
5.039
 30
0.0
 40
0.0534999999999992
 50
1.02892216167217E-8
 51
180.000000005144
  0
ARC
  8
3
  6
CONTINUOUS
 62
3
 10
16.43
 20
11.82
 30
0.0
 40
0.0534999999999997
 50
1.02876186171623E-8
 51
180.000000005142
  0
ARC
  8
3
  6
CONTINUOUS
 62
3
 10
14
 20
13.75
 30
0.0
 40
0.0534999999999997
 50
1.02876186171623E-8
 51
180.000000005142
  0
ARC
  8
3
  6
CONTINUOUS
 62
3
 10
10
 20
11.8199999999952
 30
0.0
 40
0.0534999999999996
 50
180.000000005144
 51
270.000000005144
  0
ARC
  8
3
  6
CONTINUOUS
 62
3
 10
10
 20
11.8199999999952
 30
0.0
 40
0.0534999999999996
 50
270.000000005143
 51
5.14391744744031E-9
  0
ARC
  8
3
  6
CONTINUOUS
 62
3
 10
7.57
 20
13.75
 30
0.0
 40
0.0534999999999979
 50
180.000000005143
 51
359.999999999998
  0
ARC
  8
3
  6
CONTINUOUS
 62
3
 10
12.5
 20
15.25
 30
0.0
 40
0.128499999999999
 50
180.000000005144
 51
360
  0
ARC
  8
3
  6
CONTINUOUS
 62
3
 10
11.5
 20
15.2500000000115
 30
0.0
 40
0.128499999999999
 50
5.1448970582822E-9
 51
90.0000000051449
  0
ARC
  8
3
  6
CONTINUOUS
 62
3
 10
11.5
 20
15.2500000000115
 30
0.0
 40
0.128499999999999
 50
90.0000000051449
 51
180.000000005145
  0
ARC
  8
3
  6
CONTINUOUS
 62
3
 10
12.5
 20
13.2499999999885
 30
0.0
 40
0.128499999999998
 50
180.000000005143
 51
270.000000005143
  0
ARC
  8
3
  6
CONTINUOUS
 62
3
 10
12.5
 20
13.2499999999885
 30
0.0
 40
0.128499999999997
 50
270.000000005143
 51
5.14352305865981E-9
  0
ARC
  8
3
  6
CONTINUOUS
 62
3
 10
11.5
 20
13.25
 30
0.0
 40
0.128499999999999
 50
180.000000005144
 51
360
  0
ARC
  8
3
  6
CONTINUOUS
 62
3
 10
15.5
 20
1.25000000001117
 30
0.0
 40
0.0622000000000007
 50
180.000000010289
 51
4.57999874130746E-13
  0
ARC
  8
3
  6
CONTINUOUS
 62
3
 10
8.5
 20
1.25
 30
0.0
 40
0.0622000000000007
 50
180.000000005144
 51
360
  0
ARC
  8
3
  6
CONTINUOUS
 62
3
 10
11.5
 20
14.25
 30
0.0
 40
0.128499999999999
 50
180.000000005144
 51
360
  0
ARC
  8
3
  6
CONTINUOUS
 62
3
 10
12.5
 20
14.25
 30
0.0
 40
0.128500000000002
 50
180.000000005144
 51
360
  0
ARC
  8
3
  6
CONTINUOUS
 62
3
 10
10.5
 20
15.25
 30
0.0
 40
0.128500000000002
 50
180.000000005144
 51
360
  0
ARC
  8
3
  6
CONTINUOUS
 62
3
 10
10.5
 20
14.25
 30
0.0
 40
0.128499999999999
 50
180.000000005144
 51
360
  0
ARC
  8
3
  6
CONTINUOUS
 62
3
 10
13.5
 20
15.25
 30
0.0
 40
0.128500000000001
 50
180.000000005144
 51
360
  0
ARC
  8
3
  6
CONTINUOUS
 62
3
 10
13.5
 20
14.25
 30
0.0
 40
0.128500000000001
 50
180.000000005144
 51
360
  0
ARC
  8
3
  6
CONTINUOUS
 62
3
 10
12.5
 20
5.11999999997692
 30
0.0
 40
0.128499999999999
 50
1.02892470611592E-8
 51
179.999999999999
  0
ARC
  8
3
  6
CONTINUOUS
 62
3
 10
11.5
 20
5.12000000001154
 30
0.0
 40
0.128499999999999
 50
5.14496703048519E-9
 51
180.000000005145
  0
ARC
  8
3
  6
CONTINUOUS
 62
3
 10
12.5
 20
12.2500000000231
 30
0.0
 40
0.128500000000001
 50
180.000000010289
 51
1.14499968532687E-13
  0
ARC
  8
3
  6
CONTINUOUS
 62
3
 10
11.5
 20
12.25
 30
0.0
 40
0.128500000000001
 50
180.000000005144
 51
360
  0
ARC
  8
3
  6
CONTINUOUS
 62
3
 10
12.5
 20
4.11999999998846
 30
0.0
 40
0.128499999999999
 50
180.000000005144
 51
270.000000005144
  0
ARC
  8
3
  6
CONTINUOUS
 62
3
 10
12.5
 20
4.11999999998846
 30
0.0
 40
0.128499999999999
 50
270.000000005144
 51
5.14436908620508E-9
  0
ARC
  8
3
  6
CONTINUOUS
 62
3
 10
11.5
 20
4.11999999997692
 30
0.0
 40
0.128499999999999
 50
1.02892470611592E-8
 51
180
  0
ARC
  8
2
  6
CONTINUOUS
 62
2
 10
7.90000000001123
 20
1.90000000000673
 30
0.0
 40
0.0999999999910202
 50
6.43140598249674E-9
 51
90.0000000167214
  0
ARC
  8
2
  6
CONTINUOUS
 62
2
 10
6.59999999999327
 20
1.90000000001122
 30
0.0
 40
0.099999999991021
 50
90.0000000064306
 51
180.000000006431
  0
LINE
  8
2
  6
CONTINUOUS
 62
2
 10
6.5
 20
1.6
 30
0.0
 11
6.5
 21
1.9
 31
0.0
  0
ARC
  8
2
  6
CONTINUOUS
 62
2
 10
6.5999999999798
 20
1.60000000000224
 30
0.0
 40
0.0999999999910212
 50
180.000000001286
 51
270.000000011576
  0
LINE
  8
2
  6
CONTINUOUS
 62
2
 10
7.9
 20
1.5
 30
0.0
 11
6.6
 21
1.5
 31
0.0
  0
ARC
  8
2
  6
CONTINUOUS
 62
2
 10
7.89999999999775
 20
1.59999999999776
 30
0.0
 40
0.0999999999999999
 50
270.000000001286
 51
1.15765002351692E-8
  0
LINE
  8
2
  6
CONTINUOUS
 62
2
 10
8
 20
1.9
 30
0.0
 11
8
 21
1.6
 31
0.0
  0
ARC
  8
2
  6
CONTINUOUS
 62
2
 10
6.5999999999798
 20
15.1000000000022
 30
0.0
 40
0.0999999999910222
 50
180.000000001286
 51
270.000000011576
  0
ARC
  8
2
  6
CONTINUOUS
 62
2
 10
7.89999999999776
 20
15.0999999999978
 30
0.0
 40
0.1
 50
270.000000001285
 51
1.15767228739969E-8
  0
LINE
  8
2
  6
CONTINUOUS
 62
2
 10
8
 20
15.4
 30
0.0
 11
8
 21
15.1
 31
0.0
  0
ARC
  8
2
  6
CONTINUOUS
 62
2
 10
7.90000000001123
 20
15.4000000000067
 30
0.0
 40
0.0999999999910223
 50
6.43135509362184E-9
 51
90.0000000167217
  0
LINE
  8
2
  6
CONTINUOUS
 62
2
 10
6.6
 20
15.5
 30
0.0
 11
7.9
 21
15.5
 31
0.0
  0
ARC
  8
2
  6
CONTINUOUS
 62
2
 10
6.59999999999327
 20
15.4000000000112
 30
0.0
 40
0.0999999999910223
 50
90.0000000064318
 51
180.000000006431
  0
LINE
  8
2
  6
CONTINUOUS
 62
2
 10
6.5
 20
15.1
 30
0.0
 11
6.5
 21
15.4
 31
0.0
  0
ARC
  8
2
  6
CONTINUOUS
 62
2
 10
16.0999999999798
 20
15.1000000000022
 30
0.0
 40
0.0999999999910182
 50
180.000000001286
 51
270.000000011577
  0
ARC
  8
2
  6
CONTINUOUS
 62
2
 10
17.3999999999978
 20
15.0999999999978
 30
0.0
 40
0.0999999999999985
 50
270.000000001288
 51
1.15776643181826E-8
  0
LINE
  8
2
  6
CONTINUOUS
 62
2
 10
17.5
 20
15.4
 30
0.0
 11
17.5
 21
15.1
 31
0.0
  0
ARC
  8
2
  6
CONTINUOUS
 62
2
 10
17.4000000000112
 20
15.4000000000067
 30
0.0
 40
0.0999999999910183
 50
6.43007651063989E-9
 51
90.0000000167189
  0
LINE
  8
2
  6
CONTINUOUS
 62
2
 10
16.1
 20
15.5
 30
0.0
 11
17.4
 21
15.5
 31
0.0
  0
ARC
  8
2
  6
CONTINUOUS
 62
2
 10
16.0999999999933
 20
15.4000000000112
 30
0.0
 40
0.0999999999910198
 50
90.000000006432
 51
180.000000006433
  0
LINE
  8
2
  6
CONTINUOUS
 62
2
 10
16
 20
15.1
 30
0.0
 11
16
 21
15.4
 31
0.0
  0
LINE
  8
2
  6
CONTINUOUS
 62
2
 10
16.1
 20
2
 30
0.0
 11
17.4
 21
2
 31
0.0
  0
ARC
  8
2
  6
CONTINUOUS
 62
2
 10
16.0999999999933
 20
1.90000000001123
 30
0.0
 40
0.0999999999910192
 50
90.0000000064316
 51
180.000000006432
  0
LINE
  8
2
  6
CONTINUOUS
 62
2
 10
16
 20
1.6
 30
0.0
 11
16
 21
1.9
 31
0.0
  0
ARC
  8
2
  6
CONTINUOUS
 62
2
 10
16.0999999999798
 20
1.60000000000225
 30
0.0
 40
0.0999999999910202
 50
180.000000001285
 51
270.000000011576
  0
LINE
  8
2
  6
CONTINUOUS
 62
2
 10
17.4
 20
1.5
 30
0.0
 11
16.1
 21
1.5
 31
0.0
  0
ARC
  8
2
  6
CONTINUOUS
 62
2
 10
17.3999999999978
 20
1.59999999999776
 30
0.0
 40
0.100000000000001
 50
270.000000001286
 51
1.15769137072778E-8
  0
LINE
  8
2
  6
CONTINUOUS
 62
2
 10
17.5
 20
1.9
 30
0.0
 11
17.5
 21
1.6
 31
0.0
  0
ARC
  8
2
  6
CONTINUOUS
 62
2
 10
17.4000000000112
 20
7.05000000000673
 30
0.0
 40
0.0999999999910218
 50
6.43107520480987E-9
 51
90.0000000167209
  0
LINE
  8
2
  6
CONTINUOUS
 62
2
 10
16.1
 20
7.15
 30
0.0
 11
17.4
 21
7.15
 31
0.0
  0
ARC
  8
2
  6
CONTINUOUS
 62
2
 10
16.0999999999933
 20
7.05000000001123
 30
0.0
 40
0.0999999999910158
 50
90.0000000064296
 51
180.00000000643
  0
LINE
  8
2
  6
CONTINUOUS
 62
2
 10
16
 20
6.75
 30
0.0
 11
16
 21
7.05
 31
0.0
  0
LINE
  8
2
  6
CONTINUOUS
 62
2
 10
17.4
 20
6.65
 30
0.0
 11
16.1
 21
6.65
 31
0.0
  0
ARC
  8
2
  6
CONTINUOUS
 62
2
 10
17.3999999999978
 20
6.74999999999775
 30
0.0
 40
0.100000000000001
 50
270.000000001286
 51
1.15761122074981E-8
  0
LINE
  8
2
  6
CONTINUOUS
 62
2
 10
17.5
 20
7.05
 30
0.0
 11
17.5
 21
6.75
 31
0.0
  0
ARC
  8
2
  6
CONTINUOUS
 62
2
 10
7.90000000001122
 20
7.05000000000673
 30
0.0
 40
0.0999999999910209
 50
6.43056631606083E-9
 51
90.0000000167204
  0
LINE
  8
2
  6
CONTINUOUS
 62
2
 10
6.6
 20
7.15
 30
0.0
 11
7.9
 21
7.15
 31
0.0
  0
ARC
  8
2
  6
CONTINUOUS
 62
2
 10
6.59999999999327
 20
7.05000000001122
 30
0.0
 40
0.0999999999910224
 50
90.0000000064309
 51
180.000000006431
  0
LINE
  8
2
  6
CONTINUOUS
 62
2
 10
6.5
 20
6.75
 30
0.0
 11
6.5
 21
7.05
 31
0.0
  0
ARC
  8
2
  6
CONTINUOUS
 62
2
 10
6.59999999997979
 20
6.75000000000224
 30
0.0
 40
0.0999999999910213
 50
180.000000001286
 51
270.000000011577
  0
ARC
  8
2
  6
CONTINUOUS
 62
2
 10
7.89999999999775
 20
6.74999999999775
 30
0.0
 40
0.100000000000001
 50
270.000000001285
 51
1.15759595408733E-8
  0
LINE
  8
2
  6
CONTINUOUS
 62
2
 10
8
 20
7.05
 30
0.0
 11
8
 21
6.75
 31
0.0
  0
ARC
  8
2
  6
CONTINUOUS
 62
2
 10
19.25
 20
13
 30
0.0
 40
1.37500000000001
 50
180.000000005144
 51
0
  0
ARC
  8
2
  6
CONTINUOUS
 62
2
 10
4.75
 20
13
 30
0.0
 40
1.375
 50
1.02894760610963E-8
 51
180.000000005145
  0
ARC
  8
3
  6
CONTINUOUS
 62
3
 10
2.5
 20
6.99999999998846
 30
0.0
 40
0.128499999999999
 50
5.14476347498558E-9
 51
179.999999999999
  0
ARC
  8
3
  6
CONTINUOUS
 62
3
 10
2.5
 20
10
 30
0.0
 40
0.128499999999999
 50
180.000000005144
 51
360
  0
ARC
  8
3
  6
CONTINUOUS
 62
3
 10
21.5
 20
10
 30
0.0
 40
0.128499999999999
 50
180.000000005144
 51
360
  0
ARC
  8
3
  6
CONTINUOUS
 62
3
 10
21.5
 20
7.00000000001154
 30
0.0
 40
0.128499999999995
 50
5.14496703048519E-9
 51
180.000000005145
  0
ARC
  8
3
  6
CONTINUOUS
 62
3
 10
9
 20
6.99999999998846
 30
0.0
 40
0.128499999999999
 50
180.000000005145
 51
5.1447761972043E-9
  0
ARC
  8
3
  6
CONTINUOUS
 62
3
 10
9
 20
10.0000000000231
 30
0.0
 40
0.128499999999999
 50
180.000000010289
 51
1.14499968532687E-13
  0
ARC
  8
3
  6
CONTINUOUS
 62
3
 10
15
 20
7
 30
0.0
 40
0.128499999999999
 50
180.000000005144
 51
1.27222187258541E-14
  0
ARC
  8
3
  6
CONTINUOUS
 62
3
 10
15
 20
10
 30
0.0
 40
0.128499999999999
 50
180.000000005144
 51
1.27222187258541E-14
  0
ARC
  8
3
  6
CONTINUOUS
 62
3
 10
10
 20
7
 30
0.0
 40
0.128499999999999
 50
180.000000005144
 51
1.27222187258541E-14
  0
ARC
  8
3
  6
CONTINUOUS
 62
3
 10
10
 20
10
 30
0.0
 40
0.128499999999999
 50
180.000000005144
 51
360
  0
ARC
  8
3
  6
CONTINUOUS
 62
3
 10
14
 20
10.0000000000115
 30
0.0
 40
0.128499999999999
 50
5.14448358617361E-9
 51
180.000000005144
  0
ARC
  8
3
  6
CONTINUOUS
 62
3
 10
14
 20
6.99999999998846
 30
0.0
 40
0.128499999999999
 50
180.000000005145
 51
5.1447761972043E-9
  0
LINE
  8
2
  6
CONTINUOUS
 62
2
 10
18.5857864376
 20
16
 30
0.0
 11
5.4142135623
 21
16
 31
0.0
  0
LINE
  8
2
  6
CONTINUOUS
 62
2
 10
23
 20
2
 30
0.0
 11
23
 21
11.5857864376
 31
0.0
  0
LINE
  8
2
  6
CONTINUOUS
 62
2
 10
2
 20
1
 30
0.0
 11
22
 21
1
 31
0.0
  0
LINE
  8
2
  6
CONTINUOUS
 62
2
 10
1
 20
11.5857864376
 30
0.0
 11
1
 21
2
 31
0.0
  0
LINE
  8
9
  6
CONTINUOUS
 62
9
 10
1.84356553495839
 20
1.01231165949955
 30
0.0
 11
1.89678451935916
 21
0.873671465243291
 31
0.0
  0
LINE
  8
9
  6
CONTINUOUS
 62
9
 10
1.84356553495839
 20
1.01231165949955
 30
0.0
 11
1.81225684550858
 21
0.97364864791308
 31
0.0
  0
LINE
  8
9
  6
CONTINUOUS
 62
9
 10
3.76258210373657
 20
2.44941475620543
 30
0.0
 11
3.75399641447106
 21
2.49358429835722
 31
0.0
  0
LINE
  8
9
  6
CONTINUOUS
 62
9
 10
3.76258210373657
 20
2.44941475620543
 30
0.0
 11
3.79654403484083
 21
2.47893741251663
 31
0.0
  0
LINE
  8
9
  6
CONTINUOUS
 62
9
 10
3.76258210373929
 20
4.98841475620449
 30
0.0
 11
3.75399641447141
 21
5.03258429835582
 31
0.0
  0
LINE
  8
9
  6
CONTINUOUS
 62
9
 10
3.76258210373929
 20
4.98841475620449
 30
0.0
 11
3.79654403484197
 21
5.01793741251752
 31
0.0
  0
LINE
  8
9
  6
CONTINUOUS
 62
9
 10
2.60395868377854
 20
6.92446959508228
 30
0.0
 11
2.49681883998846
 21
6.93573044641055
 31
0.0
  0
LINE
  8
9
  6
CONTINUOUS
 62
9
 10
2.60395868377854
 20
6.92446959508228
 30
0.0
 11
2.58372353577586
 21
6.9699184815957
 31
0.0
  0
LINE
  8
9
  6
CONTINUOUS
 62
9
 10
1.60595868376497
 20
7.23178040493639
 30
0.0
 11
1.56214094523096
 21
7.13336415277362
 31
0.0
  0
LINE
  8
9
  6
CONTINUOUS
 62
9
 10
1.60595868376497
 20
7.23178040493639
 30
0.0
 11
1.55648121947185
 21
7.226580113875
 31
0.0
  0
LINE
  8
9
  6
CONTINUOUS
 62
9
 10
1.46029131620746
 20
6.24721076233894
 30
0.0
 11
1.54035030827152
 21
6.17512532213298
 31
0.0
  0
LINE
  8
9
  6
CONTINUOUS
 62
9
 10
1.46029131620746
 20
6.24721076233894
 30
0.0
 11
1.44994770960111
 21
6.19854791919991
 31
0.0
  0
LINE
  8
9
  6
CONTINUOUS
 62
9
 10
4.54720868375523
 20
7.93071076235106
 30
0.0
 11
4.5696070102352
 21
7.82533492132999
 31
0.0
  0
LINE
  8
9
  6
CONTINUOUS
 62
9
 10
4.54720868375523
 20
7.93071076235106
 30
0.0
 11
4.51023722869763
 21
7.89742151467371
 31
0.0
  0
LINE
  8
9
  6
CONTINUOUS
 62
9
 10
4.50525736577864
 20
9.0630195711723
 30
0.0
 11
4.45242887346443
 21
9.15832469409892
 31
0.0
  0
LINE
  8
9
  6
CONTINUOUS
 62
9
 10
4.50525736577864
 20
9.0630195711723
 30
0.0
 11
4.53088050999519
 21
9.10566364438838
 31
0.0
  0
LINE
  8
9
  6
CONTINUOUS
 62
9
 10
2.62221076233715
 20
10.039708683798
 30
0.0
 11
2.54971631605177
 21
9.95919544445605
 31
0.0
  0
LINE
  8
9
  6
CONTINUOUS
 62
9
 10
2.62221076233715
 20
10.039708683798
 30
0.0
 11
2.57354791919766
 21
10.0500522904022
 31
0.0
  0
LINE
  8
9
  6
CONTINUOUS
 62
9
 10
1.57753040490371
 20
9.94770868378871
 30
0.0
 11
1.56620566055861
 21
9.83996093848942
 31
0.0
  0
LINE
  8
9
  6
CONTINUOUS
 62
9
 10
1.57753040490371
 20
9.94770868378871
 30
0.0
 11
1.53208151839146
 21
9.92747353578341
 31
0.0
  0
LINE
  8
9
  6
CONTINUOUS
 62
9
 10
1.49775736577864
 20
10.7465195711723
 30
0.0
 11
1.44492887346443
 21
10.8418246940989
 31
0.0
  0
LINE
  8
9
  6
CONTINUOUS
 62
9
 10
1.49775736577864
 20
10.7465195711723
 30
0.0
 11
1.52338050999518
 21
10.7891636443884
 31
0.0
  0
LINE
  8
9
  6
CONTINUOUS
 62
9
 10
3.43508096058352
 20
12.5979889058993
 30
0.0
 11
3.53636027451994
 21
12.7065976731911
 31
0.0
  0
LINE
  8
9
  6
CONTINUOUS
 62
9
 10
3.43508096058352
 20
12.5979889058993
 30
0.0
 11
3.48355587130766
 21
12.5867975909504
 31
0.0
  0
LINE
  8
9
  6
CONTINUOUS
 62
9
 10
7.51911847637658
 20
13.766532409194
 30
0.0
 11
7.56341022242013
 21
13.7759469104541
 31
0.0
  0
LINE
  8
9
  6
CONTINUOUS
 62
9
 10
7.51911847637658
 20
13.766532409194
 30
0.0
 11
7.5493966363231
 21
13.7329051058491
 31
0.0
  0
LINE
  8
9
  6
CONTINUOUS
 62
9
 10
7.29
 20
15
 30
0.0
 11
7.21574812497305
 21
15.1286080200417
 31
0.0
  0
LINE
  8
9
  6
CONTINUOUS
 62
9
 10
7.29
 20
15
 30
0.0
 11
7.31487499998968
 21
15.0430847638442
 31
0.0
  0
LINE
  8
9
  6
CONTINUOUS
 62
9
 10
10.3960413162147
 20
15.3255304049084
 30
0.0
 11
10.5031811600049
 21
15.3142695535815
 31
0.0
  0
LINE
  8
9
  6
CONTINUOUS
 62
9
 10
10.3960413162147
 20
15.3255304049084
 30
0.0
 11
10.4162764642179
 21
15.2800815183952
 31
0.0
  0
LINE
  8
9
  6
CONTINUOUS
 62
9
 10
11.3947389623089
 20
15.1762954279288
 30
0.0
 11
11.4402707972671
 21
15.2739387631422
 31
0.0
  0
LINE
  8
9
  6
CONTINUOUS
 62
9
 10
11.3947389623089
 20
15.1762954279288
 30
0.0
 11
11.4442996485381
 21
15.1806314261402
 31
0.0
  0
LINE
  8
9
  6
CONTINUOUS
 62
9
 10
12.3960413162147
 20
15.3255304049084
 30
0.0
 11
12.5031811600049
 21
15.3142695535815
 31
0.0
  0
LINE
  8
9
  6
CONTINUOUS
 62
9
 10
12.3960413162147
 20
15.3255304049084
 30
0.0
 11
12.4162764642179
 21
15.2800815183952
 31
0.0
  0
LINE
  8
9
  6
CONTINUOUS
 62
9
 10
13.3960413162147
 20
15.3255304049084
 30
0.0
 11
13.5031811600049
 21
15.3142695535815
 31
0.0
  0
LINE
  8
9
  6
CONTINUOUS
 62
9
 10
13.3960413162147
 20
15.3255304049084
 30
0.0
 11
13.4162764642179
 21
15.2800815183952
 31
0.0
  0
LINE
  8
9
  6
CONTINUOUS
 62
9
 10
13.4602913162075
 20
14.3722107623389
 30
0.0
 11
13.5403503082715
 21
14.300125322133
 31
0.0
  0
LINE
  8
9
  6
CONTINUOUS
 62
9
 10
13.4602913162075
 20
14.3722107623389
 30
0.0
 11
13.4499477096011
 21
14.3235479191999
 31
0.0
  0
LINE
  8
9
  6
CONTINUOUS
 62
9
 10
12.603958683765
 20
14.3255304049364
 30
0.0
 11
12.560140945231
 21
14.2271141527736
 31
0.0
  0
LINE
  8
9
  6
CONTINUOUS
 62
9
 10
12.603958683765
 20
14.3255304049364
 30
0.0
 11
12.5544812194719
 21
14.320330113875
 31
0.0
  0
LINE
  8
9
  6
CONTINUOUS
 62
9
 10
11.603958683765
 20
14.3255304049364
 30
0.0
 11
11.560140945231
 21
14.2271141527736
 31
0.0
  0
LINE
  8
9
  6
CONTINUOUS
 62
9
 10
11.603958683765
 20
14.3255304049364
 30
0.0
 11
11.5544812194719
 21
14.320330113875
 31
0.0
  0
LINE
  8
9
  6
CONTINUOUS
 62
9
 10
10.603958683765
 20
14.3255304049364
 30
0.0
 11
10.560140945231
 21
14.2271141527736
 31
0.0
  0
LINE
  8
9
  6
CONTINUOUS
 62
9
 10
10.603958683765
 20
14.3255304049364
 30
0.0
 11
10.5544812194719
 21
14.320330113875
 31
0.0
  0
LINE
  8
9
  6
CONTINUOUS
 62
9
 10
11.4602913162075
 20
13.3722107623389
 30
0.0
 11
11.5403503082715
 21
13.300125322133
 31
0.0
  0
LINE
  8
9
  6
CONTINUOUS
 62
9
 10
11.4602913162075
 20
13.3722107623389
 30
0.0
 11
11.4499477096011
 21
13.3235479191999
 31
0.0
  0
LINE
  8
9
  6
CONTINUOUS
 62
9
 10
12.3960413162093
 20
13.3255304049009
 30
0.0
 11
12.5031811600003
 21
13.3142695535817
 31
0.0
  0
LINE
  8
9
  6
CONTINUOUS
 62
9
 10
12.3960413162093
 20
13.3255304049009
 30
0.0
 11
12.4162764642158
 21
13.2800815183892
 31
0.0
  0
LINE
  8
9
  6
CONTINUOUS
 62
9
 10
12.539708683764
 20
12.3722107623482
 30
0.0
 11
12.5621070102364
 21
12.2668349213255
 31
0.0
  0
LINE
  8
9
  6
CONTINUOUS
 62
9
 10
12.539708683764
 20
12.3722107623482
 30
0.0
 11
12.502737228704
 21
12.3389215146735
 31
0.0
  0
LINE
  8
9
  6
CONTINUOUS
 62
9
 10
11.603958683765
 20
12.3255304049364
 30
0.0
 11
11.560140945231
 21
12.2271141527736
 31
0.0
  0
LINE
  8
9
  6
CONTINUOUS
 62
9
 10
11.603958683765
 20
12.3255304049364
 30
0.0
 11
11.5544812194719
 21
12.320330113875
 31
0.0
  0
LINE
  8
9
  6
CONTINUOUS
 62
9
 10
10.0432824091934
 20
11.8514465110054
 30
0.0
 11
10.0249807855302
 21
11.8103403912013
 31
0.0
  0
LINE
  8
9
  6
CONTINUOUS
 62
9
 10
10.0432824091934
 20
11.8514465110054
 30
0.0
 11
9.9985289239035
 21
11.8467427301431
 31
0.0
  0
LINE
  8
9
  6
CONTINUOUS
 62
9
 10
8.5
 20
10.7465
 30
0.0
 11
8.44582937498456
 21
10.8403262747688
 31
0.0
  0
LINE
  8
9
  6
CONTINUOUS
 62
9
 10
8.5
 20
10.7465
 30
0.0
 11
8.52487499999162
 21
10.7895847638431
 31
0.0
  0
LINE
  8
9
  6
CONTINUOUS
 62
9
 10
8.92446959507481
 20
10.1039586837731
 30
0.0
 11
9.02344425189388
 21
10.0598923274555
 31
0.0
  0
LINE
  8
9
  6
CONTINUOUS
 62
9
 10
8.92446959507481
 20
10.1039586837731
 30
0.0
 11
8.92966988613087
 21
10.0544812194794
 31
0.0
  0
LINE
  8
9
  6
CONTINUOUS
 62
9
 10
9.89604131621468
 20
10.0755304049084
 30
0.0
 11
10.0031811600049
 21
10.0642695535815
 31
0.0
  0
LINE
  8
9
  6
CONTINUOUS
 62
9
 10
9.89604131621468
 20
10.0755304049084
 30
0.0
 11
9.91627646421795
 21
10.0300815183952
 31
0.0
  0
LINE
  8
9
  6
CONTINUOUS
 62
9
 10
9.9602913162075
 20
7.12221076233893
 30
0.0
 11
10.0403503082715
 21
7.05012532213298
 31
0.0
  0
LINE
  8
9
  6
CONTINUOUS
 62
9
 10
9.9602913162075
 20
7.12221076233893
 30
0.0
 11
9.94994770960112
 21
7.07354791919991
 31
0.0
  0
LINE
  8
9
  6
CONTINUOUS
 62
9
 10
9.10395868376362
 20
7.07553040493825
 30
0.0
 11
9.06014094523137
 21
6.9771141527747
 31
0.0
  0
LINE
  8
9
  6
CONTINUOUS
 62
9
 10
9.10395868376362
 20
7.07553040493825
 30
0.0
 11
9.05448121947059
 21
7.07033011387598
 31
0.0
  0
LINE
  8
9
  6
CONTINUOUS
 62
9
 10
8.60395868376497
 20
6.20053040493639
 30
0.0
 11
8.56014094523096
 21
6.10211415277362
 31
0.0
  0
LINE
  8
9
  6
CONTINUOUS
 62
9
 10
8.60395868376497
 20
6.20053040493639
 30
0.0
 11
8.55448121947185
 21
6.195330113875
 31
0.0
  0
LINE
  8
9
  6
CONTINUOUS
 62
9
 10
7.35581395348837
 20
6.65
 30
0.0
 11
7.28156207846142
 21
6.77860802004169
 31
0.0
  0
LINE
  8
9
  6
CONTINUOUS
 62
9
 10
7.35581395348837
 20
6.65
 30
0.0
 11
7.38068895347805
 21
6.69308476384423
 31
0.0
  0
LINE
  8
9
  6
CONTINUOUS
 62
9
 10
6.90106976405693
 20
7.68561483885877
 30
0.0
 11
6.82227554461661
 21
7.75909163716299
 31
0.0
  0
LINE
  8
9
  6
CONTINUOUS
 62
9
 10
6.90106976405693
 20
7.68561483885877
 30
0.0
 11
6.91226107900109
 21
7.73408974958402
 31
0.0
  0
LINE
  8
9
  6
CONTINUOUS
 62
9
 10
6.90106976405693
 20
9.06861483885877
 30
0.0
 11
6.8222755446166
 21
9.14209163716299
 31
0.0
  0
LINE
  8
9
  6
CONTINUOUS
 62
9
 10
6.90106976405693
 20
9.06861483885877
 30
0.0
 11
6.91226107900108
 21
9.11708974958402
 31
0.0
  0
LINE
  8
9
  6
CONTINUOUS
 62
9
 10
7.4685534889973
 20
5.08228240919539
 30
0.0
 11
7.50991996925577
 21
5.06386486558642
 31
0.0
  0
LINE
  8
9
  6
CONTINUOUS
 62
9
 10
7.4685534889973
 20
5.08228240919539
 30
0.0
 11
7.47328340197273
 21
5.03728029343129
 31
0.0
  0
LINE
  8
9
  6
CONTINUOUS
 62
9
 10
11.85
 20
3.5
 30
0.0
 11
11.9242518750038
 21
3.37139197994497
 31
0.0
  0
LINE
  8
9
  6
CONTINUOUS
 62
9
 10
11.85
 20
3.5
 30
0.0
 11
11.8251250000026
 21
3.45691523616023
 31
0.0
  0
LINE
  8
9
  6
CONTINUOUS
 62
9
 10
7.54328240919341
 20
2.53144651100542
 30
0.0
 11
7.52498078553024
 21
2.49034039120126
 31
0.0
  0
LINE
  8
9
  6
CONTINUOUS
 62
9
 10
7.54328240919341
 20
2.53144651100542
 30
0.0
 11
7.49852892390345
 21
2.52674273014306
 31
0.0
  0
LINE
  8
9
  6
CONTINUOUS
 62
9
 10
7.24496124031008
 20
2
 30
0.0
 11
7.31921311531393
 21
1.87139197994497
 31
0.0
  0
LINE
  8
9
  6
CONTINUOUS
 62
9
 10
7.24496124031008
 20
2
 30
0.0
 11
7.22008624031266
 21
1.95691523616023
 31
0.0
  0
LINE
  8
9
  6
CONTINUOUS
 62
9
 10
8.44967914294594
 20
1.28656024268717
 30
0.0
 11
8.5016677750276
 21
1.28109601728208
 31
0.0
  0
LINE
  8
9
  6
CONTINUOUS
 62
9
 10
8.44967914294594
 20
1.28656024268717
 30
0.0
 11
8.46991429095101
 21
1.24111135617481
 31
0.0
  0
LINE
  8
9
  6
CONTINUOUS
 62
9
 10
11.3777892376625
 20
4.08029131620307
 30
0.0
 11
11.4502836839424
 21
4.16080455554997
 31
0.0
  0
LINE
  8
9
  6
CONTINUOUS
 62
9
 10
11.3777892376625
 20
4.08029131620307
 30
0.0
 11
11.4264520808008
 21
4.06994770959348
 31
0.0
  0
LINE
  8
9
  6
CONTINUOUS
 62
9
 10
12.3960413162093
 20
4.19553040490091
 30
0.0
 11
12.5031811600003
 21
4.18426955358173
 31
0.0
  0
LINE
  8
9
  6
CONTINUOUS
 62
9
 10
12.3960413162093
 20
4.19553040490091
 30
0.0
 11
12.4162764642158
 21
4.15008151838921
 31
0.0
  0
LINE
  8
9
  6
CONTINUOUS
 62
9
 10
12.5000000000115
 20
4.9915
 30
0.0
 11
12.4458293749877
 21
5.08532627476398
 31
0.0
  0
LINE
  8
9
  6
CONTINUOUS
 62
9
 10
12.5000000000115
 20
4.9915
 30
0.0
 11
12.5248749999993
 21
5.03458476384535
 31
0.0
  0
LINE
  8
9
  6
CONTINUOUS
 62
9
 10
11.6026246630411
 20
5.04266676952501
 30
0.0
 11
11.4956902220265
 21
5.05579666789247
 31
0.0
  0
LINE
  8
9
  6
CONTINUOUS
 62
9
 10
11.6026246630411
 20
5.04266676952501
 30
0.0
 11
11.5831857893898
 21
5.08846188598048
 31
0.0
  0
LINE
  8
9
  6
CONTINUOUS
 62
9
 10
14.0397086837552
 20
7.12221076235106
 30
0.0
 11
14.0621070102352
 21
7.01683492132999
 31
0.0
  0
LINE
  8
9
  6
CONTINUOUS
 62
9
 10
14.0397086837552
 20
7.12221076235106
 30
0.0
 11
14.0027372286976
 21
7.08892151467372
 31
0.0
  0
LINE
  8
9
  6
CONTINUOUS
 62
9
 10
14.8960413162147
 20
7.07553040490838
 30
0.0
 11
15.0031811600049
 21
7.0642695535815
 31
0.0
  0
LINE
  8
9
  6
CONTINUOUS
 62
9
 10
14.8960413162147
 20
7.07553040490838
 30
0.0
 11
14.9162764642179
 21
7.03008151839522
 31
0.0
  0
LINE
  8
9
  6
CONTINUOUS
 62
9
 10
15.4602913162009
 20
6.24721076233679
 30
0.0
 11
15.5403503082688
 21
6.17512532213515
 31
0.0
  0
LINE
  8
9
  6
CONTINUOUS
 62
9
 10
15.4602913162009
 20
6.24721076233679
 30
0.0
 11
15.4499477095972
 21
6.19854791919721
 31
0.0
  0
LINE
  8
9
  6
CONTINUOUS
 62
9
 10
16.0843565534958
 20
6.65123116594995
 30
0.0
 11
16.0423697165369
 21
6.76061061568227
 31
0.0
  0
LINE
  8
9
  6
CONTINUOUS
 62
9
 10
16.0843565534958
 20
6.65123116594995
 30
0.0
 11
16.1156652429387
 21
6.68989417754205
 31
0.0
  0
LINE
  8
9
  6
CONTINUOUS
 62
9
 10
16.0643168510461
 20
5.29672892756649
 30
0.0
 11
16.0370909170162
 21
5.23557847848844
 31
0.0
  0
LINE
  8
9
  6
CONTINUOUS
 62
9
 10
16.0643168510461
 20
5.29672892756649
 30
0.0
 11
16.014839386753
 21
5.29152863650455
 31
0.0
  0
LINE
  8
9
  6
CONTINUOUS
 62
9
 10
17.1342573657729
 20
7.6800195711724
 30
0.0
 11
17.0814288734629
 21
7.77532469410139
 31
0.0
  0
LINE
  8
9
  6
CONTINUOUS
 62
9
 10
17.1342573657729
 20
7.6800195711724
 30
0.0
 11
17.1598805099913
 21
7.72266364438733
 31
0.0
  0
LINE
  8
9
  6
CONTINUOUS
 62
9
 10
17.1740697640569
 20
9.06861483885877
 30
0.0
 11
17.0952755446166
 21
9.14209163716299
 31
0.0
  0
LINE
  8
9
  6
CONTINUOUS
 62
9
 10
17.1740697640569
 20
9.06861483885877
 30
0.0
 11
17.1852610790011
 21
9.11708974958402
 31
0.0
  0
LINE
  8
9
  6
CONTINUOUS
 62
9
 10
15.1222107623372
 20
10.039708683798
 30
0.0
 11
15.0497163160518
 21
9.95919544445605
 31
0.0
  0
LINE
  8
9
  6
CONTINUOUS
 62
9
 10
15.1222107623372
 20
10.039708683798
 30
0.0
 11
15.0735479191977
 21
10.0500522904022
 31
0.0
  0
LINE
  8
9
  6
CONTINUOUS
 62
9
 10
14.1026246630411
 20
9.92266676952501
 30
0.0
 11
13.9956902220265
 21
9.93579666789247
 31
0.0
  0
LINE
  8
9
  6
CONTINUOUS
 62
9
 10
14.1026246630411
 20
9.92266676952501
 30
0.0
 11
14.0831857893898
 21
9.9684618859805
 31
0.0
  0
LINE
  8
9
  6
CONTINUOUS
 62
9
 10
15.3777892376522
 20
10.9147086837651
 30
0.0
 11
15.4837629713959
 21
10.9372340962577
 31
0.0
  0
LINE
  8
9
  6
CONTINUOUS
 62
9
 10
15.3777892376522
 20
10.9147086837651
 30
0.0
 11
15.4110784853265
 21
10.8777372287048
 31
0.0
  0
LINE
  8
9
  6
CONTINUOUS
 62
9
 10
16.3788376955573
 20
11.8043581137932
 30
0.0
 11
16.4097194337907
 21
11.8374747236022
 31
0.0
  0
LINE
  8
9
  6
CONTINUOUS
 62
9
 10
16.3788376955573
 20
11.8043581137932
 30
0.0
 11
16.4226843484736
 21
11.7942353163519
 31
0.0
  0
LINE
  8
9
  6
CONTINUOUS
 62
9
 10
17.9422972900522
 20
13.4248983671364
 30
0.0
 11
18.0875558768319
 21
13.4557740328104
 31
0.0
  0
LINE
  8
9
  6
CONTINUOUS
 62
9
 10
17.9422972900522
 20
13.4248983671364
 30
0.0
 11
17.975586537699
 21
13.3879269120512
 31
0.0
  0
LINE
  8
9
  6
CONTINUOUS
 62
9
 10
22.3960413162201
 20
10.9505304049158
 30
0.0
 11
22.5031811600095
 21
10.9392695535813
 31
0.0
  0
LINE
  8
9
  6
CONTINUOUS
 62
9
 10
22.3960413162201
 20
10.9505304049158
 30
0.0
 11
22.4162764642201
 21
10.9050815184012
 31
0.0
  0
LINE
  8
9
  6
CONTINUOUS
 62
9
 10
22.4582913162075
 20
9.96596076233894
 30
0.0
 11
22.5383503082715
 21
9.89387532213298
 31
0.0
  0
LINE
  8
9
  6
CONTINUOUS
 62
9
 10
22.4582913162075
 20
9.96596076233894
 30
0.0
 11
22.4479477096011
 21
9.91729791919991
 31
0.0
  0
LINE
  8
9
  6
CONTINUOUS
 62
9
 10
21.603958683765
 20
10.0755304049364
 30
0.0
 11
21.560140945231
 21
9.9771141527736
 31
0.0
  0
LINE
  8
9
  6
CONTINUOUS
 62
9
 10
21.603958683765
 20
10.0755304049364
 30
0.0
 11
21.5544812194719
 21
10.070330113875
 31
0.0
  0
LINE
  8
9
  6
CONTINUOUS
 62
9
 10
19.5322086837552
 20
9.31371076235106
 30
0.0
 11
19.5546070102352
 21
9.20833492132999
 31
0.0
  0
LINE
  8
9
  6
CONTINUOUS
 62
9
 10
19.5322086837552
 20
9.31371076235106
 30
0.0
 11
19.4952372286976
 21
9.28042151467372
 31
0.0
  0
LINE
  8
9
  6
CONTINUOUS
 62
9
 10
19.4527913162009
 20
7.93071076233679
 30
0.0
 11
19.5328503082688
 21
7.85862532213515
 31
0.0
  0
LINE
  8
9
  6
CONTINUOUS
 62
9
 10
19.4527913162009
 20
7.93071076233679
 30
0.0
 11
19.4424477095972
 21
7.88204791919721
 31
0.0
  0
LINE
  8
9
  6
CONTINUOUS
 62
9
 10
21.5737045720712
 20
6.8947389623089
 30
0.0
 11
21.4749464782796
 21
6.94079061772883
 31
0.0
  0
LINE
  8
9
  6
CONTINUOUS
 62
9
 10
21.5737045720712
 20
6.8947389623089
 30
0.0
 11
21.5693685738598
 21
6.94429964853812
 31
0.0
  0
LINE
  8
9
  6
CONTINUOUS
 62
9
 10
22.5735304049009
 20
7.26020868379075
 30
0.0
 11
22.5622056605587
 21
7.15246093849115
 31
0.0
  0
LINE
  8
9
  6
CONTINUOUS
 62
9
 10
22.5735304049009
 20
7.26020868379075
 30
0.0
 11
22.5280815183892
 21
7.23997353578422
 31
0.0
  0
LINE
  8
9
  6
CONTINUOUS
 62
9
 10
22.539708683764
 20
6.2472107623482
 30
0.0
 11
22.5621070102364
 21
6.14183492132553
 31
0.0
  0
LINE
  8
9
  6
CONTINUOUS
 62
9
 10
22.539708683764
 20
6.2472107623482
 30
0.0
 11
22.502737228704
 21
6.21392151467352
 31
0.0
  0
LINE
  8
9
  6
CONTINUOUS
 62
9
 10
21.9999999999893
 20
5.3295
 30
0.0
 11
22.0336037500039
 21
5.27129659768362
 31
0.0
  0
LINE
  8
9
  6
CONTINUOUS
 62
9
 10
21.9999999999893
 20
5.3295
 30
0.0
 11
21.9751250000014
 21
5.28641523615472
 31
0.0
  0
LINE
  8
9
  6
CONTINUOUS
 62
9
 10
20.0751687267602
 20
5.22411733172069
 30
0.0
 11
20.0091960178307
 21
5.21129353615303
 31
0.0
  0
LINE
  8
9
  6
CONTINUOUS
 62
9
 10
20.0751687267602
 20
5.22411733172069
 30
0.0
 11
20.0425297900606
 21
5.26166413333041
 31
0.0
  0
LINE
  8
9
  6
CONTINUOUS
 62
9
 10
19.9754331489336
 20
2.32560899304105
 30
0.0
 11
20.0251774057023
 21
2.28081906309266
 31
0.0
  0
LINE
  8
9
  6
CONTINUOUS
 62
9
 10
19.9754331489336
 20
2.32560899304105
 30
0.0
 11
19.9650895423313
 21
2.27694614990117
 31
0.0
  0
LINE
  8
9
  6
CONTINUOUS
 62
9
 10
21.934877412479
 20
2.20440067331006
 30
0.0
 11
21.9630000164238
 21
2.26470979211832
 31
0.0
  0
LINE
  8
9
  6
CONTINUOUS
 62
9
 10
21.934877412479
 20
2.20440067331006
 30
0.0
 11
21.9844380987083
 21
2.20873667152142
 31
0.0
  0
LINE
  8
9
  6
CONTINUOUS
 62
9
 10
17.4309016994205
 20
1.99510565163352
 30
0.0
 11
17.4617773652204
 21
1.84984706488051
 31
0.0
  0
LINE
  8
9
  6
CONTINUOUS
 62
9
 10
17.4309016994205
 20
1.99510565163352
 30
0.0
 11
17.3939302443642
 21
1.96181640395471
 31
0.0
  0
LINE
  8
9
  6
CONTINUOUS
 62
9
 10
16.0634915230488
 20
2.20215570565944
 30
0.0
 11
15.9974437800692
 21
2.21026534876875
 31
0.0
  0
LINE
  8
9
  6
CONTINUOUS
 62
9
 10
16.0634915230488
 20
2.20215570565944
 30
0.0
 11
16.0440526493975
 21
2.24795082211491
 31
0.0
  0
LINE
  8
9
  6
CONTINUOUS
 62
9
 10
15.5503208570449
 20
1.28656024269982
 30
0.0
 11
15.529058699041
 21
1.23880465389579
 31
0.0
  0
LINE
  8
9
  6
CONTINUOUS
 62
9
 10
15.5503208570449
 20
1.28656024269982
 30
0.0
 11
15.5008433927519
 21
1.28135995163736
 31
0.0
  0
LINE
  8
9
  6
CONTINUOUS
 62
9
 10
13.9825821037393
 20
13.6994147562045
 30
0.0
 11
13.9739964144714
 21
13.7435842983558
 31
0.0
  0
LINE
  8
9
  6
CONTINUOUS
 62
9
 10
13.9825821037393
 20
13.6994147562045
 30
0.0
 11
14.016544034842
 21
13.7289374125175
 31
0.0
  0
LINE
  8
9
  6
CONTINUOUS
 62
9
 10
16.68
 20
15
 30
0.0
 11
16.6057481249731
 21
15.1286080200417
 31
0.0
  0
LINE
  8
9
  6
CONTINUOUS
 62
9
 10
16.68
 20
15
 30
0.0
 11
16.7048749999897
 21
15.0430847638442
 31
0.0
  0
LINE
  8
0
  6
CONTINUOUS
 62
0
 10
16.6057481249731
 20
15.1286080200417
 30
0.0
 11
0.99999999988776
 21
0.873671465243291
 31
0.0
  0
LINE
  8
0
  6
CONTINUOUS
 62
0
 10
13.9739964144714
 20
13.7435842983558
 30
0.0
 11
16.7048749999897
 21
15.0430847638442
 31
0.0
  0
LINE
  8
0
  6
CONTINUOUS
 62
0
 10
15.529058699041
 20
1.23880465389579
 30
0.0
 11
14.016544034842
 21
13.7289374125175
 31
0.0
  0
LINE
  8
0
  6
CONTINUOUS
 62
0
 10
15.9974437800692
 20
2.21026534876875
 30
0.0
 11
15.5008433927519
 21
1.28135995163736
 31
0.0
  0
LINE
  8
0
  6
CONTINUOUS
 62
0
 10
17.4617773652204
 20
1.84984706488051
 30
0.0
 11
16.0440526493975
 21
2.24795082211491
 31
0.0
  0
LINE
  8
0
  6
CONTINUOUS
 62
0
 10
21.9630000164238
 20
2.26470979211832
 30
0.0
 11
17.3939302443642
 21
1.96181640395471
 31
0.0
  0
LINE
  8
0
  6
CONTINUOUS
 62
0
 10
20.0251774057023
 20
2.28081906309266
 30
0.0
 11
21.9844380987083
 21
2.20873667152142
 31
0.0
  0
LINE
  8
0
  6
CONTINUOUS
 62
0
 10
20.0091960178307
 20
5.21129353615303
 30
0.0
 11
19.9650895423313
 21
2.27694614990117
 31
0.0
  0
LINE
  8
0
  6
CONTINUOUS
 62
0
 10
22.0336037500039
 20
5.27129659768362
 30
0.0
 11
20.0425297900606
 21
5.26166413333041
 31
0.0
  0
LINE
  8
0
  6
CONTINUOUS
 62
0
 10
22.5621070102364
 20
6.14183492132553
 30
0.0
 11
21.9751250000014
 21
5.28641523615472
 31
0.0
  0
LINE
  8
0
  6
CONTINUOUS
 62
0
 10
22.5622056605587
 20
7.15246093849115
 30
0.0
 11
22.502737228704
 21
6.21392151467352
 31
0.0
  0
LINE
  8
0
  6
CONTINUOUS
 62
0
 10
21.4749464782796
 20
6.94079061772883
 30
0.0
 11
22.5280815183892
 21
7.23997353578422
 31
0.0
  0
LINE
  8
0
  6
CONTINUOUS
 62
0
 10
19.5328503082688
 20
7.85862532213515
 30
0.0
 11
21.5693685738598
 21
6.94429964853812
 31
0.0
  0
LINE
  8
0
  6
CONTINUOUS
 62
0
 10
19.5546070102352
 20
9.20833492132999
 30
0.0
 11
19.4424477095972
 21
7.88204791919721
 31
0.0
  0
LINE
  8
0
  6
CONTINUOUS
 62
0
 10
21.560140945231
 20
9.9771141527736
 30
0.0
 11
19.4952372286976
 21
9.28042151467372
 31
0.0
  0
LINE
  8
0
  6
CONTINUOUS
 62
0
 10
22.5383503082715
 20
9.89387532213298
 30
0.0
 11
21.5544812194719
 21
10.070330113875
 31
0.0
  0
LINE
  8
0
  6
CONTINUOUS
 62
0
 10
22.5031811600095
 20
10.9392695535813
 30
0.0
 11
22.4479477096011
 21
9.91729791919991
 31
0.0
  0
LINE
  8
0
  6
CONTINUOUS
 62
0
 10
18.0875558768319
 20
13.4557740328104
 30
0.0
 11
22.4162764642201
 21
10.9050815184012
 31
0.0
  0
LINE
  8
0
  6
CONTINUOUS
 62
0
 10
16.4097194337907
 20
11.8374747236022
 30
0.0
 11
17.975586537699
 21
13.3879269120512
 31
0.0
  0
LINE
  8
0
  6
CONTINUOUS
 62
0
 10
15.4837629713959
 20
10.9372340962577
 30
0.0
 11
16.4226843484736
 21
11.7942353163519
 31
0.0
  0
LINE
  8
0
  6
CONTINUOUS
 62
0
 10
13.9956902220265
 20
9.93579666789247
 30
0.0
 11
15.4110784853265
 21
10.8777372287048
 31
0.0
  0
LINE
  8
0
  6
CONTINUOUS
 62
0
 10
15.0497163160518
 20
9.95919544445605
 30
0.0
 11
14.0831857893898
 21
9.9684618859805
 31
0.0
  0
LINE
  8
0
  6
CONTINUOUS
 62
0
 10
17.0952755446166
 20
9.14209163716299
 30
0.0
 11
15.0735479191977
 21
10.0500522904022
 31
0.0
  0
LINE
  8
0
  6
CONTINUOUS
 62
0
 10
17.0814288734629
 20
7.77532469410139
 30
0.0
 11
17.1852610790011
 21
9.11708974958402
 31
0.0
  0
LINE
  8
0
  6
CONTINUOUS
 62
0
 10
16.0370909170162
 20
5.23557847848844
 30
0.0
 11
17.1598805099913
 21
7.72266364438733
 31
0.0
  0
LINE
  8
0
  6
CONTINUOUS
 62
0
 10
16.0423697165369
 20
6.76061061568227
 30
0.0
 11
16.014839386753
 21
5.29152863650455
 31
0.0
  0
LINE
  8
0
  6
CONTINUOUS
 62
0
 10
15.5403503082688
 20
6.17512532213515
 30
0.0
 11
16.1156652429387
 21
6.68989417754205
 31
0.0
  0
LINE
  8
0
  6
CONTINUOUS
 62
0
 10
15.0031811600049
 20
7.0642695535815
 30
0.0
 11
15.4499477095972
 21
6.19854791919721
 31
0.0
  0
LINE
  8
0
  6
CONTINUOUS
 62
0
 10
14.0621070102352
 20
7.01683492132999
 30
0.0
 11
14.9162764642179
 21
7.03008151839522
 31
0.0
  0
LINE
  8
0
  6
CONTINUOUS
 62
0
 10
11.4956902220265
 20
5.05579666789247
 30
0.0
 11
14.0027372286976
 21
7.08892151467372
 31
0.0
  0
LINE
  8
0
  6
CONTINUOUS
 62
0
 10
12.4458293749877
 20
5.08532627476398
 30
0.0
 11
11.5831857893898
 21
5.08846188598048
 31
0.0
  0
LINE
  8
0
  6
CONTINUOUS
 62
0
 10
12.5031811600003
 20
4.18426955358173
 30
0.0
 11
12.5248749999993
 21
5.03458476384535
 31
0.0
  0
LINE
  8
0
  6
CONTINUOUS
 62
0
 10
11.4502836839424
 20
4.16080455554997
 30
0.0
 11
12.4162764642158
 21
4.15008151838921
 31
0.0
  0
LINE
  8
0
  6
CONTINUOUS
 62
0
 10
8.5016677750276
 20
1.28109601728208
 30
0.0
 11
11.4264520808008
 21
4.06994770959348
 31
0.0
  0
LINE
  8
0
  6
CONTINUOUS
 62
0
 10
7.31921311531393
 20
1.87139197994497
 30
0.0
 11
8.46991429095101
 21
1.24111135617481
 31
0.0
  0
LINE
  8
0
  6
CONTINUOUS
 62
0
 10
7.52498078553024
 20
2.49034039120126
 30
0.0
 11
7.22008624031266
 21
1.95691523616023
 31
0.0
  0
LINE
  8
0
  6
CONTINUOUS
 62
0
 10
11.9242518750038
 20
3.37139197994497
 30
0.0
 11
7.49852892390345
 21
2.52674273014306
 31
0.0
  0
LINE
  8
0
  6
CONTINUOUS
 62
0
 10
7.50991996925577
 20
5.06386486558642
 30
0.0
 11
11.8251250000026
 21
3.45691523616023
 31
0.0
  0
LINE
  8
0
  6
CONTINUOUS
 62
0
 10
6.8222755446166
 20
9.14209163716299
 30
0.0
 11
7.47328340197273
 21
5.03728029343129
 31
0.0
  0
LINE
  8
0
  6
CONTINUOUS
 62
0
 10
6.82227554461661
 20
7.75909163716299
 30
0.0
 11
6.91226107900108
 21
9.11708974958402
 31
0.0
  0
LINE
  8
0
  6
CONTINUOUS
 62
0
 10
7.28156207846142
 20
6.77860802004169
 30
0.0
 11
6.91226107900109
 21
7.73408974958402
 31
0.0
  0
LINE
  8
0
  6
CONTINUOUS
 62
0
 10
8.56014094523096
 20
6.10211415277362
 30
0.0
 11
7.38068895347805
 21
6.69308476384423
 31
0.0
  0
LINE
  8
0
  6
CONTINUOUS
 62
0
 10
9.06014094523137
 20
6.9771141527747
 30
0.0
 11
8.55448121947185
 21
6.195330113875
 31
0.0
  0
LINE
  8
0
  6
CONTINUOUS
 62
0
 10
10.0403503082715
 20
7.05012532213298
 30
0.0
 11
9.05448121947059
 21
7.07033011387598
 31
0.0
  0
LINE
  8
0
  6
CONTINUOUS
 62
0
 10
10.0031811600049
 20
10.0642695535815
 30
0.0
 11
9.94994770960112
 21
7.07354791919991
 31
0.0
  0
LINE
  8
0
  6
CONTINUOUS
 62
0
 10
9.02344425189388
 20
10.0598923274555
 30
0.0
 11
9.91627646421795
 21
10.0300815183952
 31
0.0
  0
LINE
  8
0
  6
CONTINUOUS
 62
0
 10
8.44582937498456
 20
10.8403262747688
 30
0.0
 11
8.92966988613087
 21
10.0544812194794
 31
0.0
  0
LINE
  8
0
  6
CONTINUOUS
 62
0
 10
10.0249807855302
 20
11.8103403912013
 30
0.0
 11
8.52487499999162
 21
10.7895847638431
 31
0.0
  0
LINE
  8
0
  6
CONTINUOUS
 62
0
 10
11.560140945231
 20
12.2271141527736
 30
0.0
 11
9.9985289239035
 21
11.8467427301431
 31
0.0
  0
LINE
  8
0
  6
CONTINUOUS
 62
0
 10
12.5621070102364
 20
12.2668349213255
 30
0.0
 11
11.5544812194719
 21
12.320330113875
 31
0.0
  0
LINE
  8
0
  6
CONTINUOUS
 62
0
 10
12.5031811600003
 20
13.3142695535817
 30
0.0
 11
12.502737228704
 21
12.3389215146735
 31
0.0
  0
LINE
  8
0
  6
CONTINUOUS
 62
0
 10
11.5403503082715
 20
13.300125322133
 30
0.0
 11
12.4162764642158
 21
13.2800815183892
 31
0.0
  0
LINE
  8
0
  6
CONTINUOUS
 62
0
 10
10.560140945231
 20
14.2271141527736
 30
0.0
 11
11.4499477096011
 21
13.3235479191999
 31
0.0
  0
LINE
  8
0
  6
CONTINUOUS
 62
0
 10
11.560140945231
 20
14.2271141527736
 30
0.0
 11
10.5544812194719
 21
14.320330113875
 31
0.0
  0
LINE
  8
0
  6
CONTINUOUS
 62
0
 10
12.560140945231
 20
14.2271141527736
 30
0.0
 11
11.5544812194719
 21
14.320330113875
 31
0.0
  0
LINE
  8
0
  6
CONTINUOUS
 62
0
 10
13.5403503082715
 20
14.300125322133
 30
0.0
 11
12.5544812194719
 21
14.320330113875
 31
0.0
  0
LINE
  8
0
  6
CONTINUOUS
 62
0
 10
13.5031811600049
 20
15.3142695535815
 30
0.0
 11
13.4499477096011
 21
14.3235479191999
 31
0.0
  0
LINE
  8
0
  6
CONTINUOUS
 62
0
 10
12.5031811600049
 20
15.3142695535815
 30
0.0
 11
13.4162764642179
 21
15.2800815183952
 31
0.0
  0
LINE
  8
0
  6
CONTINUOUS
 62
0
 10
11.4402707972671
 20
15.2739387631422
 30
0.0
 11
12.4162764642179
 21
15.2800815183952
 31
0.0
  0
LINE
  8
0
  6
CONTINUOUS
 62
0
 10
10.5031811600049
 20
15.3142695535815
 30
0.0
 11
11.4442996485381
 21
15.1806314261402
 31
0.0
  0
LINE
  8
0
  6
CONTINUOUS
 62
0
 10
7.21574812497305
 20
15.1286080200417
 30
0.0
 11
10.4162764642179
 21
15.2800815183952
 31
0.0
  0
LINE
  8
0
  6
CONTINUOUS
 62
0
 10
7.56341022242013
 20
13.7759469104541
 30
0.0
 11
7.31487499998968
 21
15.0430847638442
 31
0.0
  0
LINE
  8
0
  6
CONTINUOUS
 62
0
 10
3.53636027451994
 20
12.7065976731911
 30
0.0
 11
7.5493966363231
 21
13.7329051058491
 31
0.0
  0
LINE
  8
0
  6
CONTINUOUS
 62
0
 10
1.44492887346443
 20
10.8418246940989
 30
0.0
 11
3.48355587130766
 21
12.5867975909504
 31
0.0
  0
LINE
  8
0
  6
CONTINUOUS
 62
0
 10
1.56620566055861
 20
9.83996093848942
 30
0.0
 11
1.52338050999518
 21
10.7891636443884
 31
0.0
  0
LINE
  8
0
  6
CONTINUOUS
 62
0
 10
2.54971631605177
 20
9.95919544445605
 30
0.0
 11
1.53208151839146
 21
9.92747353578341
 31
0.0
  0
LINE
  8
0
  6
CONTINUOUS
 62
0
 10
4.45242887346443
 20
9.15832469409892
 30
0.0
 11
2.57354791919766
 21
10.0500522904022
 31
0.0
  0
LINE
  8
0
  6
CONTINUOUS
 62
0
 10
4.5696070102352
 20
7.82533492132999
 30
0.0
 11
4.53088050999519
 21
9.10566364438838
 31
0.0
  0
LINE
  8
0
  6
CONTINUOUS
 62
0
 10
1.54035030827152
 20
6.17512532213298
 30
0.0
 11
4.51023722869763
 21
7.89742151467371
 31
0.0
  0
LINE
  8
0
  6
CONTINUOUS
 62
0
 10
1.56214094523096
 20
7.13336415277362
 30
0.0
 11
1.44994770960111
 21
6.19854791919991
 31
0.0
  0
LINE
  8
0
  6
CONTINUOUS
 62
0
 10
2.49681883998846
 20
6.93573044641055
 30
0.0
 11
1.55648121947185
 21
7.226580113875
 31
0.0
  0
LINE
  8
0
  6
CONTINUOUS
 62
0
 10
3.75399641447141
 20
5.03258429835582
 30
0.0
 11
2.58372353577586
 21
6.9699184815957
 31
0.0
  0
LINE
  8
0
  6
CONTINUOUS
 62
0
 10
3.75399641447106
 20
2.49358429835722
 30
0.0
 11
3.79654403484197
 21
5.01793741251752
 31
0.0
  0
LINE
  8
0
  6
CONTINUOUS
 62
0
 10
1.89678451935916
 20
0.873671465243291
 30
0.0
 11
3.79654403484083
 21
2.47893741251663
 31
0.0
  0
ARC
  8
2
  6
CONTINUOUS
 62
2
 10
1.99999999979796
 20
1.99999999897128
 30
0.0
 40
0.999999998859039
 50
261.000000001286
 51
270.000000011576
  0
ARC
  8
2
  6
CONTINUOUS
 62
2
 10
1.99999999978262
 20
2.00000000002245
 30
0.0
 40
0.999999999894863
 50
180.000000001286
 51
261.000000011576
  0
ARC
  8
3
  6
CONTINUOUS
 62
3
 10
3.78
 20
2.5
 30
0.0
 40
0.0534999999999997
 50
251.000000000028
 51
1.0290277560876E-8
  0
ARC
  8
3
  6
CONTINUOUS
 62
3
 10
3.77999999999327
 20
2.4999999999952
 30
0.0
 40
0.053499999993265
 50
179.999999994855
 51
251.000000005173
  0
ARC
  8
3
  6
CONTINUOUS
 62
3
 10
3.78000000000343
 20
5.0389999999952
 30
0.0
 40
0.0534999999965723
 50
250.99999999797
 51
5.14513241932863E-9
  0
ARC
  8
3
  6
CONTINUOUS
 62
3
 10
3.77999999999326
 20
5.0389999999952
 30
0.0
 40
0.0534999999932646
 50
179.999999999999
 51
251.000000008259
  0
ARC
  8
3
  6
CONTINUOUS
 62
3
 10
2.50000000003551
 20
6.99999999998846
 30
0.0
 40
0.128499999964487
 50
323.999999995884
 51
5.1450179193601E-9
  0
ARC
  8
3
  6
CONTINUOUS
 62
3
 10
2.49999999999625
 20
6.99999999998846
 30
0.0
 40
0.128499999996251
 50
180
 51
324.000000006173
  0
ARC
  8
3
  6
CONTINUOUS
 62
3
 10
1.50199999999625
 20
7.15625000001154
 30
0.0
 40
0.128499999996252
 50
36.000000014405
 51
180.00000001029
  0
ARC
  8
3
  6
CONTINUOUS
 62
3
 10
1.50200000003551
 20
7.15625000001154
 30
0.0
 40
0.12849999996449
 50
5.14462035002491E-9
 51
36.0000000246952
  0
ARC
  8
3
  6
CONTINUOUS
 62
3
 10
1.49999999998412
 20
6.12500000001154
 30
0.0
 40
0.128499999984119
 50
108.000000012348
 51
180.00000001029
  0
ARC
  8
3
  6
CONTINUOUS
 62
3
 10
1.50000000000838
 20
6.12500000001154
 30
0.0
 40
0.128499999991617
 50
5.14465533612641E-9
 51
108.000000022638
  0
ARC
  8
3
  6
CONTINUOUS
 62
3
 10
4.50749999999162
 20
7.80850000001154
 30
0.0
 40
0.128499999991615
 50
72.0000000154336
 51
180.000000015434
  0
ARC
  8
3
  6
CONTINUOUS
 62
3
 10
4.50750000001588
 20
7.80850000001154
 30
0.0
 40
0.128499999984118
 50
5.14496066937583E-9
 51
72.0000000257242
  0
ARC
  8
3
  6
CONTINUOUS
 62
3
 10
4.50750000001134
 20
9.19149999998846
 30
0.0
 40
0.128499999988661
 50
268.999999997455
 51
5.14478891942303E-9
  0
ARC
  8
3
  6
CONTINUOUS
 62
3
 10
4.50749999998826
 20
9.19149999998846
 30
0.0
 40
0.128499999988258
 50
180
 51
269.000000007746
  0
ARC
  8
3
  6
CONTINUOUS
 62
3
 10
2.49999999999817
 20
10.0000000000115
 30
0.0
 40
0.128499999998172
 50
18.0000000149191
 51
180.000000010288
  0
ARC
  8
3
  6
CONTINUOUS
 62
3
 10
2.50000000007285
 20
10.0000000000115
 30
0.0
 40
0.128499999927151
 50
5.14422755152175E-9
 51
18.0000000252092
  0
ARC
  8
3
  6
CONTINUOUS
 62
3
 10
1.50199999999412
 20
9.84375000001154
 30
0.0
 40
0.128499999994121
 50
54.000000013891
 51
180.00000001029
  0
ARC
  8
3
  6
CONTINUOUS
 62
3
 10
1.50200000002265
 20
9.84375000001154
 30
0.0
 40
0.128499999977354
 50
5.14501155825073E-9
 51
54.0000000241811
  0
ARC
  8
3
  6
CONTINUOUS
 62
3
 10
1.50000000001134
 20
10.8749999999885
 30
0.0
 40
0.128499999988661
 50
268.999999997456
 51
5.14496703048519E-9
  0
ARC
  8
3
  6
CONTINUOUS
 62
3
 10
1.49999999998826
 20
10.8749999999885
 30
0.0
 40
0.128499999988257
 50
180
 51
269.000000007746
  0
ARC
  8
2
  6
CONTINUOUS
 62
2
 10
4.75000000001845
 20
12.9999999998765
 30
0.0
 40
1.37499999998155
 50
196.999999999513
 51
5.14494158604774E-9
  0
ARC
  8
2
  6
CONTINUOUS
 62
2
 10
4.74999999917385
 20
12.9999999998765
 30
0.0
 40
1.37499999917385
 50
180
 51
197.000000009804
  0
ARC
  8
3
  6
CONTINUOUS
 62
3
 10
7.56999999996966
 20
13.7500000000048
 30
0.0
 40
0.0534999999696598
 50
162.000000010806
 51
180.000000010291
  0
ARC
  8
3
  6
CONTINUOUS
 62
3
 10
7.57000000000076
 20
13.7500000000048
 30
0.0
 40
0.0534999999992373
 50
5.14436908620508E-9
 51
162.000000021094
  0
LINE
  8
2
  6
CONTINUOUS
 62
2
 10
7.29
 20
15
 30
0.0
 11
6.6
 21
15
 31
0.0
  0
LINE
  8
2
  6
CONTINUOUS
 62
2
 10
7.9
 20
15
 30
0.0
 11
7.29
 21
15
 31
0.0
  0
ARC
  8
3
  6
CONTINUOUS
 62
3
 10
10.4999999999645
 20
15.2500000000115
 30
0.0
 40
0.12849999996449
 50
144.000000011319
 51
180.00000001029
  0
ARC
  8
3
  6
CONTINUOUS
 62
3
 10
10.5000000000037
 20
15.2500000000115
 30
0.0
 40
0.128499999996254
 50
5.14444541951743E-9
 51
144.000000021608
  0
ARC
  8
3
  6
CONTINUOUS
 62
3
 10
11.5
 20
15.25
 30
0.0
 40
0.128499999999999
 50
215.000000000028
 51
1.02899086165329E-8
  0
ARC
  8
3
  6
CONTINUOUS
 62
3
 10
11.4999999999634
 20
15.2499999999885
 30
0.0
 40
0.128499999963404
 50
179.999999994855
 51
215.000000005174
  0
ARC
  8
3
  6
CONTINUOUS
 62
3
 10
12.4999999999645
 20
15.2500000000115
 30
0.0
 40
0.128499999964484
 50
144.000000011318
 51
180.000000010289
  0
ARC
  8
3
  6
CONTINUOUS
 62
3
 10
12.5000000000038
 20
15.2500000000115
 30
0.0
 40
0.12849999999625
 50
5.14481436386048E-9
 51
144.000000021609
  0
ARC
  8
3
  6
CONTINUOUS
 62
3
 10
13.4999999999645
 20
15.2500000000115
 30
0.0
 40
0.12849999996449
 50
144.000000011319
 51
180.00000001029
  0
ARC
  8
3
  6
CONTINUOUS
 62
3
 10
13.5000000000037
 20
15.2500000000115
 30
0.0
 40
0.128499999996252
 50
5.1440383085182E-9
 51
144.000000021608
  0
ARC
  8
3
  6
CONTINUOUS
 62
3
 10
13.4999999999841
 20
14.2500000000115
 30
0.0
 40
0.128499999984119
 50
108.000000012348
 51
180.00000001029
  0
ARC
  8
3
  6
CONTINUOUS
 62
3
 10
13.5000000000084
 20
14.2500000000115
 30
0.0
 40
0.128499999991618
 50
5.14466805834513E-9
 51
108.000000022638
  0
ARC
  8
3
  6
CONTINUOUS
 62
3
 10
12.4999999999962
 20
14.2500000000115
 30
0.0
 40
0.128499999996253
 50
36.0000000144054
 51
180.00000001029
  0
ARC
  8
3
  6
CONTINUOUS
 62
3
 10
12.5000000000355
 20
14.2500000000115
 30
0.0
 40
0.12849999996449
 50
5.14484934996198E-9
 51
36.0000000246956
  0
ARC
  8
3
  6
CONTINUOUS
 62
3
 10
11.4999999999962
 20
14.2500000000115
 30
0.0
 40
0.128499999996249
 50
36.0000000144051
 51
180.000000010289
  0
ARC
  8
3
  6
CONTINUOUS
 62
3
 10
11.5000000000355
 20
14.2500000000115
 30
0.0
 40
0.128499999964486
 50
5.14510061378181E-9
 51
36.0000000246962
  0
ARC
  8
3
  6
CONTINUOUS
 62
3
 10
10.4999999999963
 20
14.2500000000115
 30
0.0
 40
0.12849999999625
 50
36.0000000144059
 51
180.00000001029
  0
ARC
  8
3
  6
CONTINUOUS
 62
3
 10
10.5000000000355
 20
14.2500000000115
 30
0.0
 40
0.128499999964492
 50
5.14332268371487E-9
 51
36.0000000246939
  0
ARC
  8
3
  6
CONTINUOUS
 62
3
 10
11.4999999999841
 20
13.2500000000115
 30
0.0
 40
0.128499999984118
 50
108.000000012348
 51
180.00000001029
  0
ARC
  8
3
  6
CONTINUOUS
 62
3
 10
11.5000000000084
 20
13.2500000000115
 30
0.0
 40
0.128499999991617
 50
5.1440383085182E-9
 51
108.000000022637
  0
ARC
  8
3
  6
CONTINUOUS
 62
3
 10
12.4999999999645
 20
13.2500000000115
 30
0.0
 40
0.128499999964487
 50
144.000000015434
 51
180.000000015433
  0
ARC
  8
3
  6
CONTINUOUS
 62
3
 10
12.5
 20
13.25
 30
0.0
 40
0.128499999999997
 50
359.999999999998
 51
144.000000020578
  0
ARC
  8
3
  6
CONTINUOUS
 62
3
 10
12.4999999999916
 20
12.2500000000115
 30
0.0
 40
0.128499999991617
 50
72.0000000113192
 51
180.000000005145
  0
ARC
  8
3
  6
CONTINUOUS
 62
3
 10
12.5000000000159
 20
12.2500000000115
 30
0.0
 40
0.12849999998412
 50
5.14463625279832E-9
 51
72.0000000216085
  0
ARC
  8
3
  6
CONTINUOUS
 62
3
 10
11.4999999999963
 20
12.2500000000115
 30
0.0
 40
0.128499999996251
 50
36.0000000144058
 51
180.00000001029
  0
ARC
  8
3
  6
CONTINUOUS
 62
3
 10
11.5000000000355
 20
12.2500000000115
 30
0.0
 40
0.12849999996449
 50
5.14484934996198E-9
 51
36.0000000246956
  0
ARC
  8
3
  6
CONTINUOUS
 62
3
 10
9.9999999999984
 20
11.8200000000048
 30
0.0
 40
0.0534999999984383
 50
36.0000000154334
 51
180.000000015432
  0
ARC
  8
3
  6
CONTINUOUS
 62
3
 10
10
 20
11.82
 30
0.0
 40
0.0534999999999983
 50
359.999999999999
 51
36.0000000205803
  0
ARC
  8
3
  6
CONTINUOUS
 62
3
 10
8.5
 20
10.875
 30
0.0
 40
0.128499999999999
 50
269.999999999999
 51
1.02902203108917E-8
  0
ARC
  8
3
  6
CONTINUOUS
 62
3
 10
8.49999999998846
 20
10.8749999999885
 30
0.0
 40
0.128499999988462
 50
179.999999994855
 51
270.000000005145
  0
ARC
  8
3
  6
CONTINUOUS
 62
3
 10
8.99999999997735
 20
10.0000000000115
 30
0.0
 40
0.12849999997735
 50
126.000000008232
 51
180.000000005145
  0
ARC
  8
3
  6
CONTINUOUS
 62
3
 10
9.00000000000588
 20
10.0000000000115
 30
0.0
 40
0.128499999994119
 50
5.14542503035932E-9
 51
126.000000018523
  0
ARC
  8
3
  6
CONTINUOUS
 62
3
 10
9.9999999999645
 20
10.0000000000115
 30
0.0
 40
0.128499999964484
 50
144.000000011318
 51
180.000000010289
  0
ARC
  8
3
  6
CONTINUOUS
 62
3
 10
10.0000000000038
 20
10.0000000000115
 30
0.0
 40
0.12849999999625
 50
5.14481436386048E-9
 51
144.000000021609
  0
ARC
  8
3
  6
CONTINUOUS
 62
3
 10
9.9999999999841
 20
7.00000000001154
 30
0.0
 40
0.128499999984117
 50
108.000000012348
 51
180.00000001029
  0
ARC
  8
3
  6
CONTINUOUS
 62
3
 10
10
 20
7
 30
0.0
 40
0.128499999999998
 50
360
 51
108.000000017493
  0
ARC
  8
3
  6
CONTINUOUS
 62
3
 10
8.99999999999625
 20
7.00000000001154
 30
0.0
 40
0.128499999996251
 50
36.0000000154344
 51
180.000000015434
  0
ARC
  8
3
  6
CONTINUOUS
 62
3
 10
9.00000000003551
 20
7.00000000001154
 30
0.0
 40
0.128499999964488
 50
5.14576534971024E-9
 51
36.0000000257254
  0
ARC
  8
3
  6
CONTINUOUS
 62
3
 10
8.49999999999625
 20
6.12500000001154
 30
0.0
 40
0.12849999999625
 50
36.0000000144055
 51
180.00000001029
  0
ARC
  8
3
  6
CONTINUOUS
 62
3
 10
8.50000000003551
 20
6.12500000001154
 30
0.0
 40
0.128499999964485
 50
5.14576216915556E-9
 51
36.0000000246963
  0
LINE
  8
2
  6
CONTINUOUS
 62
2
 10
7.35581395348837
 20
6.65
 30
0.0
 11
6.6
 21
6.65
 31
0.0
  0
LINE
  8
2
  6
CONTINUOUS
 62
2
 10
7.9
 20
6.65
 30
0.0
 11
7.35581395348837
 21
6.65
 31
0.0
  0
ARC
  8
3
  6
CONTINUOUS
 62
3
 10
6.8635
 20
7.8085
 30
0.0
 40
0.1285
 50
287.000000000028
 51
1.02902902830947E-8
  0
ARC
  8
3
  6
CONTINUOUS
 62
3
 10
6.86349999999146
 20
7.80849999998846
 30
0.0
 40
0.128499999991462
 50
179.999999994855
 51
287.000000005173
  0
ARC
  8
3
  6
CONTINUOUS
 62
3
 10
6.8635
 20
9.1915
 30
0.0
 40
0.128499999999998
 50
287.000000000027
 51
1.02901566997981E-8
  0
ARC
  8
3
  6
CONTINUOUS
 62
3
 10
6.86349999999146
 20
9.19149999998846
 30
0.0
 40
0.12849999999146
 50
179.999999994855
 51
287.000000005174
  0
ARC
  8
3
  6
CONTINUOUS
 62
3
 10
7.49999999999057
 20
5.0390000000048
 30
0.0
 40
0.0534999999905706
 50
126.000000011834
 51
180.00000001029
  0
ARC
  8
3
  6
CONTINUOUS
 62
3
 10
7.50000000000245
 20
5.0390000000048
 30
0.0
 40
0.0534999999975502
 50
5.14496703048519E-9
 51
126.000000022123
  0
LINE
  8
2
  6
CONTINUOUS
 62
2
 10
11.85
 20
3.5
 30
0.0
 11
9.25
 21
3.5
 31
0.0
  0
LINE
  8
2
  6
CONTINUOUS
 62
2
 10
14.75
 20
3.5
 30
0.0
 11
11.85
 21
3.5
 31
0.0
  0
ARC
  8
3
  6
CONTINUOUS
 62
3
 10
7.49999999999844
 20
2.5000000000048
 30
0.0
 40
0.0534999999984391
 50
36.0000000154344
 51
180.000000015434
  0
ARC
  8
3
  6
CONTINUOUS
 62
3
 10
7.5
 20
2.5
 30
0.0
 40
0.0534999999999995
 50
359.999999999999
 51
36.0000000205799
  0
LINE
  8
2
  6
CONTINUOUS
 62
2
 10
7.24496124031008
 20
2
 30
0.0
 11
7.9
 21
2
 31
0.0
  0
LINE
  8
2
  6
CONTINUOUS
 62
2
 10
6.6
 20
2
 30
0.0
 11
7.24496124031008
 21
2
 31
0.0
  0
ARC
  8
3
  6
CONTINUOUS
 62
3
 10
8.49999999998281
 20
1.25000000000559
 30
0.0
 40
0.0621999999828127
 50
144.000000011317
 51
180.000000010288
  0
ARC
  8
3
  6
CONTINUOUS
 62
3
 10
8.50000000000181
 20
1.25000000000559
 30
0.0
 40
0.0621999999981859
 50
5.14461080836087E-9
 51
144.000000021609
  0
ARC
  8
3
  6
CONTINUOUS
 62
3
 10
11.5000000000018
 20
4.11999999998846
 30
0.0
 40
0.128499999998171
 50
198.000000004114
 51
5.14458536392342E-9
  0
ARC
  8
3
  6
CONTINUOUS
 62
3
 10
11.4999999999271
 20
4.11999999998846
 30
0.0
 40
0.128499999927146
 50
180.000000005145
 51
198.000000014406
  0
ARC
  8
3
  6
CONTINUOUS
 62
3
 10
12.4999999999645
 20
4.12000000001154
 30
0.0
 40
0.128499999964488
 50
144.000000015434
 51
180.000000015434
  0
ARC
  8
3
  6
CONTINUOUS
 62
3
 10
12.5
 20
4.12
 30
0.0
 40
0.128499999999999
 50
359.999999999998
 51
144.000000020579
  0
ARC
  8
3
  6
CONTINUOUS
 62
3
 10
12.5000000000115
 20
5.11999999998846
 30
0.0
 40
0.128499999988459
 50
269.999999999998
 51
5.14431819733017E-9
  0
ARC
  8
3
  6
CONTINUOUS
 62
3
 10
12.4999999999885
 20
5.11999999998846
 30
0.0
 40
0.128499999988459
 50
180.000000005145
 51
270.000000010289
  0
ARC
  8
3
  6
CONTINUOUS
 62
3
 10
11.5
 20
5.12
 30
0.0
 40
0.128499999999998
 50
323.000000000029
 51
1.02905987968988E-8
  0
ARC
  8
3
  6
CONTINUOUS
 62
3
 10
11.4999999999961
 20
5.11999999998846
 30
0.0
 40
0.128499999996137
 50
179.999999994855
 51
323.000000005174
  0
ARC
  8
3
  6
CONTINUOUS
 62
3
 10
13.9999999999916
 20
7.00000000001154
 30
0.0
 40
0.128499999991615
 50
72.0000000154344
 51
180.000000015434
  0
ARC
  8
3
  6
CONTINUOUS
 62
3
 10
14.0000000000159
 20
7.00000000001154
 30
0.0
 40
0.128499999984118
 50
5.14539322481251E-9
 51
72.0000000257249
  0
ARC
  8
3
  6
CONTINUOUS
 62
3
 10
14.9999999999645
 20
7.00000000001154
 30
0.0
 40
0.128499999964484
 50
144.000000011318
 51
180.000000010289
  0
ARC
  8
3
  6
CONTINUOUS
 62
3
 10
15
 20
7
 30
0.0
 40
0.128499999999999
 50
359.999999999998
 51
144.000000016463
  0
ARC
  8
3
  6
CONTINUOUS
 62
3
 10
15.4999999999841
 20
6.12500000001154
 30
0.0
 40
0.128499999984116
 50
108.000000015435
 51
180.000000015434
  0
ARC
  8
3
  6
CONTINUOUS
 62
3
 10
15.5
 20
6.125
 30
0.0
 40
0.128499999999999
 50
359.999999999999
 51
108.00000002058
  0
ARC
  8
2
  6
CONTINUOUS
 62
2
 10
16.0999999999798
 20
6.74999999989713
 30
0.0
 40
0.0999999998859084
 50
261.000000001287
 51
270.000000011576
  0
ARC
  8
2
  6
CONTINUOUS
 62
2
 10
16.0999999999783
 20
6.75000000000225
 30
0.0
 40
0.0999999999894869
 50
180.000000001287
 51
261.000000011578
  0
ARC
  8
3
  6
CONTINUOUS
 62
3
 10
15.9999999999977
 20
5.25000000000714
 30
0.0
 40
0.0794999999976804
 50
36.0000000133773
 51
180.000000005145
  0
ARC
  8
3
  6
CONTINUOUS
 62
3
 10
16.000000000022
 20
5.25000000000714
 30
0.0
 40
0.0794999999780271
 50
5.14467123889982E-9
 51
36.0000000236665
  0
ARC
  8
3
  6
CONTINUOUS
 62
3
 10
17.1365
 20
7.8085
 30
0.0
 40
0.128500000000002
 50
269.000000000028
 51
1.02906146996722E-8
  0
ARC
  8
3
  6
CONTINUOUS
 62
3
 10
17.1364999999883
 20
7.80849999998846
 30
0.0
 40
0.12849999998826
 50
179.999999994856
 51
269.000000005174
  0
ARC
  8
3
  6
CONTINUOUS
 62
3
 10
17.1365
 20
9.1915
 30
0.0
 40
0.128499999999999
 50
287.000000000027
 51
1.02894060888933E-8
  0
ARC
  8
3
  6
CONTINUOUS
 62
3
 10
17.1364999999915
 20
9.19149999998846
 30
0.0
 40
0.128499999991463
 50
179.999999994856
 51
287.000000005174
  0
ARC
  8
3
  6
CONTINUOUS
 62
3
 10
14.9999999999982
 20
10.0000000000115
 30
0.0
 40
0.128499999998171
 50
18.0000000149192
 51
180.000000010288
  0
ARC
  8
3
  6
CONTINUOUS
 62
3
 10
15
 20
10
 30
0.0
 40
0.128499999999993
 50
359.999999999999
 51
18.000000020065
  0
ARC
  8
3
  6
CONTINUOUS
 62
3
 10
14.0000000000345
 20
9.9999999999885
 30
0.0
 40
0.128499999965515
 50
322.999999994884
 51
5.14649369673229E-9
  0
ARC
  8
3
  6
CONTINUOUS
 62
3
 10
13.9999999999961
 20
9.9999999999885
 30
0.0
 40
0.128499999996139
 50
179.999999994855
 51
323.000000005173
  0
ARC
  8
3
  6
CONTINUOUS
 62
3
 10
15.4999999999271
 20
10.8750000000115
 30
0.0
 40
0.12849999992715
 50
162.000000010802
 51
180.000000010288
  0
ARC
  8
3
  6
CONTINUOUS
 62
3
 10
15.5000000000018
 20
10.8750000000115
 30
0.0
 40
0.128499999998175
 50
5.1443818084238E-9
 51
162.000000021094
  0
ARC
  8
3
  6
CONTINUOUS
 62
3
 10
16.4300000000007
 20
11.8199999999952
 30
0.0
 40
0.0534999999992804
 50
196.999999999512
 51
5.14401286408075E-9
  0
ARC
  8
3
  6
CONTINUOUS
 62
3
 10
16.4299999999679
 20
11.8199999999952
 30
0.0
 40
0.0534999999678537
 50
179.999999999995
 51
197.000000009799
  0
ARC
  8
2
  6
CONTINUOUS
 62
2
 10
19.2499999992204
 20
13.0000000001235
 30
0.0
 40
1.37499999922045
 50
162.000000010804
 51
180.00000001029
  0
ARC
  8
2
  6
CONTINUOUS
 62
2
 10
19.2500000000196
 20
13.0000000001235
 30
0.0
 40
1.37499999998045
 50
5.14494158604774E-9
 51
162.000000021094
  0
ARC
  8
3
  6
CONTINUOUS
 62
3
 10
22.4999999999645
 20
10.8750000000115
 30
0.0
 40
0.128499999964481
 50
144.000000007205
 51
180.000000005147
  0
ARC
  8
3
  6
CONTINUOUS
 62
3
 10
22.5000000000038
 20
10.8750000000115
 30
0.0
 40
0.128499999996247
 50
5.1447761972043E-9
 51
144.000000017493
  0
ARC
  8
3
  6
CONTINUOUS
 62
3
 10
22.4979999999841
 20
9.84375000001154
 30
0.0
 40
0.128499999984123
 50
108.000000012346
 51
180.000000010289
  0
ARC
  8
3
  6
CONTINUOUS
 62
3
 10
22.4980000000084
 20
9.84375000001154
 30
0.0
 40
0.128499999991619
 50
5.14504336379755E-9
 51
108.000000022637
  0
ARC
  8
3
  6
CONTINUOUS
 62
3
 10
21.4999999999963
 20
10.0000000000115
 30
0.0
 40
0.12849999999625
 50
36.0000000144048
 51
180.000000010289
  0
ARC
  8
3
  6
CONTINUOUS
 62
3
 10
21.5000000000355
 20
10.0000000000115
 30
0.0
 40
0.128499999964487
 50
5.14413372515865E-9
 51
36.0000000246947
  0
ARC
  8
3
  6
CONTINUOUS
 62
3
 10
19.4924999999916
 20
9.19150000001154
 30
0.0
 40
0.128499999991613
 50
72.0000000154347
 51
180.000000015435
  0
ARC
  8
3
  6
CONTINUOUS
 62
3
 10
19.4925
 20
9.1915
 30
0.0
 40
0.128499999999996
 50
359.999999999998
 51
72.0000000205788
  0
ARC
  8
3
  6
CONTINUOUS
 62
3
 10
19.4924999999841
 20
7.80850000001154
 30
0.0
 40
0.128499999984114
 50
108.000000015435
 51
180.000000015434
  0
ARC
  8
3
  6
CONTINUOUS
 62
3
 10
19.4925
 20
7.8085
 30
0.0
 40
0.128499999999995
 50
359.999999999998
 51
108.000000020579
  0
ARC
  8
3
  6
CONTINUOUS
 62
3
 10
21.5000000000222
 20
6.99999999998846
 30
0.0
 40
0.128499999977829
 50
304.999999994884
 51
5.1455140858904E-9
  0
ARC
  8
3
  6
CONTINUOUS
 62
3
 10
21.499999999994
 20
6.99999999998846
 30
0.0
 40
0.128499999993991
 50
179.999999994855
 51
305.000000005174
  0
ARC
  8
3
  6
CONTINUOUS
 62
3
 10
22.4979999999941
 20
7.15625000001154
 30
0.0
 40
0.12849999999412
 50
54.0000000154339
 51
180.000000015434
  0
ARC
  8
3
  6
CONTINUOUS
 62
3
 10
22.498
 20
7.15625
 30
0.0
 40
0.1285
 50
359.999999999998
 51
54.0000000205783
  0
ARC
  8
3
  6
CONTINUOUS
 62
3
 10
22.4999999999916
 20
6.12500000001154
 30
0.0
 40
0.128499999991612
 50
72.00000001132
 51
180.000000005145
  0
ARC
  8
3
  6
CONTINUOUS
 62
3
 10
22.5000000000159
 20
6.12500000001154
 30
0.0
 40
0.128499999984114
 50
5.14538050259378E-9
 51
72.0000000216099
  0
ARC
  8
3
  6
CONTINUOUS
 62
3
 10
21.9999999999929
 20
5.25000000000714
 30
0.0
 40
0.0794999999928633
 50
90.0000000128618
 51
180.000000010289
  0
ARC
  8
3
  6
CONTINUOUS
 62
3
 10
22.0000000000071
 20
5.25000000000714
 30
0.0
 40
0.0794999999928651
 50
5.14469350278259E-9
 51
90.0000000231517
  0
ARC
  8
3
  6
CONTINUOUS
 62
3
 10
20
 20
5.25000000000001
 30
0.0
 40
0.0795000000000057
 50
341.00000000002
 51
1.02824549866369E-8
  0
ARC
  8
3
  6
CONTINUOUS
 62
3
 10
19.9999999999988
 20
5.24999999999286
 30
0.0
 40
0.0794999999988081
 50
179.999999994856
 51
341.000000005174
  0
ARC
  8
3
  6
CONTINUOUS
 62
3
 10
19.9999999999902
 20
2.25000000000714
 30
0.0
 40
0.0794999999901737
 50
108.000000015433
 51
180.000000015434
  0
ARC
  8
3
  6
CONTINUOUS
 62
3
 10
20
 20
2.25
 30
0.0
 40
0.079499999999999
 50
359.999999999998
 51
108.000000020579
  0
ARC
  8
3
  6
CONTINUOUS
 62
3
 10
22
 20
2.25
 30
0.0
 40
0.0795000000000022
 50
215.000000000028
 51
1.02902902830947E-8
  0
ARC
  8
3
  6
CONTINUOUS
 62
3
 10
21.9999999999774
 20
2.24999999999286
 30
0.0
 40
0.0794999999773605
 50
179.999999994857
 51
215.000000005175
  0
ARC
  8
2
  6
CONTINUOUS
 62
2
 10
17.4000000000112
 20
1.90000000005446
 30
0.0
 40
0.0999999999433009
 50
72.0000000167207
 51
90.000000016721
  0
ARC
  8
2
  6
CONTINUOUS
 62
2
 10
17.4000000000146
 20
1.90000000000673
 30
0.0
 40
0.0999999999876424
 50
6.43223928782328E-9
 51
72.0000000270114
  0
ARC
  8
3
  6
CONTINUOUS
 62
3
 10
16
 20
2.25
 30
0.0
 40
0.0794999999999987
 50
323.000000000031
 51
1.02924276158406E-8
  0
ARC
  8
3
  6
CONTINUOUS
 62
3
 10
15.9999999999976
 20
2.24999999999286
 30
0.0
 40
0.0794999999976119
 50
179.999999994855
 51
323.000000005174
  0
ARC
  8
3
  6
CONTINUOUS
 62
3
 10
15.4999999999982
 20
1.25000000000559
 30
0.0
 40
0.0621999999981863
 50
36.0000000133764
 51
180.000000005145
  0
ARC
  8
3
  6
CONTINUOUS
 62
3
 10
15.5000000000172
 20
1.25000000000559
 30
0.0
 40
0.0621999999828106
 50
5.14387291967477E-9
 51
36.0000000236653
  0
ARC
  8
3
  6
CONTINUOUS
 62
3
 10
14.0000000000034
 20
13.7499999999952
 30
0.0
 40
0.0534999999965727
 50
250.99999999797
 51
5.14452811393915E-9
  0
ARC
  8
3
  6
CONTINUOUS
 62
3
 10
13.9999999999933
 20
13.7499999999952
 30
0.0
 40
0.0534999999932648
 50
180
 51
251.000000008261
  0
LINE
  8
2
  6
CONTINUOUS
 62
2
 10
16.68
 20
15
 30
0.0
 11
16.1
 21
15
 31
0.0
  0
LINE
  8
2
  6
CONTINUOUS
 62
2
 10
17.4
 20
15
 30
0.0
 11
16.68
 21
15
 31
0.0
  0
ARC
  8
3
  6
CONTINUOUS
 62
3
 10
7.50000000001589
 20
19.9999999999719
 30
0.0
 40
0.128499999999999
 50
270.000000005144
 51
89.9999999948549
  0
LINE
  8
3
  6
CONTINUOUS
 62
3
 10
7.50000000005051
 20
20.1284999999719
 30
0.0
 11
5.75700000005051
 21
20.1284999999719
 31
0.0
  0
ARC
  8
3
  6
CONTINUOUS
 62
3
 10
5.75700000002455
 20
19.7430000000152
 30
0.0
 40
0.385499999965383
 50
90.0000000064306
 51
180.000000006431
  0
LINE
  8
3
  6
CONTINUOUS
 62
3
 10
5.37150000005051
 20
19.7429999999719
 30
0.0
 11
5.37150000005051
 21
17.9999999999719
 31
0.0
  0
ARC
  8
3
  6
CONTINUOUS
 62
3
 10
5.50000000005051
 20
17.999999999995
 30
0.0
 40
0.1285
 50
180.000000010289
 51
6.36110936292703E-14
  0
LINE
  8
3
  6
CONTINUOUS
 62
3
 10
5.62850000005051
 20
17.9999999999719
 30
0.0
 11
5.62850000005051
 21
19.7429999999719
 31
0.0
  0
ARC
  8
3
  6
CONTINUOUS
 62
3
 10
5.75700000004186
 20
19.7429999999864
 30
0.0
 40
0.128499999988461
 50
90.0000000064303
 51
180.00000000643
  0
ARC
  8
3
  6
CONTINUOUS
 62
3
 10
7.50000000005051
 20
16.9999999999604
 30
0.0
 40
0.1285
 50
180.000000005145
 51
270.000000005145
  0
ARC
  8
3
  6
CONTINUOUS
 62
3
 10
7.50000000005051
 20
16.9999999999604
 30
0.0
 40
0.128499999999999
 50
270.000000005145
 51
5.14492886382901E-9
  0
ARC
  8
3
  6
CONTINUOUS
 62
3
 10
5.50000000005051
 20
16.9999999999719
 30
0.0
 40
0.1285
 50
180.000000005144
 51
360
  0
ARC
  8
2
  6
CONTINUOUS
 62
2
 10
5.25000000003367
 20
20.25
 30
0.0
 40
0.24999999997755
 50
90.0000000064304
 51
180.000000006431
  0
LINE
  8
2
  6
CONTINUOUS
 62
2
 10
7.75000000005051
 20
20.4999999999719
 30
0.0
 11
5.25000000005051
 21
20.4999999999719
 31
0.0
  0
ARC
  8
2
  6
CONTINUOUS
 62
2
 10
7.75000000007857
 20
20.2499999999888
 30
0.0
 40
0.24999999997755
 50
6.43125331587203E-9
 51
90.0000000167212
  0
LINE
  8
2
  6
CONTINUOUS
 62
2
 10
8.00000000005051
 20
16.7499999999719
 30
0.0
 11
8.00000000005051
 21
20.2499999999719
 31
0.0
  0
ARC
  8
2
  6
CONTINUOUS
 62
2
 10
7.7500000000449
 20
16.7499999999663
 30
0.0
 40
0.250000000000001
 50
270.000000001286
 51
1.15761694574823E-8
  0
LINE
  8
2
  6
CONTINUOUS
 62
2
 10
5.25000000005051
 20
16.4999999999719
 30
0.0
 11
7.75000000005051
 21
16.4999999999719
 31
0.0
  0
LINE
  8
2
  6
CONTINUOUS
 62
2
 10
5.00000000005051
 20
20.2499999999719
 30
0.0
 11
5.00000000005051
 21
16.7499999999719
 31
0.0
  0
ARC
  8
3
  6
CONTINUOUS
 62
3
 10
6.50000000005051
 20
16.9999999999604
 30
0.0
 40
0.128500000000001
 50
180.000000005145
 51
5.14490341939156E-9
  0
ARC
  8
3
  6
CONTINUOUS
 62
3
 10
7.50000000005051
 20
17.9999999999719
 30
0.0
 40
0.128500000000001
 50
180.000000005144
 51
360
  0
LINE
  8
3
  6
CONTINUOUS
 62
3
 10
7.62850000005051
 20
17.9999999999719
 30
0.0
 11
7.62850000005051
 21
18.2429999999719
 31
0.0
  0
ARC
  8
3
  6
CONTINUOUS
 62
3
 10
7.24300000009378
 20
18.2429999999979
 30
0.0
 40
0.385499999965385
 50
6.43094162151325E-9
 51
90.0000000167208
  0
LINE
  8
3
  6
CONTINUOUS
 62
3
 10
7.24300000005051
 20
18.6284999999719
 30
0.0
 11
6.50000000005051
 21
18.6284999999719
 31
0.0
  0
ARC
  8
3
  6
CONTINUOUS
 62
3
 10
6.50000000006205
 20
18.4999999999719
 30
0.0
 40
0.128499999999999
 50
90.0000000025725
 51
269.999999997427
  0
ARC
  8
3
  6
CONTINUOUS
 62
3
 10
7.24300000006493
 20
18.2429999999806
 30
0.0
 40
0.128499999988462
 50
6.43058539938892E-9
 51
90.0000000167205
  0
LINE
  8
3
  6
CONTINUOUS
 62
3
 10
7.37150000005051
 20
18.2429999999719
 30
0.0
 11
7.37150000005051
 21
17.9999999999719
 31
0.0
  0
LINE
  8
9
  6
CONTINUOUS
 62
9
 10
5.00000000002245
 20
16.7499999999719
 30
0.0
 11
4.87139197997242
 21
16.6757481249594
 31
0.0
  0
LINE
  8
9
  6
CONTINUOUS
 62
9
 10
5.00000000002245
 20
16.7499999999719
 30
0.0
 11
4.95691523618101
 21
16.7748749999665
 31
0.0
  0
LINE
  8
9
  6
CONTINUOUS
 62
9
 10
5.37778923770266
 20
17.039708683737
 30
0.0
 11
5.48376297144646
 21
17.0622340962296
 31
0.0
  0
LINE
  8
9
  6
CONTINUOUS
 62
9
 10
5.37778923770266
 20
17.039708683737
 30
0.0
 11
5.41107848537701
 21
17.0027372286767
 31
0.0
  0
LINE
  8
9
  6
CONTINUOUS
 62
9
 10
6.39604131625976
 20
17.0755304048729
 30
0.0
 11
6.5031811600508
 21
17.0642695535537
 31
0.0
  0
LINE
  8
9
  6
CONTINUOUS
 62
9
 10
6.39604131625976
 20
17.0755304048729
 30
0.0
 11
6.41627646426629
 21
17.0300815183612
 31
0.0
  0
LINE
  8
9
  6
CONTINUOUS
 62
9
 10
7.39604131625976
 20
17.0755304048729
 30
0.0
 11
7.5031811600508
 21
17.0642695535537
 31
0.0
  0
LINE
  8
9
  6
CONTINUOUS
 62
9
 10
7.39604131625976
 20
17.0755304048729
 30
0.0
 11
7.41627646426629
 21
17.0300815183612
 31
0.0
  0
LINE
  8
9
  6
CONTINUOUS
 62
9
 10
6.92170270275321
 20
18.3714999999719
 30
0.0
 11
6.85789832773006
 21
18.4820124192038
 31
0.0
  0
LINE
  8
9
  6
CONTINUOUS
 62
9
 10
6.92170270275321
 20
18.3714999999719
 30
0.0
 11
6.9465777027429
 21
18.4145847638162
 31
0.0
  0
LINE
  8
9
  6
CONTINUOUS
 62
9
 10
6.62850000005051
 20
19.8714999999719
 30
0.0
 11
6.56469562500751
 21
19.9820124191923
 31
0.0
  0
LINE
  8
9
  6
CONTINUOUS
 62
9
 10
6.62850000005051
 20
19.8714999999719
 30
0.0
 11
6.65337500003246
 21
19.9145847638206
 31
0.0
  0
LINE
  8
0
  6
CONTINUOUS
 62
0
 10
6.56469562500751
 20
19.9820124191923
 30
0.0
 11
4.87139197997242
 21
16.4999999999719
 31
0.0
  0
LINE
  8
0
  6
CONTINUOUS
 62
0
 10
6.85789832773006
 20
18.4820124192038
 30
0.0
 11
6.65337500003246
 21
19.9145847638206
 31
0.0
  0
LINE
  8
0
  6
CONTINUOUS
 62
0
 10
7.5031811600508
 20
17.0642695535537
 30
0.0
 11
6.9465777027429
 21
18.4145847638162
 31
0.0
  0
LINE
  8
0
  6
CONTINUOUS
 62
0
 10
6.5031811600508
 20
17.0642695535537
 30
0.0
 11
7.41627646426629
 21
17.0300815183612
 31
0.0
  0
LINE
  8
0
  6
CONTINUOUS
 62
0
 10
5.48376297144646
 20
17.0622340962296
 30
0.0
 11
6.41627646426629
 21
17.0300815183612
 31
0.0
  0
LINE
  8
0
  6
CONTINUOUS
 62
0
 10
4.87139197997242
 20
16.6757481249594
 30
0.0
 11
5.41107848537701
 21
17.0027372286767
 31
0.0
  0
ARC
  8
2
  6
CONTINUOUS
 62
2
 10
5.25
 20
16.7499999999776
 30
0.0
 40
0.249999999977552
 50
180.000000001286
 51
270.000000011576
  0
ARC
  8
3
  6
CONTINUOUS
 62
3
 10
5.49999999997766
 20
16.9999999999835
 30
0.0
 40
0.128499999927144
 50
162.000000010804
 51
180.00000001029
  0
ARC
  8
3
  6
CONTINUOUS
 62
3
 10
5.50000000005234
 20
16.9999999999835
 30
0.0
 40
0.128499999998173
 50
5.14527236373461E-9
 51
162.000000021094
  0
ARC
  8
3
  6
CONTINUOUS
 62
3
 10
6.500000000015
 20
16.9999999999835
 30
0.0
 40
0.128499999964485
 50
144.000000015434
 51
180.000000015434
  0
ARC
  8
3
  6
CONTINUOUS
 62
3
 10
6.50000000005051
 20
16.9999999999719
 30
0.0
 40
0.128500000000001
 50
359.999999999999
 51
144.000000020579
  0
ARC
  8
3
  6
CONTINUOUS
 62
3
 10
7.500000000015
 20
16.9999999999835
 30
0.0
 40
0.128499999964485
 50
144.000000015435
 51
180.000000015435
  0
ARC
  8
3
  6
CONTINUOUS
 62
3
 10
7.50000000005051
 20
16.9999999999719
 30
0.0
 40
0.1285
 50
2.67166593242935E-13
 51
144.00000002058
  0
LINE
  8
3
  6
CONTINUOUS
 62
3
 10
6.92170270275321
 20
18.3714999999719
 30
0.0
 11
7.24300000005051
 21
18.3714999999719
 31
0.0
  0
LINE
  8
3
  6
CONTINUOUS
 62
3
 10
6.50000000005051
 20
18.3714999999719
 30
0.0
 11
6.92170270275321
 21
18.3714999999719
 31
0.0
  0
LINE
  8
3
  6
CONTINUOUS
 62
3
 10
6.62850000005051
 20
19.8714999999719
 30
0.0
 11
7.50000000005051
 21
19.8714999999719
 31
0.0
  0
LINE
  8
3
  6
CONTINUOUS
 62
3
 10
5.75700000005051
 20
19.8714999999719
 30
0.0
 11
6.62850000005051
 21
19.8714999999719
 31
0.0
  0
ARC
  8
3
  6
CONTINUOUS
 62
3
 10
11.0000000000159
 20
19.9999999999719
 30
0.0
 40
0.128499999999999
 50
270.000000005144
 51
89.9999999948549
  0
LINE
  8
3
  6
CONTINUOUS
 62
3
 10
11.0000000000505
 20
20.1284999999719
 30
0.0
 11
9.25700000005051
 21
20.1284999999719
 31
0.0
  0
ARC
  8
3
  6
CONTINUOUS
 62
3
 10
9.25700000002455
 20
19.7430000000152
 30
0.0
 40
0.385499999965383
 50
90.0000000064307
 51
180.000000006431
  0
LINE
  8
3
  6
CONTINUOUS
 62
3
 10
8.87150000005051
 20
19.7429999999719
 30
0.0
 11
8.87150000005051
 21
17.9999999999719
 31
0.0
  0
ARC
  8
3
  6
CONTINUOUS
 62
3
 10
9.00000000005051
 20
17.999999999995
 30
0.0
 40
0.1285
 50
180.000000010289
 51
6.36110936292703E-14
  0
LINE
  8
3
  6
CONTINUOUS
 62
3
 10
9.12850000005051
 20
17.9999999999719
 30
0.0
 11
9.12850000005051
 21
19.7429999999719
 31
0.0
  0
ARC
  8
3
  6
CONTINUOUS
 62
3
 10
9.25700000004186
 20
19.7429999999864
 30
0.0
 40
0.128499999988461
 50
90.0000000064303
 51
180.00000000643
  0
ARC
  8
3
  6
CONTINUOUS
 62
3
 10
11.0000000000505
 20
16.9999999999604
 30
0.0
 40
0.1285
 50
180.000000005145
 51
270.000000005145
  0
ARC
  8
3
  6
CONTINUOUS
 62
3
 10
11.0000000000505
 20
16.9999999999604
 30
0.0
 40
0.128499999999999
 50
270.000000005145
 51
5.14492886382901E-9
  0
ARC
  8
3
  6
CONTINUOUS
 62
3
 10
9.00000000005051
 20
16.9999999999719
 30
0.0
 40
0.1285
 50
180.000000005144
 51
360
  0
ARC
  8
2
  6
CONTINUOUS
 62
2
 10
8.75000000003367
 20
20.25
 30
0.0
 40
0.24999999997755
 50
90.0000000064304
 51
180.000000006431
  0
LINE
  8
2
  6
CONTINUOUS
 62
2
 10
11.2500000000505
 20
20.4999999999719
 30
0.0
 11
8.75000000005051
 21
20.4999999999719
 31
0.0
  0
ARC
  8
2
  6
CONTINUOUS
 62
2
 10
11.2500000000786
 20
20.2499999999888
 30
0.0
 40
0.24999999997755
 50
6.43125331587203E-9
 51
90.0000000167212
  0
LINE
  8
2
  6
CONTINUOUS
 62
2
 10
11.5000000000505
 20
16.7499999999719
 30
0.0
 11
11.5000000000505
 21
20.2499999999719
 31
0.0
  0
ARC
  8
2
  6
CONTINUOUS
 62
2
 10
11.2500000000449
 20
16.7499999999663
 30
0.0
 40
0.250000000000002
 50
270.000000001285
 51
1.15760676797325E-8
  0
LINE
  8
2
  6
CONTINUOUS
 62
2
 10
8.75000000005051
 20
16.4999999999719
 30
0.0
 11
11.2500000000505
 21
16.4999999999719
 31
0.0
  0
LINE
  8
2
  6
CONTINUOUS
 62
2
 10
8.50000000005051
 20
20.2499999999719
 30
0.0
 11
8.50000000005051
 21
16.7499999999719
 31
0.0
  0
ARC
  8
3
  6
CONTINUOUS
 62
3
 10
10.0000000000505
 20
16.9999999999604
 30
0.0
 40
0.128500000000002
 50
180.000000005145
 51
5.14490341939156E-9
  0
ARC
  8
3
  6
CONTINUOUS
 62
3
 10
11.0000000000505
 20
17.9999999999719
 30
0.0
 40
0.128500000000002
 50
180.000000005144
 51
360
  0
LINE
  8
3
  6
CONTINUOUS
 62
3
 10
11.1285000000505
 20
17.9999999999719
 30
0.0
 11
11.1285000000505
 21
18.2429999999719
 31
0.0
  0
ARC
  8
3
  6
CONTINUOUS
 62
3
 10
10.7430000000938
 20
18.2429999999979
 30
0.0
 40
0.385499999965384
 50
6.43086528820089E-9
 51
90.0000000167207
  0
LINE
  8
3
  6
CONTINUOUS
 62
3
 10
10.7430000000505
 20
18.6284999999719
 30
0.0
 11
10.0000000000505
 21
18.6284999999719
 31
0.0
  0
ARC
  8
3
  6
CONTINUOUS
 62
3
 10
10.000000000062
 20
18.4999999999719
 30
0.0
 40
0.128499999999999
 50
90.0000000025725
 51
269.999999997427
  0
ARC
  8
3
  6
CONTINUOUS
 62
3
 10
10.7430000000649
 20
18.2429999999806
 30
0.0
 40
0.128499999988462
 50
6.43058539938892E-9
 51
90.0000000167205
  0
LINE
  8
3
  6
CONTINUOUS
 62
3
 10
10.8715000000505
 20
18.2429999999719
 30
0.0
 11
10.8715000000505
 21
17.9999999999719
 31
0.0
  0
LINE
  8
9
  6
CONTINUOUS
 62
9
 10
8.50000000002245
 20
16.7499999999719
 30
0.0
 11
8.37139197997242
 21
16.6757481249594
 31
0.0
  0
LINE
  8
9
  6
CONTINUOUS
 62
9
 10
8.50000000002245
 20
16.7499999999719
 30
0.0
 11
8.45691523618101
 21
16.7748749999665
 31
0.0
  0
LINE
  8
9
  6
CONTINUOUS
 62
9
 10
8.87778923770266
 20
17.039708683737
 30
0.0
 11
8.98376297144646
 21
17.0622340962296
 31
0.0
  0
LINE
  8
9
  6
CONTINUOUS
 62
9
 10
8.87778923770266
 20
17.039708683737
 30
0.0
 11
8.91107848537701
 21
17.0027372286767
 31
0.0
  0
LINE
  8
9
  6
CONTINUOUS
 62
9
 10
9.89604131625976
 20
17.0755304048729
 30
0.0
 11
10.0031811600508
 21
17.0642695535537
 31
0.0
  0
LINE
  8
9
  6
CONTINUOUS
 62
9
 10
9.89604131625976
 20
17.0755304048729
 30
0.0
 11
9.91627646426629
 21
17.0300815183612
 31
0.0
  0
LINE
  8
9
  6
CONTINUOUS
 62
9
 10
10.8960413162598
 20
17.0755304048729
 30
0.0
 11
11.0031811600508
 21
17.0642695535537
 31
0.0
  0
LINE
  8
9
  6
CONTINUOUS
 62
9
 10
10.8960413162598
 20
17.0755304048729
 30
0.0
 11
10.9162764642663
 21
17.0300815183612
 31
0.0
  0
LINE
  8
9
  6
CONTINUOUS
 62
9
 10
10.4217027027532
 20
18.3714999999719
 30
0.0
 11
10.3578983277301
 21
18.4820124192038
 31
0.0
  0
LINE
  8
9
  6
CONTINUOUS
 62
9
 10
10.4217027027532
 20
18.3714999999719
 30
0.0
 11
10.4465777027429
 21
18.4145847638162
 31
0.0
  0
LINE
  8
9
  6
CONTINUOUS
 62
9
 10
10.1285000000505
 20
19.8714999999719
 30
0.0
 11
10.0646956250075
 21
19.9820124191923
 31
0.0
  0
LINE
  8
9
  6
CONTINUOUS
 62
9
 10
10.1285000000505
 20
19.8714999999719
 30
0.0
 11
10.1533750000325
 21
19.9145847638206
 31
0.0
  0
LINE
  8
0
  6
CONTINUOUS
 62
0
 10
10.0646956250075
 20
19.9820124191923
 30
0.0
 11
8.37139197997242
 21
16.4999999999719
 31
0.0
  0
LINE
  8
0
  6
CONTINUOUS
 62
0
 10
10.3578983277301
 20
18.4820124192038
 30
0.0
 11
10.1533750000325
 21
19.9145847638206
 31
0.0
  0
LINE
  8
0
  6
CONTINUOUS
 62
0
 10
11.0031811600508
 20
17.0642695535537
 30
0.0
 11
10.4465777027429
 21
18.4145847638162
 31
0.0
  0
LINE
  8
0
  6
CONTINUOUS
 62
0
 10
10.0031811600508
 20
17.0642695535537
 30
0.0
 11
10.9162764642663
 21
17.0300815183612
 31
0.0
  0
LINE
  8
0
  6
CONTINUOUS
 62
0
 10
8.98376297144646
 20
17.0622340962296
 30
0.0
 11
9.91627646426629
 21
17.0300815183612
 31
0.0
  0
LINE
  8
0
  6
CONTINUOUS
 62
0
 10
8.37139197997242
 20
16.6757481249594
 30
0.0
 11
8.91107848537701
 21
17.0027372286767
 31
0.0
  0
ARC
  8
2
  6
CONTINUOUS
 62
2
 10
8.75
 20
16.7499999999776
 30
0.0
 40
0.249999999977551
 50
180.000000001286
 51
270.000000011575
  0
ARC
  8
3
  6
CONTINUOUS
 62
3
 10
8.99999999997766
 20
16.9999999999835
 30
0.0
 40
0.128499999927144
 50
162.000000010804
 51
180.00000001029
  0
ARC
  8
3
  6
CONTINUOUS
 62
3
 10
9.00000000005234
 20
16.9999999999835
 30
0.0
 40
0.128499999998172
 50
5.14524691929716E-9
 51
162.000000021094
  0
ARC
  8
3
  6
CONTINUOUS
 62
3
 10
10.000000000015
 20
16.9999999999835
 30
0.0
 40
0.128499999964486
 50
144.000000015433
 51
180.000000015433
  0
ARC
  8
3
  6
CONTINUOUS
 62
3
 10
10.0000000000505
 20
16.9999999999719
 30
0.0
 40
0.128500000000001
 50
359.999999999999
 51
144.000000020579
  0
ARC
  8
3
  6
CONTINUOUS
 62
3
 10
11.000000000015
 20
16.9999999999835
 30
0.0
 40
0.128499999964485
 50
144.000000015435
 51
180.000000015435
  0
ARC
  8
3
  6
CONTINUOUS
 62
3
 10
11.0000000000505
 20
16.9999999999719
 30
0.0
 40
0.1285
 50
2.67166593242935E-13
 51
144.00000002058
  0
LINE
  8
3
  6
CONTINUOUS
 62
3
 10
10.4217027027532
 20
18.3714999999719
 30
0.0
 11
10.7430000000505
 21
18.3714999999719
 31
0.0
  0
LINE
  8
3
  6
CONTINUOUS
 62
3
 10
10.0000000000505
 20
18.3714999999719
 30
0.0
 11
10.4217027027532
 21
18.3714999999719
 31
0.0
  0
LINE
  8
3
  6
CONTINUOUS
 62
3
 10
10.1285000000505
 20
19.8714999999719
 30
0.0
 11
11.0000000000505
 21
19.8714999999719
 31
0.0
  0
LINE
  8
3
  6
CONTINUOUS
 62
3
 10
9.25700000005051
 20
19.8714999999719
 30
0.0
 11
10.1285000000505
 21
19.8714999999719
 31
0.0
  0
ARC
  8
3
  6
CONTINUOUS
 62
3
 10
14.0000000000281
 20
18.0000000000059
 30
0.0
 40
0.128500000000001
 50
5.14409555850247E-9
 51
90.0000000051442
  0
ARC
  8
3
  6
CONTINUOUS
 62
3
 10
14.0000000000281
 20
18.0000000000059
 30
0.0
 40
0.128500000000001
 50
90.0000000051457
 51
180.000000005146
  0
ARC
  8
3
  6
CONTINUOUS
 62
3
 10
14.0000000000281
 20
17.0000000000059
 30
0.0
 40
0.128500000000002
 50
5.14447722506425E-9
 51
90.0000000051446
  0
ARC
  8
3
  6
CONTINUOUS
 62
3
 10
14.0000000000281
 20
17.0000000000059
 30
0.0
 40
0.128500000000002
 50
90.0000000051453
 51
180.000000005145
  0
ARC
  8
3
  6
CONTINUOUS
 62
3
 10
13.0000000000281
 20
17.0000000000059
 30
0.0
 40
0.128500000000001
 50
5.14407011406502E-9
 51
90.0000000051442
  0
ARC
  8
3
  6
CONTINUOUS
 62
3
 10
13.0000000000281
 20
17.0000000000059
 30
0.0
 40
0.128500000000002
 50
90.0000000051453
 51
180.000000005145
  0
ARC
  8
2
  6
CONTINUOUS
 62
2
 10
12.2499999999776
 20
16.75
 30
0.0
 40
0.249999999977551
 50
180.000000001286
 51
270.000000011575
  0
LINE
  8
2
  6
CONTINUOUS
 62
2
 10
12.0000000000281
 20
20.7499999999944
 30
0.0
 11
12.0000000000281
 21
16.7499999999944
 31
0.0
  0
ARC
  8
2
  6
CONTINUOUS
 62
2
 10
12.2500000000112
 20
20.7500000000224
 30
0.0
 40
0.249999999977552
 50
90.0000000064309
 51
180.000000006431
  0
LINE
  8
2
  6
CONTINUOUS
 62
2
 10
14.7500000000281
 20
20.9999999999944
 30
0.0
 11
12.2500000000281
 21
20.9999999999944
 31
0.0
  0
ARC
  8
2
  6
CONTINUOUS
 62
2
 10
14.7500000000561
 20
20.7500000000112
 30
0.0
 40
0.249999999977549
 50
6.4310688437005E-9
 51
90.0000000167209
  0
LINE
  8
2
  6
CONTINUOUS
 62
2
 10
15.0000000000281
 20
16.7499999999944
 30
0.0
 11
15.0000000000281
 21
20.7499999999944
 31
0.0
  0
ARC
  8
2
  6
CONTINUOUS
 62
2
 10
14.7500000000225
 20
16.7499999999888
 30
0.0
 40
0.25
 50
270.000000001285
 51
1.15756287631865E-8
  0
ARC
  8
3
  6
CONTINUOUS
 62
3
 10
13.5000000000281
 20
19.4999999999719
 30
0.0
 40
0.125
 50
1.02896032832835E-8
 51
180
  0
ARC
  8
3
  6
CONTINUOUS
 62
3
 10
13.0000000000281
 20
17.9999999999944
 30
0.0
 40
0.1285
 50
180.000000005144
 51
360
  0
LINE
  8
9
  6
CONTINUOUS
 62
9
 10
13.0200000000281
 20
16.4999999999944
 30
0.0
 11
13.0942518750319
 21
16.3713919799394
 31
0.0
  0
LINE
  8
9
  6
CONTINUOUS
 62
9
 10
13.0200000000281
 20
16.4999999999944
 30
0.0
 11
12.9951250000306
 21
16.4569152361546
 31
0.0
  0
LINE
  8
9
  6
CONTINUOUS
 62
9
 10
13.037569764085
 20
16.8771148388532
 30
0.0
 11
12.9587755446447
 21
16.9505916371574
 31
0.0
  0
LINE
  8
9
  6
CONTINUOUS
 62
9
 10
13.037569764085
 20
16.8771148388532
 30
0.0
 11
13.0487610790291
 21
16.9255897495784
 31
0.0
  0
LINE
  8
9
  6
CONTINUOUS
 62
9
 10
13.894738962337
 20
16.9262954279232
 30
0.0
 11
13.9402707972951
 21
17.0239387631366
 31
0.0
  0
LINE
  8
9
  6
CONTINUOUS
 62
9
 10
13.894738962337
 20
16.9262954279232
 30
0.0
 11
13.9442996485662
 21
16.9306314261346
 31
0.0
  0
LINE
  8
9
  6
CONTINUOUS
 62
9
 10
14.037569764085
 20
17.8771148388532
 30
0.0
 11
13.9587755446447
 21
17.9505916371574
 31
0.0
  0
LINE
  8
9
  6
CONTINUOUS
 62
9
 10
14.037569764085
 20
17.8771148388532
 30
0.0
 11
14.0487610790291
 21
17.9255897495784
 31
0.0
  0
LINE
  8
9
  6
CONTINUOUS
 62
9
 10
13.103958683793
 20
18.0755304049308
 30
0.0
 11
13.060140945259
 21
17.977114152768
 31
0.0
  0
LINE
  8
9
  6
CONTINUOUS
 62
9
 10
13.103958683793
 20
18.0755304049308
 30
0.0
 11
13.0544812194999
 21
18.0703301138694
 31
0.0
  0
LINE
  8
9
  6
CONTINUOUS
 62
9
 10
13.4265268435042
 20
19.3988728756883
 30
0.0
 11
13.4375760246834
 21
19.5039988126414
 31
0.0
  0
LINE
  8
9
  6
CONTINUOUS
 62
9
 10
13.4265268435042
 20
19.3988728756883
 30
0.0
 11
13.4719757300154
 21
19.4191080236959
 31
0.0
  0
LINE
  8
0
  6
CONTINUOUS
 62
0
 10
13.4375760246834
 20
19.5039988126414
 30
0.0
 11
12
 21
16.3713919799394
 31
0.0
  0
LINE
  8
0
  6
CONTINUOUS
 62
0
 10
13.060140945259
 20
17.977114152768
 30
0.0
 11
13.4719757300154
 21
19.4191080236959
 31
0.0
  0
LINE
  8
0
  6
CONTINUOUS
 62
0
 10
13.9587755446447
 20
17.9505916371574
 30
0.0
 11
13.0544812194999
 21
18.0703301138694
 31
0.0
  0
LINE
  8
0
  6
CONTINUOUS
 62
0
 10
13.9402707972951
 20
17.0239387631366
 30
0.0
 11
14.0487610790291
 21
17.9255897495784
 31
0.0
  0
LINE
  8
0
  6
CONTINUOUS
 62
0
 10
12.9587755446447
 20
16.9505916371574
 30
0.0
 11
13.9442996485662
 21
16.9306314261346
 31
0.0
  0
LINE
  8
0
  6
CONTINUOUS
 62
0
 10
13.0942518750319
 20
16.3713919799394
 30
0.0
 11
13.0487610790291
 21
16.9255897495784
 31
0.0
  0
LINE
  8
2
  6
CONTINUOUS
 62
2
 10
13.0200000000281
 20
16.4999999999944
 30
0.0
 11
14.7500000000281
 21
16.4999999999944
 31
0.0
  0
LINE
  8
2
  6
CONTINUOUS
 62
2
 10
12.2500000000281
 20
16.4999999999944
 30
0.0
 11
13.0200000000281
 21
16.4999999999944
 31
0.0
  0
ARC
  8
3
  6
CONTINUOUS
 62
3
 10
13.0000000000281
 20
16.9999999999944
 30
0.0
 40
0.128499999999999
 50
287.000000000027
 51
1.02897368665801E-8
  0
ARC
  8
3
  6
CONTINUOUS
 62
3
 10
13.0000000000195
 20
16.9999999999828
 30
0.0
 40
0.128499999991462
 50
179.999999994854
 51
287.000000005172
  0
ARC
  8
3
  6
CONTINUOUS
 62
3
 10
14.0000000000281
 20
16.9999999999944
 30
0.0
 40
0.128500000000001
 50
215.000000000027
 51
1.02899595054078E-8
  0
ARC
  8
3
  6
CONTINUOUS
 62
3
 10
13.9999999999915
 20
16.9999999999828
 30
0.0
 40
0.128499999963404
 50
179.999999994856
 51
215.000000005174
  0
ARC
  8
3
  6
CONTINUOUS
 62
3
 10
14.0000000000281
 20
17.9999999999944
 30
0.0
 40
0.1285
 50
287.000000000028
 51
1.02898704498768E-8
  0
ARC
  8
3
  6
CONTINUOUS
 62
3
 10
14.0000000000195
 20
17.9999999999828
 30
0.0
 40
0.128499999991462
 50
179.999999994854
 51
287.000000005172
  0
ARC
  8
3
  6
CONTINUOUS
 62
3
 10
13.0000000000243
 20
18.0000000000059
 30
0.0
 40
0.128499999996251
 50
36.0000000144057
 51
180.00000001029
  0
ARC
  8
3
  6
CONTINUOUS
 62
3
 10
13.0000000000636
 20
18.0000000000059
 30
0.0
 40
0.128499999964487
 50
5.14526918317993E-9
 51
36.000000024696
  0
ARC
  8
3
  6
CONTINUOUS
 62
3
 10
13.5000000000338
 20
19.4999999999832
 30
0.0
 40
0.12499999999428
 50
234.000000002057
 51
5.14429275289272E-9
  0
ARC
  8
3
  6
CONTINUOUS
 62
3
 10
13.500000000006
 20
19.4999999999832
 30
0.0
 40
0.124999999977969
 50
180.000000005145
 51
234.000000012347
  0
ARC
  8
3
  6
CONTINUOUS
 62
3
 10
17.5000000000281
 20
18.0000000000059
 30
0.0
 40
0.128500000000001
 50
5.14409555850247E-9
 51
90.0000000051442
  0
ARC
  8
3
  6
CONTINUOUS
 62
3
 10
17.5000000000281
 20
18.0000000000059
 30
0.0
 40
0.128500000000001
 50
90.0000000051457
 51
180.000000005146
  0
ARC
  8
3
  6
CONTINUOUS
 62
3
 10
17.5000000000281
 20
17.0000000000059
 30
0.0
 40
0.128500000000002
 50
5.14485889162602E-9
 51
90.000000005145
  0
ARC
  8
3
  6
CONTINUOUS
 62
3
 10
17.5000000000281
 20
17.0000000000059
 30
0.0
 40
0.128500000000002
 50
90.0000000051449
 51
180.000000005145
  0
ARC
  8
3
  6
CONTINUOUS
 62
3
 10
16.5000000000281
 20
17.0000000000059
 30
0.0
 40
0.128500000000001
 50
5.14407011406502E-9
 51
90.0000000051442
  0
ARC
  8
3
  6
CONTINUOUS
 62
3
 10
16.5000000000281
 20
17.0000000000059
 30
0.0
 40
0.128500000000002
 50
90.0000000051449
 51
180.000000005145
  0
ARC
  8
2
  6
CONTINUOUS
 62
2
 10
15.7499999999776
 20
16.75
 30
0.0
 40
0.249999999977551
 50
180.000000001286
 51
270.000000011575
  0
LINE
  8
2
  6
CONTINUOUS
 62
2
 10
15.5000000000281
 20
20.7499999999944
 30
0.0
 11
15.5000000000281
 21
16.7499999999944
 31
0.0
  0
ARC
  8
2
  6
CONTINUOUS
 62
2
 10
15.7500000000112
 20
20.7500000000224
 30
0.0
 40
0.249999999977552
 50
90.0000000064309
 51
180.000000006431
  0
LINE
  8
2
  6
CONTINUOUS
 62
2
 10
18.2500000000281
 20
20.9999999999944
 30
0.0
 11
15.7500000000281
 21
20.9999999999944
 31
0.0
  0
ARC
  8
2
  6
CONTINUOUS
 62
2
 10
18.2500000000561
 20
20.7500000000112
 30
0.0
 40
0.249999999977549
 50
6.4310688437005E-9
 51
90.0000000167209
  0
LINE
  8
2
  6
CONTINUOUS
 62
2
 10
18.5000000000281
 20
16.7499999999944
 30
0.0
 11
18.5000000000281
 21
20.7499999999944
 31
0.0
  0
ARC
  8
2
  6
CONTINUOUS
 62
2
 10
18.2500000000225
 20
16.7499999999888
 30
0.0
 40
0.25
 50
270.000000001285
 51
1.15756287631865E-8
  0
ARC
  8
3
  6
CONTINUOUS
 62
3
 10
17.0000000000281
 20
19.4999999999719
 30
0.0
 40
0.125
 50
1.02896032832835E-8
 51
180
  0
ARC
  8
3
  6
CONTINUOUS
 62
3
 10
16.5000000000281
 20
17.9999999999944
 30
0.0
 40
0.128500000000001
 50
180.000000005144
 51
360
  0
LINE
  8
9
  6
CONTINUOUS
 62
9
 10
16.5200000000281
 20
16.4999999999944
 30
0.0
 11
16.5942518750319
 21
16.3713919799394
 31
0.0
  0
LINE
  8
9
  6
CONTINUOUS
 62
9
 10
16.5200000000281
 20
16.4999999999944
 30
0.0
 11
16.4951250000306
 21
16.4569152361546
 31
0.0
  0
LINE
  8
9
  6
CONTINUOUS
 62
9
 10
16.537569764085
 20
16.8771148388532
 30
0.0
 11
16.4587755446447
 21
16.9505916371574
 31
0.0
  0
LINE
  8
9
  6
CONTINUOUS
 62
9
 10
16.537569764085
 20
16.8771148388532
 30
0.0
 11
16.5487610790291
 21
16.9255897495784
 31
0.0
  0
LINE
  8
9
  6
CONTINUOUS
 62
9
 10
17.394738962337
 20
16.9262954279232
 30
0.0
 11
17.4402707972951
 21
17.0239387631366
 31
0.0
  0
LINE
  8
9
  6
CONTINUOUS
 62
9
 10
17.394738962337
 20
16.9262954279232
 30
0.0
 11
17.4442996485662
 21
16.9306314261346
 31
0.0
  0
LINE
  8
9
  6
CONTINUOUS
 62
9
 10
17.537569764085
 20
17.8771148388532
 30
0.0
 11
17.4587755446447
 21
17.9505916371574
 31
0.0
  0
LINE
  8
9
  6
CONTINUOUS
 62
9
 10
17.537569764085
 20
17.8771148388532
 30
0.0
 11
17.5487610790291
 21
17.9255897495784
 31
0.0
  0
LINE
  8
9
  6
CONTINUOUS
 62
9
 10
16.603958683793
 20
18.0755304049308
 30
0.0
 11
16.560140945259
 21
17.977114152768
 31
0.0
  0
LINE
  8
9
  6
CONTINUOUS
 62
9
 10
16.603958683793
 20
18.0755304049308
 30
0.0
 11
16.5544812194999
 21
18.0703301138694
 31
0.0
  0
LINE
  8
9
  6
CONTINUOUS
 62
9
 10
16.9265268435042
 20
19.3988728756883
 30
0.0
 11
16.9375760246834
 21
19.5039988126414
 31
0.0
  0
LINE
  8
9
  6
CONTINUOUS
 62
9
 10
16.9265268435042
 20
19.3988728756883
 30
0.0
 11
16.9719757300155
 21
19.4191080236959
 31
0.0
  0
LINE
  8
0
  6
CONTINUOUS
 62
0
 10
16.9375760246834
 20
19.5039988126414
 30
0.0
 11
15.5
 21
16.3713919799394
 31
0.0
  0
LINE
  8
0
  6
CONTINUOUS
 62
0
 10
16.560140945259
 20
17.977114152768
 30
0.0
 11
16.9719757300155
 21
19.4191080236959
 31
0.0
  0
LINE
  8
0
  6
CONTINUOUS
 62
0
 10
17.4587755446447
 20
17.9505916371574
 30
0.0
 11
16.5544812194999
 21
18.0703301138694
 31
0.0
  0
LINE
  8
0
  6
CONTINUOUS
 62
0
 10
17.4402707972951
 20
17.0239387631366
 30
0.0
 11
17.5487610790291
 21
17.9255897495784
 31
0.0
  0
LINE
  8
0
  6
CONTINUOUS
 62
0
 10
16.4587755446447
 20
16.9505916371574
 30
0.0
 11
17.4442996485662
 21
16.9306314261346
 31
0.0
  0
LINE
  8
0
  6
CONTINUOUS
 62
0
 10
16.5942518750319
 20
16.3713919799394
 30
0.0
 11
16.5487610790291
 21
16.9255897495784
 31
0.0
  0
LINE
  8
2
  6
CONTINUOUS
 62
2
 10
16.5200000000281
 20
16.4999999999944
 30
0.0
 11
18.2500000000281
 21
16.4999999999944
 31
0.0
  0
LINE
  8
2
  6
CONTINUOUS
 62
2
 10
15.7500000000281
 20
16.4999999999944
 30
0.0
 11
16.5200000000281
 21
16.4999999999944
 31
0.0
  0
ARC
  8
3
  6
CONTINUOUS
 62
3
 10
16.5000000000281
 20
16.9999999999944
 30
0.0
 40
0.128499999999998
 50
287.000000000028
 51
1.0290277560876E-8
  0
ARC
  8
3
  6
CONTINUOUS
 62
3
 10
16.5000000000195
 20
16.9999999999828
 30
0.0
 40
0.128499999991462
 50
179.999999994854
 51
287.000000005172
  0
ARC
  8
3
  6
CONTINUOUS
 62
3
 10
17.5000000000281
 20
16.9999999999944
 30
0.0
 40
0.128500000000002
 50
215.000000000027
 51
1.02898322832206E-8
  0
ARC
  8
3
  6
CONTINUOUS
 62
3
 10
17.4999999999915
 20
16.9999999999828
 30
0.0
 40
0.128499999963404
 50
179.999999994856
 51
215.000000005174
  0
ARC
  8
3
  6
CONTINUOUS
 62
3
 10
17.5000000000281
 20
17.9999999999944
 30
0.0
 40
0.1285
 50
287.000000000028
 51
1.02898704498768E-8
  0
ARC
  8
3
  6
CONTINUOUS
 62
3
 10
17.5000000000195
 20
17.9999999999828
 30
0.0
 40
0.128499999991462
 50
179.999999994854
 51
287.000000005172
  0
ARC
  8
3
  6
CONTINUOUS
 62
3
 10
16.5000000000243
 20
18.0000000000059
 30
0.0
 40
0.128499999996252
 50
36.0000000144056
 51
180.00000001029
  0
ARC
  8
3
  6
CONTINUOUS
 62
3
 10
16.5000000000636
 20
18.0000000000059
 30
0.0
 40
0.128499999964486
 50
5.14406057240097E-9
 51
36.0000000246948
  0
ARC
  8
3
  6
CONTINUOUS
 62
3
 10
17.0000000000338
 20
19.4999999999832
 30
0.0
 40
0.12499999999428
 50
234.000000002057
 51
5.14429275289272E-9
  0
ARC
  8
3
  6
CONTINUOUS
 62
3
 10
17.000000000006
 20
19.4999999999832
 30
0.0
 40
0.12499999997797
 50
180.000000005146
 51
234.000000012348
  0
ARC
  8
3
  6
CONTINUOUS
 62
3
 10
2.50000000005051
 20
14.9999999999719
 30
0.0
 40
0.1285
 50
180.000000005144
 51
360
  0
ARC
  8
3
  6
CONTINUOUS
 62
3
 10
2.50000000005051
 20
15.9999999999719
 30
0.0
 40
0.1285
 50
1.02894251722213E-8
 51
180.000000005145
  0
ARC
  8
3
  6
CONTINUOUS
 62
3
 10
2.50000000005051
 20
16.9999999999719
 30
0.0
 40
0.1285
 50
180.000000005144
 51
360
  0
LINE
  8
2
  6
CONTINUOUS
 62
2
 10
1.00000000005051
 20
17.2499999999719
 30
0.0
 11
1.00000000005051
 21
14.7499999999719
 31
0.0
  0
ARC
  8
2
  6
CONTINUOUS
 62
2
 10
1.25000000003367
 20
17.25
 30
0.0
 40
0.249999999977552
 50
90.0000000064308
 51
180.000000006431
  0
LINE
  8
2
  6
CONTINUOUS
 62
2
 10
2.75000000005051
 20
17.4999999999719
 30
0.0
 11
1.25000000005051
 21
17.4999999999719
 31
0.0
  0
ARC
  8
2
  6
CONTINUOUS
 62
2
 10
2.75000000007857
 20
17.2499999999888
 30
0.0
 40
0.249999999977552
 50
6.43081439932599E-9
 51
90.0000000167208
  0
LINE
  8
2
  6
CONTINUOUS
 62
2
 10
3.00000000005051
 20
14.7499999999719
 30
0.0
 11
3.00000000005051
 21
17.2499999999719
 31
0.0
  0
ARC
  8
2
  6
CONTINUOUS
 62
2
 10
2.7500000000449
 20
14.7499999999663
 30
0.0
 40
0.25
 50
270.000000001285
 51
1.15760167908576E-8
  0
LINE
  8
2
  6
CONTINUOUS
 62
2
 10
1.25000000005051
 20
14.4999999999719
 30
0.0
 11
2.75000000005051
 21
14.4999999999719
 31
0.0
  0
ARC
  8
3
  6
CONTINUOUS
 62
3
 10
1.50000000005051
 20
16.9999999999835
 30
0.0
 40
0.128499999999999
 50
5.14508789156309E-9
 51
90.0000000051452
  0
ARC
  8
3
  6
CONTINUOUS
 62
3
 10
1.50000000005051
 20
16.9999999999835
 30
0.0
 40
0.1285
 50
90.0000000051446
 51
180.000000005145
  0
ARC
  8
3
  6
CONTINUOUS
 62
3
 10
1.50000000005051
 20
15.9999999999719
 30
0.0
 40
0.1285
 50
180.000000005144
 51
360
  0
ARC
  8
3
  6
CONTINUOUS
 62
3
 10
1.50000000005051
 20
14.9999999999604
 30
0.0
 40
0.128499999999999
 50
180.000000005145
 51
270.000000005145
  0
ARC
  8
3
  6
CONTINUOUS
 62
3
 10
1.50000000005051
 20
14.9999999999604
 30
0.0
 40
0.1285
 50
270.000000005144
 51
5.14463625279832E-9
  0
LINE
  8
9
  6
CONTINUOUS
 62
9
 10
1.00307791487805
 20
14.7108913837122
 30
0.0
 11
0.887668825313429
 21
14.6174349456786
 31
0.0
  0
LINE
  8
9
  6
CONTINUOUS
 62
9
 10
1.00307791487805
 20
14.7108913837122
 30
0.0
 11
0.956632288657549
 21
14.7287201891962
 31
0.0
  0
LINE
  8
9
  6
CONTINUOUS
 62
9
 10
1.53970868380574
 20
15.122210762323
 30
0.0
 11
1.56210701028571
 21
15.0168349213019
 31
0.0
  0
LINE
  8
9
  6
CONTINUOUS
 62
9
 10
1.53970868380574
 20
15.122210762323
 30
0.0
 11
1.50273722874814
 21
15.0889215146457
 31
0.0
  0
LINE
  8
9
  6
CONTINUOUS
 62
9
 10
2.39604131626519
 20
15.0755304048803
 30
0.0
 11
2.50318116005542
 21
15.0642695535534
 31
0.0
  0
LINE
  8
9
  6
CONTINUOUS
 62
9
 10
2.39604131626519
 20
15.0755304048803
 30
0.0
 11
2.41627646426845
 21
15.0300815183672
 31
0.0
  0
LINE
  8
9
  6
CONTINUOUS
 62
9
 10
2.49775736582915
 20
15.8715195711442
 30
0.0
 11
2.44492887351494
 21
15.9668246940709
 31
0.0
  0
LINE
  8
9
  6
CONTINUOUS
 62
9
 10
2.49775736582915
 20
15.8715195711442
 30
0.0
 11
2.52338051004569
 21
15.9141636443603
 31
0.0
  0
LINE
  8
9
  6
CONTINUOUS
 62
9
 10
1.60395868381548
 20
16.0755304049083
 30
0.0
 11
1.56014094528147
 21
15.9771141527456
 31
0.0
  0
LINE
  8
9
  6
CONTINUOUS
 62
9
 10
1.60395868381548
 20
16.0755304049083
 30
0.0
 11
1.55448121952236
 21
16.0703301138469
 31
0.0
  0
LINE
  8
9
  6
CONTINUOUS
 62
9
 10
1.53756976410744
 20
16.8771148388307
 30
0.0
 11
1.45877554466711
 21
16.9505916371349
 31
0.0
  0
LINE
  8
9
  6
CONTINUOUS
 62
9
 10
1.53756976410744
 20
16.8771148388307
 30
0.0
 11
1.54876107905159
 21
16.925589749556
 31
0.0
  0
LINE
  8
9
  6
CONTINUOUS
 62
9
 10
2.39604131626519
 20
17.0755304048803
 30
0.0
 11
2.50318116005542
 21
17.0642695535534
 31
0.0
  0
LINE
  8
9
  6
CONTINUOUS
 62
9
 10
2.39604131626519
 20
17.0755304048803
 30
0.0
 11
2.41627646426845
 21
17.0300815183672
 31
0.0
  0
LINE
  8
0
  6
CONTINUOUS
 62
0
 10
2.50318116005542
 20
17.0642695535534
 30
0.0
 11
0.887668825313429
 21
14.4999999999719
 31
0.0
  0
LINE
  8
0
  6
CONTINUOUS
 62
0
 10
1.45877554466711
 20
16.9505916371349
 30
0.0
 11
2.41627646426845
 21
17.0300815183672
 31
0.0
  0
LINE
  8
0
  6
CONTINUOUS
 62
0
 10
1.56014094528147
 20
15.9771141527456
 30
0.0
 11
1.54876107905159
 21
16.925589749556
 31
0.0
  0
LINE
  8
0
  6
CONTINUOUS
 62
0
 10
2.44492887351494
 20
15.9668246940709
 30
0.0
 11
1.55448121952236
 21
16.0703301138469
 31
0.0
  0
LINE
  8
0
  6
CONTINUOUS
 62
0
 10
2.50318116005542
 20
15.0642695535534
 30
0.0
 11
2.52338051004569
 21
15.9141636443603
 31
0.0
  0
LINE
  8
0
  6
CONTINUOUS
 62
0
 10
1.56210701028571
 20
15.0168349213019
 30
0.0
 11
2.41627646426845
 21
15.0300815183672
 31
0.0
  0
LINE
  8
0
  6
CONTINUOUS
 62
0
 10
0.887668825313429
 20
14.6174349456786
 30
0.0
 11
1.50273722874814
 21
15.0889215146457
 31
0.0
  0
ARC
  8
2
  6
CONTINUOUS
 62
2
 10
1.25
 20
14.7499999999737
 30
0.0
 40
0.249999999973715
 50
189.000000001286
 51
270.000000011576
  0
ARC
  8
2
  6
CONTINUOUS
 62
2
 10
1.24999999973721
 20
14.7499999999775
 30
0.0
 40
0.249999999714767
 50
180.000000001286
 51
189.000000011576
  0
ARC
  8
3
  6
CONTINUOUS
 62
3
 10
1.50000000004213
 20
14.9999999999835
 30
0.0
 40
0.128499999991616
 50
72.0000000154341
 51
180.000000015435
  0
ARC
  8
3
  6
CONTINUOUS
 62
3
 10
1.50000000005051
 20
14.9999999999719
 30
0.0
 40
0.1285
 50
360
 51
72.0000000205796
  0
ARC
  8
3
  6
CONTINUOUS
 62
3
 10
2.500000000015
 20
14.9999999999835
 30
0.0
 40
0.128499999964487
 50
144.000000011319
 51
180.00000001029
  0
ARC
  8
3
  6
CONTINUOUS
 62
3
 10
2.50000000005426
 20
14.9999999999835
 30
0.0
 40
0.128499999996251
 50
5.14466169723577E-9
 51
144.000000021609
  0
ARC
  8
3
  6
CONTINUOUS
 62
3
 10
2.50000000006185
 20
15.9999999999604
 30
0.0
 40
0.128499999988661
 50
268.999999997455
 51
5.1448461694073E-9
  0
ARC
  8
3
  6
CONTINUOUS
 62
3
 10
2.50000000003877
 20
15.9999999999604
 30
0.0
 40
0.128499999988258
 50
180
 51
269.000000007746
  0
ARC
  8
3
  6
CONTINUOUS
 62
3
 10
1.50000000004676
 20
15.9999999999835
 30
0.0
 40
0.128499999996251
 50
36.0000000144048
 51
180.000000010289
  0
ARC
  8
3
  6
CONTINUOUS
 62
3
 10
1.50000000008602
 20
15.9999999999835
 30
0.0
 40
0.12849999996449
 50
5.14459808614214E-9
 51
36.0000000246953
  0
ARC
  8
3
  6
CONTINUOUS
 62
3
 10
1.50000000005051
 20
16.9999999999719
 30
0.0
 40
0.128499999999999
 50
287.000000000027
 51
1.0289628727721E-8
  0
ARC
  8
3
  6
CONTINUOUS
 62
3
 10
1.50000000004197
 20
16.9999999999604
 30
0.0
 40
0.128499999991461
 50
179.999999994855
 51
287.000000005173
  0
ARC
  8
3
  6
CONTINUOUS
 62
3
 10
2.500000000015
 20
16.9999999999835
 30
0.0
 40
0.12849999996449
 50
144.000000011319
 51
180.00000001029
  0
ARC
  8
3
  6
CONTINUOUS
 62
3
 10
2.50000000005426
 20
16.9999999999835
 30
0.0
 40
0.128499999996251
 50
5.14542503035932E-9
 51
144.000000021609
  0
ARC
  8
3
  6
CONTINUOUS
 62
3
 10
22.5000000000505
 20
14.9999999999719
 30
0.0
 40
0.128499999999999
 50
180.000000005144
 51
360
  0
ARC
  8
3
  6
CONTINUOUS
 62
3
 10
22.5000000000505
 20
15.9999999999719
 30
0.0
 40
0.128499999999999
 50
1.02894251722213E-8
 51
180.000000005145
  0
ARC
  8
3
  6
CONTINUOUS
 62
3
 10
22.5000000000505
 20
16.9999999999719
 30
0.0
 40
0.128499999999999
 50
180.000000005144
 51
360
  0
LINE
  8
2
  6
CONTINUOUS
 62
2
 10
21.0000000000505
 20
17.2499999999719
 30
0.0
 11
21.0000000000505
 21
14.7499999999719
 31
0.0
  0
ARC
  8
2
  6
CONTINUOUS
 62
2
 10
21.2500000000337
 20
17.25
 30
0.0
 40
0.249999999977552
 50
90.0000000064308
 51
180.000000006431
  0
LINE
  8
2
  6
CONTINUOUS
 62
2
 10
22.7500000000505
 20
17.4999999999719
 30
0.0
 11
21.2500000000505
 21
17.4999999999719
 31
0.0
  0
ARC
  8
2
  6
CONTINUOUS
 62
2
 10
22.7500000000786
 20
17.2499999999888
 30
0.0
 40
0.249999999977551
 50
6.43061084382637E-9
 51
90.0000000167206
  0
LINE
  8
2
  6
CONTINUOUS
 62
2
 10
23.0000000000505
 20
14.7499999999719
 30
0.0
 11
23.0000000000505
 21
17.2499999999719
 31
0.0
  0
ARC
  8
2
  6
CONTINUOUS
 62
2
 10
22.7500000000449
 20
14.7499999999663
 30
0.0
 40
0.250000000000001
 50
270.000000001285
 51
1.15758641242329E-8
  0
LINE
  8
2
  6
CONTINUOUS
 62
2
 10
21.2500000000505
 20
14.4999999999719
 30
0.0
 11
22.7500000000505
 21
14.4999999999719
 31
0.0
  0
ARC
  8
3
  6
CONTINUOUS
 62
3
 10
21.5000000000505
 20
16.9999999999835
 30
0.0
 40
0.128499999999999
 50
5.14488433606347E-9
 51
90.000000005145
  0
ARC
  8
3
  6
CONTINUOUS
 62
3
 10
21.5000000000505
 20
16.9999999999835
 30
0.0
 40
0.128499999999999
 50
90.0000000051449
 51
180.000000005145
  0
ARC
  8
3
  6
CONTINUOUS
 62
3
 10
21.5000000000505
 20
15.9999999999719
 30
0.0
 40
0.128499999999999
 50
180.000000005144
 51
360
  0
ARC
  8
3
  6
CONTINUOUS
 62
3
 10
21.5000000000505
 20
14.9999999999604
 30
0.0
 40
0.128499999999999
 50
180.000000005145
 51
270.000000005145
  0
ARC
  8
3
  6
CONTINUOUS
 62
3
 10
21.5000000000505
 20
14.9999999999604
 30
0.0
 40
0.128499999999999
 50
270.000000005145
 51
5.14492886382901E-9
  0
LINE
  8
9
  6
CONTINUOUS
 62
9
 10
21.0030779148781
 20
14.7108913837122
 30
0.0
 11
20.8876688253134
 21
14.6174349456786
 31
0.0
  0
LINE
  8
9
  6
CONTINUOUS
 62
9
 10
21.0030779148781
 20
14.7108913837122
 30
0.0
 11
20.9566322886575
 21
14.7287201891962
 31
0.0
  0
LINE
  8
9
  6
CONTINUOUS
 62
9
 10
21.5397086838057
 20
15.122210762323
 30
0.0
 11
21.5621070102857
 21
15.0168349213019
 31
0.0
  0
LINE
  8
9
  6
CONTINUOUS
 62
9
 10
21.5397086838057
 20
15.122210762323
 30
0.0
 11
21.5027372287481
 21
15.0889215146457
 31
0.0
  0
LINE
  8
9
  6
CONTINUOUS
 62
9
 10
22.3960413162652
 20
15.0755304048803
 30
0.0
 11
22.5031811600554
 21
15.0642695535534
 31
0.0
  0
LINE
  8
9
  6
CONTINUOUS
 62
9
 10
22.3960413162652
 20
15.0755304048803
 30
0.0
 11
22.4162764642684
 21
15.0300815183672
 31
0.0
  0
LINE
  8
9
  6
CONTINUOUS
 62
9
 10
22.4977573658291
 20
15.8715195711442
 30
0.0
 11
22.4449288735149
 21
15.9668246940709
 31
0.0
  0
LINE
  8
9
  6
CONTINUOUS
 62
9
 10
22.4977573658291
 20
15.8715195711442
 30
0.0
 11
22.5233805100457
 21
15.9141636443603
 31
0.0
  0
LINE
  8
9
  6
CONTINUOUS
 62
9
 10
21.6039586838155
 20
16.0755304049083
 30
0.0
 11
21.5601409452815
 21
15.9771141527456
 31
0.0
  0
LINE
  8
9
  6
CONTINUOUS
 62
9
 10
21.6039586838155
 20
16.0755304049083
 30
0.0
 11
21.5544812195224
 21
16.0703301138469
 31
0.0
  0
LINE
  8
9
  6
CONTINUOUS
 62
9
 10
21.5375697641074
 20
16.8771148388307
 30
0.0
 11
21.4587755446671
 21
16.9505916371349
 31
0.0
  0
LINE
  8
9
  6
CONTINUOUS
 62
9
 10
21.5375697641074
 20
16.8771148388307
 30
0.0
 11
21.5487610790516
 21
16.925589749556
 31
0.0
  0
LINE
  8
9
  6
CONTINUOUS
 62
9
 10
22.3960413162652
 20
17.0755304048803
 30
0.0
 11
22.5031811600554
 21
17.0642695535534
 31
0.0
  0
LINE
  8
9
  6
CONTINUOUS
 62
9
 10
22.3960413162652
 20
17.0755304048803
 30
0.0
 11
22.4162764642684
 21
17.0300815183672
 31
0.0
  0
LINE
  8
0
  6
CONTINUOUS
 62
0
 10
22.5031811600554
 20
17.0642695535534
 30
0.0
 11
20.8876688253134
 21
14.4999999999719
 31
0.0
  0
LINE
  8
0
  6
CONTINUOUS
 62
0
 10
21.4587755446671
 20
16.9505916371349
 30
0.0
 11
22.4162764642684
 21
17.0300815183672
 31
0.0
  0
LINE
  8
0
  6
CONTINUOUS
 62
0
 10
21.5601409452815
 20
15.9771141527456
 30
0.0
 11
21.5487610790516
 21
16.925589749556
 31
0.0
  0
LINE
  8
0
  6
CONTINUOUS
 62
0
 10
22.4449288735149
 20
15.9668246940709
 30
0.0
 11
21.5544812195224
 21
16.0703301138469
 31
0.0
  0
LINE
  8
0
  6
CONTINUOUS
 62
0
 10
22.5031811600554
 20
15.0642695535534
 30
0.0
 11
22.5233805100457
 21
15.9141636443603
 31
0.0
  0
LINE
  8
0
  6
CONTINUOUS
 62
0
 10
21.5621070102857
 20
15.0168349213019
 30
0.0
 11
22.4162764642684
 21
15.0300815183672
 31
0.0
  0
LINE
  8
0
  6
CONTINUOUS
 62
0
 10
20.8876688253134
 20
14.6174349456786
 30
0.0
 11
21.5027372287481
 21
15.0889215146457
 31
0.0
  0
ARC
  8
2
  6
CONTINUOUS
 62
2
 10
21.25
 20
14.7499999999737
 30
0.0
 40
0.249999999973714
 50
189.000000001286
 51
270.000000011576
  0
ARC
  8
2
  6
CONTINUOUS
 62
2
 10
21.2499999997372
 20
14.7499999999776
 30
0.0
 40
0.249999999714767
 50
180.000000001286
 51
189.000000011576
  0
ARC
  8
3
  6
CONTINUOUS
 62
3
 10
21.5000000000421
 20
14.9999999999835
 30
0.0
 40
0.128499999991615
 50
72.0000000154344
 51
180.000000015435
  0
ARC
  8
3
  6
CONTINUOUS
 62
3
 10
21.5000000000505
 20
14.9999999999719
 30
0.0
 40
0.1285
 50
359.999999999999
 51
72.0000000205793
  0
ARC
  8
3
  6
CONTINUOUS
 62
3
 10
22.500000000015
 20
14.9999999999835
 30
0.0
 40
0.128499999964485
 50
144.000000011321
 51
180.000000010292
  0
ARC
  8
3
  6
CONTINUOUS
 62
3
 10
22.5000000000543
 20
14.9999999999835
 30
0.0
 40
0.128499999996251
 50
5.14471258611067E-9
 51
144.000000021609
  0
ARC
  8
3
  6
CONTINUOUS
 62
3
 10
22.5000000000619
 20
15.9999999999604
 30
0.0
 40
0.128499999988661
 50
268.999999997455
 51
5.14465533612641E-9
  0
ARC
  8
3
  6
CONTINUOUS
 62
3
 10
22.5000000000388
 20
15.9999999999604
 30
0.0
 40
0.128499999988258
 50
180
 51
269.000000007746
  0
ARC
  8
3
  6
CONTINUOUS
 62
3
 10
21.5000000000468
 20
15.9999999999835
 30
0.0
 40
0.128499999996252
 50
36.0000000144047
 51
180.000000010289
  0
ARC
  8
3
  6
CONTINUOUS
 62
3
 10
21.500000000086
 20
15.9999999999835
 30
0.0
 40
0.128499999964491
 50
5.14612475238924E-9
 51
36.0000000246968
  0
ARC
  8
3
  6
CONTINUOUS
 62
3
 10
21.5000000000505
 20
16.9999999999719
 30
0.0
 40
0.128499999999998
 50
287.000000000028
 51
1.02903030053134E-8
  0
ARC
  8
3
  6
CONTINUOUS
 62
3
 10
21.500000000042
 20
16.9999999999604
 30
0.0
 40
0.128499999991461
 50
179.999999994855
 51
287.000000005173
  0
ARC
  8
3
  6
CONTINUOUS
 62
3
 10
22.500000000015
 20
16.9999999999835
 30
0.0
 40
0.12849999996449
 50
144.000000011319
 51
180.00000001029
  0
ARC
  8
3
  6
CONTINUOUS
 62
3
 10
22.5000000000543
 20
16.9999999999835
 30
0.0
 40
0.128499999996251
 50
5.14547591923423E-9
 51
144.000000021609
  0
ARC
  8
3
  6
CONTINUOUS
 62
3
 10
22.5000000000002
 20
19.5000000000056
 30
0.0
 40
0.128499999999999
 50
270.000000002572
 51
89.9999999974274
  0
ARC
  8
3
  6
CONTINUOUS
 62
3
 10
21.4999999999771
 20
19.5000000000056
 30
0.0
 40
0.128499999999999
 50
90.0000000025721
 51
269.999999997427
  0
ARC
  8
3
  6
CONTINUOUS
 62
3
 10
20.5000000000002
 20
19.5000000000056
 30
0.0
 40
0.128499999999999
 50
270.000000002572
 51
89.9999999974274
  0
LINE
  8
2
  6
CONTINUOUS
 62
2
 10
20.2499999999944
 20
18.0000000000056
 30
0.0
 11
22.7499999999944
 21
18.0000000000056
 31
0.0
  0
ARC
  8
2
  6
CONTINUOUS
 62
2
 10
20.2499999999663
 20
18.2499999999888
 30
0.0
 40
0.249999999977552
 50
180.000000006431
 51
270.000000006431
  0
LINE
  8
2
  6
CONTINUOUS
 62
2
 10
19.9999999999944
 20
19.7500000000056
 30
0.0
 11
19.9999999999944
 21
18.2500000000056
 31
0.0
  0
ARC
  8
2
  6
CONTINUOUS
 62
2
 10
20.2499999999775
 20
19.7500000000337
 30
0.0
 40
0.249999999977551
 50
90.0000000064306
 51
180.000000016721
  0
LINE
  8
2
  6
CONTINUOUS
 62
2
 10
22.7499999999944
 20
20.0000000000056
 30
0.0
 11
20.2499999999944
 21
20.0000000000056
 31
0.0
  0
ARC
  8
2
  6
CONTINUOUS
 62
2
 10
22.75
 20
19.75
 30
0.0
 40
0.25
 50
1.28539573007603E-9
 51
90.0000000115757
  0
LINE
  8
2
  6
CONTINUOUS
 62
2
 10
22.9999999999944
 20
18.2500000000056
 30
0.0
 11
22.9999999999944
 21
19.7500000000056
 31
0.0
  0
ARC
  8
3
  6
CONTINUOUS
 62
3
 10
20.4999999999828
 20
18.5000000000056
 30
0.0
 40
0.128499999999999
 50
90.0000000051449
 51
180.000000005145
  0
ARC
  8
3
  6
CONTINUOUS
 62
3
 10
20.4999999999828
 20
18.5000000000056
 30
0.0
 40
0.128499999999999
 50
180.000000005145
 51
270.000000005145
  0
ARC
  8
3
  6
CONTINUOUS
 62
3
 10
21.5000000000002
 20
18.5000000000056
 30
0.0
 40
0.128499999999999
 50
270.000000002572
 51
89.9999999974274
  0
ARC
  8
3
  6
CONTINUOUS
 62
3
 10
22.5000000000059
 20
18.5000000000056
 30
0.0
 40
0.128499999999999
 50
270.000000005145
 51
5.1449479471571E-9
  0
ARC
  8
3
  6
CONTINUOUS
 62
3
 10
22.5000000000059
 20
18.5000000000056
 30
0.0
 40
0.128499999999999
 50
5.14491614161029E-9
 51
90.0000000051449
  0
LINE
  8
9
  6
CONTINUOUS
 62
9
 10
22.7891086162541
 20
18.0030779148332
 30
0.0
 11
22.8825650542877
 21
17.8876688252685
 31
0.0
  0
LINE
  8
9
  6
CONTINUOUS
 62
9
 10
22.7891086162541
 20
18.0030779148332
 30
0.0
 11
22.7712798107701
 21
17.9566322886126
 31
0.0
  0
LINE
  8
9
  6
CONTINUOUS
 62
9
 10
22.3777892376433
 20
18.5397086837608
 30
0.0
 11
22.4831650786644
 21
18.5621070102408
 31
0.0
  0
LINE
  8
9
  6
CONTINUOUS
 62
9
 10
22.3777892376433
 20
18.5397086837608
 30
0.0
 11
22.4110784853207
 21
18.5027372287032
 31
0.0
  0
LINE
  8
9
  6
CONTINUOUS
 62
9
 10
22.424469595086
 20
19.3960413162203
 30
0.0
 11
22.4357304464129
 21
19.5031811600105
 31
0.0
  0
LINE
  8
9
  6
CONTINUOUS
 62
9
 10
22.424469595086
 20
19.3960413162203
 30
0.0
 11
22.4699184815992
 21
19.4162764642235
 31
0.0
  0
LINE
  8
9
  6
CONTINUOUS
 62
9
 10
21.6284804288221
 20
19.4977573657842
 30
0.0
 11
21.5331753058955
 21
19.44492887347
 31
0.0
  0
LINE
  8
9
  6
CONTINUOUS
 62
9
 10
21.6284804288221
 20
19.4977573657842
 30
0.0
 11
21.585836355606
 21
19.5233805100008
 31
0.0
  0
LINE
  8
9
  6
CONTINUOUS
 62
9
 10
21.424469595058
 20
18.6039586837706
 30
0.0
 11
21.5228858472208
 21
18.5601409452366
 31
0.0
  0
LINE
  8
9
  6
CONTINUOUS
 62
9
 10
21.424469595058
 20
18.6039586837706
 30
0.0
 11
21.4296698861194
 21
18.5544812194775
 31
0.0
  0
LINE
  8
9
  6
CONTINUOUS
 62
9
 10
20.6228851611356
 20
18.5375697640625
 30
0.0
 11
20.5494083628314
 21
18.4587755446222
 31
0.0
  0
LINE
  8
9
  6
CONTINUOUS
 62
9
 10
20.6228851611356
 20
18.5375697640625
 30
0.0
 11
20.5744102504104
 21
18.5487610790067
 31
0.0
  0
LINE
  8
9
  6
CONTINUOUS
 62
9
 10
20.424469595086
 20
19.3960413162203
 30
0.0
 11
20.4357304464129
 21
19.5031811600105
 31
0.0
  0
LINE
  8
9
  6
CONTINUOUS
 62
9
 10
20.424469595086
 20
19.3960413162203
 30
0.0
 11
20.4699184815992
 21
19.4162764642235
 31
0.0
  0
LINE
  8
0
  6
CONTINUOUS
 62
0
 10
20.4357304464129
 20
19.5031811600105
 30
0.0
 11
22.9999999999944
 21
17.8876688252685
 31
0.0
  0
LINE
  8
0
  6
CONTINUOUS
 62
0
 10
20.5494083628314
 20
18.4587755446222
 30
0.0
 11
20.4699184815992
 21
19.4162764642235
 31
0.0
  0
LINE
  8
0
  6
CONTINUOUS
 62
0
 10
21.5228858472208
 20
18.5601409452366
 30
0.0
 11
20.5744102504104
 21
18.5487610790067
 31
0.0
  0
LINE
  8
0
  6
CONTINUOUS
 62
0
 10
21.5331753058955
 20
19.44492887347
 30
0.0
 11
21.4296698861194
 21
18.5544812194775
 31
0.0
  0
LINE
  8
0
  6
CONTINUOUS
 62
0
 10
22.4357304464129
 20
19.5031811600105
 30
0.0
 11
21.585836355606
 21
19.5233805100008
 31
0.0
  0
LINE
  8
0
  6
CONTINUOUS
 62
0
 10
22.4831650786644
 20
18.5621070102408
 30
0.0
 11
22.4699184815992
 21
19.4162764642235
 31
0.0
  0
LINE
  8
0
  6
CONTINUOUS
 62
0
 10
22.8825650542877
 20
17.8876688252685
 30
0.0
 11
22.4110784853207
 21
18.5027372287032
 31
0.0
  0
ARC
  8
2
  6
CONTINUOUS
 62
2
 10
22.7499999999926
 20
18.2499999999551
 30
0.0
 40
0.249999999973714
 50
279.000000001285
 51
1.15756860131707E-8
  0
ARC
  8
2
  6
CONTINUOUS
 62
2
 10
22.7499999999888
 20
18.2499999996923
 30
0.0
 40
0.249999999714744
 50
270.000000001286
 51
279.000000011576
  0
ARC
  8
3
  6
CONTINUOUS
 62
3
 10
22.4999999999828
 20
18.4999999999972
 30
0.0
 40
0.128499999991616
 50
162.000000015435
 51
270.000000015435
  0
ARC
  8
3
  6
CONTINUOUS
 62
3
 10
22.4999999999944
 20
18.5000000000056
 30
0.0
 40
0.128500000000002
 50
89.9999999999988
 51
162.000000020578
  0
ARC
  8
3
  6
CONTINUOUS
 62
3
 10
22.4999999999828
 20
19.4999999999701
 30
0.0
 40
0.128499999964483
 50
234.00000001132
 51
270.000000010291
  0
ARC
  8
3
  6
CONTINUOUS
 62
3
 10
22.4999999999829
 20
19.5000000000094
 30
0.0
 40
0.128499999996251
 50
90.0000000051447
 51
234.000000021609
  0
ARC
  8
3
  6
CONTINUOUS
 62
3
 10
21.5000000000059
 20
19.500000000017
 30
0.0
 40
0.128499999988662
 50
358.999999997456
 51
90.000000005145
  0
ARC
  8
3
  6
CONTINUOUS
 62
3
 10
21.5000000000059
 20
19.4999999999939
 30
0.0
 40
0.128499999988259
 50
269.999999999999
 51
359.000000007745
  0
ARC
  8
3
  6
CONTINUOUS
 62
3
 10
21.4999999999829
 20
18.5000000000019
 30
0.0
 40
0.128499999996252
 50
126.000000014405
 51
270.000000010289
  0
ARC
  8
3
  6
CONTINUOUS
 62
3
 10
21.4999999999829
 20
18.5000000000411
 30
0.0
 40
0.128499999964494
 50
90.0000000051457
 51
126.000000024696
  0
ARC
  8
3
  6
CONTINUOUS
 62
3
 10
20.4999999999944
 20
18.5000000000056
 30
0.0
 40
0.128499999999998
 50
17.0000000000282
 51
90.0000000102903
  0
ARC
  8
3
  6
CONTINUOUS
 62
3
 10
20.5000000000059
 20
18.4999999999971
 30
0.0
 40
0.128499999991461
 50
269.999999994855
 51
17.0000000051731
  0
ARC
  8
3
  6
CONTINUOUS
 62
3
 10
20.4999999999828
 20
19.4999999999701
 30
0.0
 40
0.12849999996449
 50
234.000000011319
 51
270.00000001029
  0
ARC
  8
3
  6
CONTINUOUS
 62
3
 10
20.4999999999828
 20
19.5000000000094
 30
0.0
 40
0.128499999996251
 50
90.0000000051455
 51
234.000000021609
  0
ARC
  8
3
  6
CONTINUOUS
 62
3
 10
3.50000000000016
 20
19.5000000000056
 30
0.0
 40
0.128499999999999
 50
270.000000002572
 51
89.9999999974274
  0
ARC
  8
3
  6
CONTINUOUS
 62
3
 10
2.49999999997708
 20
19.5000000000056
 30
0.0
 40
0.128499999999999
 50
90.0000000025721
 51
269.999999997427
  0
ARC
  8
3
  6
CONTINUOUS
 62
3
 10
1.50000000000016
 20
19.5000000000056
 30
0.0
 40
0.128499999999999
 50
270.000000002572
 51
89.9999999974274
  0
LINE
  8
2
  6
CONTINUOUS
 62
2
 10
1.24999999999439
 20
18.0000000000056
 30
0.0
 11
3.74999999999439
 21
18.0000000000056
 31
0.0
  0
ARC
  8
2
  6
CONTINUOUS
 62
2
 10
1.24999999996633
 20
18.2499999999888
 30
0.0
 40
0.249999999977552
 50
180.000000006431
 51
270.000000006431
  0
LINE
  8
2
  6
CONTINUOUS
 62
2
 10
0.99999999999439
 20
19.7500000000056
 30
0.0
 11
0.99999999999439
 21
18.2500000000056
 31
0.0
  0
ARC
  8
2
  6
CONTINUOUS
 62
2
 10
1.24999999997755
 20
19.7500000000337
 30
0.0
 40
0.249999999977551
 50
90.0000000064306
 51
180.000000016721
  0
LINE
  8
2
  6
CONTINUOUS
 62
2
 10
3.74999999999439
 20
20.0000000000056
 30
0.0
 11
1.24999999999439
 21
20.0000000000056
 31
0.0
  0
ARC
  8
2
  6
CONTINUOUS
 62
2
 10
3.75
 20
19.75
 30
0.0
 40
0.25
 50
1.28539573007603E-9
 51
90.0000000115757
  0
LINE
  8
2
  6
CONTINUOUS
 62
2
 10
3.99999999999439
 20
18.2500000000056
 30
0.0
 11
3.99999999999439
 21
19.7500000000056
 31
0.0
  0
ARC
  8
3
  6
CONTINUOUS
 62
3
 10
1.49999999998285
 20
18.5000000000056
 30
0.0
 40
0.128499999999999
 50
90.0000000051449
 51
180.000000005145
  0
ARC
  8
3
  6
CONTINUOUS
 62
3
 10
1.49999999998285
 20
18.5000000000056
 30
0.0
 40
0.128499999999999
 50
180.000000005145
 51
270.000000005145
  0
ARC
  8
3
  6
CONTINUOUS
 62
3
 10
2.50000000000016
 20
18.5000000000056
 30
0.0
 40
0.128499999999999
 50
270.000000002572
 51
89.9999999974274
  0
ARC
  8
3
  6
CONTINUOUS
 62
3
 10
3.50000000000593
 20
18.5000000000056
 30
0.0
 40
0.128499999999999
 50
270.000000005145
 51
5.1449479471571E-9
  0
ARC
  8
3
  6
CONTINUOUS
 62
3
 10
3.50000000000593
 20
18.5000000000056
 30
0.0
 40
0.128499999999999
 50
5.14491614161029E-9
 51
90.0000000051449
  0
LINE
  8
9
  6
CONTINUOUS
 62
9
 10
3.7891086162541
 20
18.0030779148332
 30
0.0
 11
3.8825650542877
 21
17.8876688252685
 31
0.0
  0
LINE
  8
9
  6
CONTINUOUS
 62
9
 10
3.7891086162541
 20
18.0030779148332
 30
0.0
 11
3.77127981077013
 21
17.9566322886126
 31
0.0
  0
LINE
  8
9
  6
CONTINUOUS
 62
9
 10
3.37778923764333
 20
18.5397086837608
 30
0.0
 11
3.4831650786644
 21
18.5621070102408
 31
0.0
  0
LINE
  8
9
  6
CONTINUOUS
 62
9
 10
3.37778923764333
 20
18.5397086837608
 30
0.0
 11
3.41107848532067
 21
18.5027372287032
 31
0.0
  0
LINE
  8
9
  6
CONTINUOUS
 62
9
 10
3.42446959508601
 20
19.3960413162203
 30
0.0
 11
3.43573044641289
 21
19.5031811600105
 31
0.0
  0
LINE
  8
9
  6
CONTINUOUS
 62
9
 10
3.42446959508601
 20
19.3960413162203
 30
0.0
 11
3.46991848159917
 21
19.4162764642235
 31
0.0
  0
LINE
  8
9
  6
CONTINUOUS
 62
9
 10
2.62848042882209
 20
19.4977573657842
 30
0.0
 11
2.53317530589547
 21
19.44492887347
 31
0.0
  0
LINE
  8
9
  6
CONTINUOUS
 62
9
 10
2.62848042882209
 20
19.4977573657842
 30
0.0
 11
2.58583635560601
 21
19.5233805100008
 31
0.0
  0
LINE
  8
9
  6
CONTINUOUS
 62
9
 10
2.424469595058
 20
18.6039586837706
 30
0.0
 11
2.52288584722077
 21
18.5601409452366
 31
0.0
  0
LINE
  8
9
  6
CONTINUOUS
 62
9
 10
2.424469595058
 20
18.6039586837706
 30
0.0
 11
2.42966988611939
 21
18.5544812194775
 31
0.0
  0
LINE
  8
9
  6
CONTINUOUS
 62
9
 10
1.62288516113562
 20
18.5375697640625
 30
0.0
 11
1.5494083628314
 21
18.4587755446222
 31
0.0
  0
LINE
  8
9
  6
CONTINUOUS
 62
9
 10
1.62288516113562
 20
18.5375697640625
 30
0.0
 11
1.57441025041037
 21
18.5487610790067
 31
0.0
  0
LINE
  8
9
  6
CONTINUOUS
 62
9
 10
1.42446959508601
 20
19.3960413162203
 30
0.0
 11
1.43573044641289
 21
19.5031811600105
 31
0.0
  0
LINE
  8
9
  6
CONTINUOUS
 62
9
 10
1.42446959508601
 20
19.3960413162203
 30
0.0
 11
1.46991848159917
 21
19.4162764642235
 31
0.0
  0
LINE
  8
0
  6
CONTINUOUS
 62
0
 10
1.43573044641289
 20
19.5031811600105
 30
0.0
 11
3.99999999999439
 21
17.8876688252685
 31
0.0
  0
LINE
  8
0
  6
CONTINUOUS
 62
0
 10
1.5494083628314
 20
18.4587755446222
 30
0.0
 11
1.46991848159917
 21
19.4162764642235
 31
0.0
  0
LINE
  8
0
  6
CONTINUOUS
 62
0
 10
2.52288584722077
 20
18.5601409452366
 30
0.0
 11
1.57441025041037
 21
18.5487610790067
 31
0.0
  0
LINE
  8
0
  6
CONTINUOUS
 62
0
 10
2.53317530589547
 20
19.44492887347
 30
0.0
 11
2.42966988611939
 21
18.5544812194775
 31
0.0
  0
LINE
  8
0
  6
CONTINUOUS
 62
0
 10
3.43573044641289
 20
19.5031811600105
 30
0.0
 11
2.58583635560601
 21
19.5233805100008
 31
0.0
  0
LINE
  8
0
  6
CONTINUOUS
 62
0
 10
3.4831650786644
 20
18.5621070102408
 30
0.0
 11
3.46991848159917
 21
19.4162764642235
 31
0.0
  0
LINE
  8
0
  6
CONTINUOUS
 62
0
 10
3.8825650542877
 20
17.8876688252685
 30
0.0
 11
3.41107848532067
 21
18.5027372287032
 31
0.0
  0
ARC
  8
2
  6
CONTINUOUS
 62
2
 10
3.74999999999262
 20
18.2499999999551
 30
0.0
 40
0.249999999973714
 50
279.000000001285
 51
1.15756860131707E-8
  0
ARC
  8
2
  6
CONTINUOUS
 62
2
 10
3.74999999998878
 20
18.2499999996923
 30
0.0
 40
0.249999999714744
 50
270.000000001286
 51
279.000000011576
  0
ARC
  8
3
  6
CONTINUOUS
 62
3
 10
3.49999999998285
 20
18.4999999999972
 30
0.0
 40
0.128499999991616
 50
162.000000015435
 51
270.000000015435
  0
ARC
  8
3
  6
CONTINUOUS
 62
3
 10
3.49999999999439
 20
18.5000000000056
 30
0.0
 40
0.128500000000002
 50
89.9999999999988
 51
162.000000020578
  0
ARC
  8
3
  6
CONTINUOUS
 62
3
 10
3.49999999998284
 20
19.4999999999701
 30
0.0
 40
0.128499999964483
 50
234.00000001132
 51
270.000000010291
  0
ARC
  8
3
  6
CONTINUOUS
 62
3
 10
3.49999999998285
 20
19.5000000000094
 30
0.0
 40
0.128499999996251
 50
90.0000000051447
 51
234.000000021609
  0
ARC
  8
3
  6
CONTINUOUS
 62
3
 10
2.50000000000593
 20
19.500000000017
 30
0.0
 40
0.128499999988662
 50
358.999999997456
 51
90.000000005145
  0
ARC
  8
3
  6
CONTINUOUS
 62
3
 10
2.50000000000593
 20
19.4999999999939
 30
0.0
 40
0.128499999988259
 50
269.999999999999
 51
359.000000007745
  0
ARC
  8
3
  6
CONTINUOUS
 62
3
 10
2.49999999998285
 20
18.5000000000019
 30
0.0
 40
0.128499999996252
 50
126.000000014405
 51
270.000000010289
  0
ARC
  8
3
  6
CONTINUOUS
 62
3
 10
2.49999999998285
 20
18.5000000000411
 30
0.0
 40
0.128499999964494
 50
90.0000000051457
 51
126.000000024696
  0
ARC
  8
3
  6
CONTINUOUS
 62
3
 10
1.49999999999439
 20
18.5000000000056
 30
0.0
 40
0.128499999999998
 50
17.0000000000282
 51
90.0000000102903
  0
ARC
  8
3
  6
CONTINUOUS
 62
3
 10
1.50000000000593
 20
18.4999999999971
 30
0.0
 40
0.128499999991461
 50
269.999999994855
 51
17.0000000051731
  0
ARC
  8
3
  6
CONTINUOUS
 62
3
 10
1.49999999998285
 20
19.4999999999701
 30
0.0
 40
0.12849999996449
 50
234.000000011319
 51
270.00000001029
  0
ARC
  8
3
  6
CONTINUOUS
 62
3
 10
1.49999999998285
 20
19.5000000000094
 30
0.0
 40
0.128499999996251
 50
90.0000000051455
 51
234.000000021609
  0
LINE
  8
0
  6
CONTINUOUS
 62
0
 10
1.81225684550858
 20
0.97364864791308
 30
0.0
 11
0.887668825313429
 21
14.4999999999719
 31
0.0
  0
LINE
  8
0
  6
CONTINUOUS
 62
0
 10
0.956632288657549
 20
14.7287201891962
 30
0.0
 11
0.913075007787985
 21
18.7158427612272
 31
0.0
  0
LINE
  8
0
  6
CONTINUOUS
 62
0
 10
0.913075007787985
 20
18.7158427612272
 30
0.0
 11
3.99999999999439
 21
17.8876688252685
 31
0.0
  0
LINE
  8
0
  6
CONTINUOUS
 62
0
 10
3.77127981077013
 20
17.9566322886126
 30
0.0
 11
4.87139197997242
 21
16.4999999999719
 31
0.0
  0
LINE
  8
0
  6
CONTINUOUS
 62
0
 10
4.95691523618101
 20
16.7748749999665
 30
0.0
 11
8.37139197997242
 21
16.4999999999719
 31
0.0
  0
LINE
  8
0
  6
CONTINUOUS
 62
0
 10
8.45691523618101
 20
16.7748749999665
 30
0.0
 11
12
 21
16.3713919799394
 31
0.0
  0
LINE
  8
0
  6
CONTINUOUS
 62
0
 10
12.9951250000306
 20
16.4569152361546
 30
0.0
 11
15.5
 21
16.3713919799394
 31
0.0
  0
LINE
  8
0
  6
CONTINUOUS
 62
0
 10
16.4951250000306
 20
16.4569152361546
 30
0.0
 11
22.9999999999944
 21
17.8876688252685
 31
0.0
  0
LINE
  8
0
  6
CONTINUOUS
 62
0
 10
22.7712798107701
 20
17.9566322886126
 30
0.0
 11
20.8876688253134
 21
14.4999999999719
 31
0.0
  0
LINE
  8
0
  6
CONTINUOUS
 62
0
 10
20.9566322886575
 20
14.7287201891962
 30
0.0
 11
20.5720048255661
 21
15.0167275385471
 31
0.0
  0
LINE
  8
0
  6
CONTINUOUS
 62
0
 10
0.99999999988776
 20
0.873671465243291
 30
0.0
 11
0
 21
0
 31
0.0
  0
LINE
  8
0
  6
CONTINUOUS
 62
0
 10
20.5720048255661
 20
15.0167275385471
 30
0.0
 11
1
 21
1
 31
0.0
  0
ENDSEC
  0
EOF
