  0
SECTION
  2
HEADER
  9
$ACADVER
  1
AC1003
  9
$EXTMIN
 10
1.04727896988776
 20
16.0328755365159
  9
$EXTMAX
 10
23.0472789700159
 20
0.906547001743291
  9
$INSBASE
 10
12.0472789699518
 20
8.46971126912958
999
Created with OMAX Windows DXF File exporter 7/17/2007
  0
ENDSEC
  0
SECTION
  2
TABLES
  0
TABLE
  2
LAYER
 70
    10
  0
LAYER
  2
0
 70
     0
 62
     7
  6
CONTINUOUS
  0
LAYER
  2
1
 70
     0
 62
     7
  6
CONTINUOUS
  0
LAYER
  2
2
 70
     0
 62
     7
  6
CONTINUOUS
  0
LAYER
  2
3
 70
     0
 62
     7
  6
CONTINUOUS
  0
LAYER
  2
4
 70
     0
 62
     7
  6
CONTINUOUS
  0
LAYER
  2
5
 70
     0
 62
     7
  6
CONTINUOUS
  0
LAYER
  2
6
 70
     0
 62
     7
  6
CONTINUOUS
  0
LAYER
  2
7
 70
     0
 62
     7
  6
CONTINUOUS
  0
LAYER
  2
8
 70
     0
 62
     7
  6
CONTINUOUS
  0
LAYER
  2
9
 70
     0
 62
     7
  6
CONTINUOUS
  0
LAYER
  2
10
 70
     0
 62
     7
  6
CONTINUOUS
  0
LAYER
  2
11
 70
     0
 62
     7
  6
CONTINUOUS
  0
LAYER
  2
12
 70
     0
 62
     7
  6
CONTINUOUS
  0
ENDTAB
  0
ENDSEC
  0
SECTION
  2
ENTITIES
  0
ARC
  8
2
  6
CONTINUOUS
 62
2
 10
2.0472789698086
 20
11.6186619742511
 30
0.0
 40
0.999999999792728
 50
135.000000008656
 51
180.000000008656
  0
LINE
  8
2
  6
CONTINUOUS
 62
2
 10
1.3401721888
 20
12.3257687553
 30
0.0
 11
4.75438575111345
 21
15.7399823176866
 31
0.0
  0
ARC
  8
2
  6
CONTINUOUS
 62
2
 10
5.46149253224852
 20
15.0328755367327
 30
0.0
 40
0.999999999783215
 50
90.0000000073402
 51
135.00000001763
  0
ARC
  8
2
  6
CONTINUOUS
 62
2
 10
18.6330654077511
 20
15.0328755366914
 30
0.0
 40
0.99999999979273
 50
45.0000000086567
 51
90.0000000189465
  0
LINE
  8
2
  6
CONTINUOUS
 62
2
 10
19.3401721888
 20
15.7399823177
 30
0.0
 11
22.7543857511865
 21
12.3257687552865
 31
0.0
  0
ARC
  8
2
  6
CONTINUOUS
 62
2
 10
22.0472789702327
 20
11.6186619741515
 30
0.0
 40
0.999999999783215
 50
7.34092460515225E-9
 51
45.0000000176307
  0
ARC
  8
2
  6
CONTINUOUS
 62
2
 10
22.0472789699776
 20
2.03287553647756
 30
0.0
 40
1
 50
270.000000001286
 51
1.15763547744887E-8
  0
ARC
  8
3
  6
CONTINUOUS
 62
3
 10
17.18377897
 20
7.84137553651154
 30
0.0
 40
0.128500000000002
 50
5.14552765294397E-9
 51
180.000000005145
  0
ARC
  8
3
  6
CONTINUOUS
 62
3
 10
17.18377897
 20
9.22437553651154
 30
0.0
 40
0.128500000000002
 50
5.14491698644513E-9
 51
180.000000005145
  0
ARC
  8
3
  6
CONTINUOUS
 62
3
 10
6.91077897
 20
7.84137553651154
 30
0.0
 40
0.1285
 50
5.14512054194474E-9
 51
180.000000005145
  0
ARC
  8
3
  6
CONTINUOUS
 62
3
 10
6.91077897
 20
9.22437553651154
 30
0.0
 40
0.128499999999999
 50
5.14532409744435E-9
 51
180.000000005145
  0
ARC
  8
3
  6
CONTINUOUS
 62
3
 10
19.53977897
 20
7.84137553648846
 30
0.0
 40
0.128499999999995
 50
180.000000005144
 51
5.14430631994628E-9
  0
ARC
  8
3
  6
CONTINUOUS
 62
3
 10
19.53977897
 20
9.22437553648846
 30
0.0
 40
0.128499999999995
 50
180.000000005145
 51
5.14491698644513E-9
  0
ARC
  8
3
  6
CONTINUOUS
 62
3
 10
4.55477897
 20
9.2243755365
 30
0.0
 40
0.128500000000001
 50
1.02899349058052E-8
 51
180.000000005145
  0
ARC
  8
3
  6
CONTINUOUS
 62
3
 10
4.55477897
 20
7.84137553648846
 30
0.0
 40
0.128499999999999
 50
180.000000005145
 51
5.14471343094551E-9
  0
ARC
  8
2
  6
CONTINUOUS
 62
2
 10
14.7972789700281
 20
3.28287553651684
 30
0.0
 40
0.24999999997755
 50
6.4315912995031E-9
 51
90.0000000167215
  0
ARC
  8
2
  6
CONTINUOUS
 62
2
 10
9.29727896998316
 20
3.28287553652806
 30
0.0
 40
0.249999999977551
 50
90.0000000064307
 51
180.000000006431
  0
LINE
  8
2
  6
CONTINUOUS
 62
2
 10
9.04727897
 20
2.2828755365
 30
0.0
 11
9.04727897
 21
3.2828755365
 31
0.0
  0
ARC
  8
2
  6
CONTINUOUS
 62
2
 10
9.29727896994949
 20
2.28287553650561
 30
0.0
 40
0.249999999977551
 50
180.000000001286
 51
270.000000011576
  0
LINE
  8
2
  6
CONTINUOUS
 62
2
 10
14.79727897
 20
2.0328755365
 30
0.0
 11
9.29727897
 21
2.0328755365
 31
0.0
  0
ARC
  8
2
  6
CONTINUOUS
 62
2
 10
14.7972789699944
 20
2.28287553649439
 30
0.0
 40
0.25
 50
270.000000001286
 51
1.15765583299883E-8
  0
LINE
  8
2
  6
CONTINUOUS
 62
2
 10
15.04727897
 20
3.2828755365
 30
0.0
 11
15.04727897
 21
2.2828755365
 31
0.0
  0
ARC
  8
3
  6
CONTINUOUS
 62
3
 10
22.54527897
 20
7.18912553648846
 30
0.0
 40
0.128499999999999
 50
180.000000005144
 51
5.14471343094551E-9
  0
ARC
  8
3
  6
CONTINUOUS
 62
3
 10
22.54527897
 20
9.8766255365
 30
0.0
 40
0.128500000000002
 50
180.000000005145
 51
2.55289209354345E-13
  0
ARC
  8
3
  6
CONTINUOUS
 62
3
 10
1.54927897
 20
9.8766255365
 30
0.0
 40
0.1285
 50
180.000000005145
 51
2.55289209354345E-13
  0
ARC
  8
3
  6
CONTINUOUS
 62
3
 10
1.54927897
 20
7.1891255365
 30
0.0
 40
0.128500000000001
 50
180.000000005145
 51
1.02622584644096E-13
  0
ARC
  8
3
  6
CONTINUOUS
 62
3
 10
1.54727897
 20
6.1578755365
 30
0.0
 40
0.1285
 50
180.000000005145
 51
1.02622584644096E-13
  0
ARC
  8
3
  6
CONTINUOUS
 62
3
 10
8.54727897
 20
6.15787553651154
 30
0.0
 40
0.128499999999999
 50
180.00000001029
 51
5.14501876419493E-9
  0
ARC
  8
3
  6
CONTINUOUS
 62
3
 10
8.54727897
 20
10.9078755365115
 30
0.0
 40
0.128499999999999
 50
5.14491698644513E-9
 51
180.000000005145
  0
ARC
  8
3
  6
CONTINUOUS
 62
3
 10
1.54727897
 20
10.9078755365
 30
0.0
 40
0.128499999999999
 50
1.02891715726817E-8
 51
180.000000005144
  0
ARC
  8
3
  6
CONTINUOUS
 62
3
 10
22.54727897
 20
10.9078755365231
 30
0.0
 40
0.128499999999995
 50
180.00000001029
 51
3.57066959161178E-13
  0
ARC
  8
3
  6
CONTINUOUS
 62
3
 10
15.54727897
 20
10.9078755365
 30
0.0
 40
0.128500000000002
 50
180.000000005145
 51
2.55289209354345E-13
  0
ARC
  8
3
  6
CONTINUOUS
 62
3
 10
15.54727897
 20
6.15787553648846
 30
0.0
 40
0.128499999999999
 50
180.000000005144
 51
5.14471343094551E-9
  0
ARC
  8
3
  6
CONTINUOUS
 62
3
 10
22.54727897
 20
6.15787553652308
 30
0.0
 40
0.128499999999995
 50
180.00000001029
 51
5.60622458774843E-13
  0
ARC
  8
3
  6
CONTINUOUS
 62
3
 10
22.04727897
 20
2.28287553650714
 30
0.0
 40
0.079500000000003
 50
5.14532409744435E-9
 51
180.000000005145
  0
ARC
  8
3
  6
CONTINUOUS
 62
3
 10
20.04727897
 20
2.28287553649286
 30
0.0
 40
0.0794999999999995
 50
180.000000005144
 51
5.14440809769609E-9
  0
ARC
  8
3
  6
CONTINUOUS
 62
3
 10
16.04727897
 20
2.28287553650714
 30
0.0
 40
0.0794999999999995
 50
5.14501876419493E-9
 51
180.000000005145
  0
ARC
  8
3
  6
CONTINUOUS
 62
3
 10
22.04727897
 20
5.2828755365
 30
0.0
 40
0.079500000000003
 50
180.000000005145
 51
3.06178084257761E-13
  0
ARC
  8
3
  6
CONTINUOUS
 62
3
 10
20.04727897
 20
5.28287553650714
 30
0.0
 40
0.079500000000003
 50
5.14568031956868E-9
 51
180.000000005146
  0
ARC
  8
3
  6
CONTINUOUS
 62
3
 10
16.04727897
 20
5.28287553651428
 30
0.0
 40
0.0794999999999995
 50
180.00000001029
 51
4.5884470896801E-13
  0
ARC
  8
3
  6
CONTINUOUS
 62
3
 10
7.54727897
 20
2.5328755364952
 30
0.0
 40
0.0534999999999997
 50
180.000000005144
 51
5.14471343094551E-9
  0
ARC
  8
3
  6
CONTINUOUS
 62
3
 10
3.82727897
 20
2.5328755365048
 30
0.0
 40
0.0534999999999997
 50
5.14527320856945E-9
 51
180.000000005145
  0
ARC
  8
3
  6
CONTINUOUS
 62
3
 10
7.54727897
 20
5.0718755365
 30
0.0
 40
0.0534999999999979
 50
180.000000005145
 51
2.04400334450929E-13
  0
ARC
  8
3
  6
CONTINUOUS
 62
3
 10
3.82727897
 20
5.0718755365
 30
0.0
 40
0.0534999999999992
 50
1.02897822391805E-8
 51
180.000000005145
  0
ARC
  8
3
  6
CONTINUOUS
 62
3
 10
16.47727897
 20
11.8528755365
 30
0.0
 40
0.0534999999999997
 50
1.02883573506832E-8
 51
180.000000005143
  0
ARC
  8
3
  6
CONTINUOUS
 62
3
 10
14.04727897
 20
13.7828755365
 30
0.0
 40
0.0534999999999997
 50
1.02883573506832E-8
 51
180.000000005143
  0
ARC
  8
3
  6
CONTINUOUS
 62
3
 10
10.04727897
 20
11.8528755364952
 30
0.0
 40
0.0534999999999997
 50
180.000000005144
 51
5.14425543107138E-9
  0
ARC
  8
3
  6
CONTINUOUS
 62
3
 10
7.61727897
 20
13.7828755365
 30
0.0
 40
0.0534999999999979
 50
180.000000005144
 51
359.999999999999
  0
ARC
  8
3
  6
CONTINUOUS
 62
3
 10
12.54727897
 20
15.2828755365
 30
0.0
 40
0.128499999999999
 50
180.000000005145
 51
2.55289209354345E-13
  0
ARC
  8
3
  6
CONTINUOUS
 62
3
 10
11.54727897
 20
15.2828755365115
 30
0.0
 40
0.128499999999999
 50
5.14491698644513E-9
 51
180.000000005145
  0
ARC
  8
3
  6
CONTINUOUS
 62
3
 10
12.54727897
 20
13.2828755364885
 30
0.0
 40
0.128499999999997
 50
180.000000005143
 51
5.14369565344744E-9
  0
ARC
  8
3
  6
CONTINUOUS
 62
3
 10
11.54727897
 20
13.2828755365
 30
0.0
 40
0.128499999999999
 50
180.000000005145
 51
2.55289209354345E-13
  0
ARC
  8
3
  6
CONTINUOUS
 62
3
 10
15.54727897
 20
1.28287553651117
 30
0.0
 40
0.0622000000000007
 50
180.00000001029
 51
6.11511333678259E-13
  0
ARC
  8
3
  6
CONTINUOUS
 62
3
 10
8.54727897
 20
1.2828755365
 30
0.0
 40
0.0622000000000007
 50
180.000000005145
 51
2.04400334450929E-13
  0
ARC
  8
3
  6
CONTINUOUS
 62
3
 10
11.54727897
 20
14.2828755365
 30
0.0
 40
0.128499999999999
 50
180.000000005145
 51
2.55289209354345E-13
  0
ARC
  8
3
  6
CONTINUOUS
 62
3
 10
12.54727897
 20
14.2828755365
 30
0.0
 40
0.128500000000002
 50
180.000000005145
 51
2.55289209354345E-13
  0
ARC
  8
3
  6
CONTINUOUS
 62
3
 10
10.54727897
 20
15.2828755365
 30
0.0
 40
0.128500000000002
 50
180.000000005145
 51
2.55289209354345E-13
  0
ARC
  8
3
  6
CONTINUOUS
 62
3
 10
10.54727897
 20
14.2828755365
 30
0.0
 40
0.128499999999999
 50
180.000000005145
 51
2.55289209354345E-13
  0
ARC
  8
3
  6
CONTINUOUS
 62
3
 10
13.54727897
 20
15.2828755365
 30
0.0
 40
0.128500000000001
 50
180.000000005145
 51
2.55289209354345E-13
  0
ARC
  8
3
  6
CONTINUOUS
 62
3
 10
13.54727897
 20
14.2828755365
 30
0.0
 40
0.128500000000001
 50
180.000000005145
 51
2.55289209354345E-13
  0
ARC
  8
3
  6
CONTINUOUS
 62
3
 10
12.54727897
 20
5.15287553647692
 30
0.0
 40
0.128499999999999
 50
1.02892733504315E-8
 51
179.999999999999
  0
ARC
  8
3
  6
CONTINUOUS
 62
3
 10
11.54727897
 20
5.15287553651154
 30
0.0
 40
0.128499999999999
 50
5.14512054194474E-9
 51
180.000000005145
  0
ARC
  8
3
  6
CONTINUOUS
 62
3
 10
12.54727897
 20
12.2828755365231
 30
0.0
 40
0.128500000000001
 50
180.00000001029
 51
3.57066959161178E-13
  0
ARC
  8
3
  6
CONTINUOUS
 62
3
 10
11.54727897
 20
12.2828755365
 30
0.0
 40
0.128500000000001
 50
180.000000005145
 51
2.55289209354345E-13
  0
ARC
  8
3
  6
CONTINUOUS
 62
3
 10
12.54727897
 20
4.15287553648846
 30
0.0
 40
0.128499999999999
 50
180.000000005144
 51
5.1445098754459E-9
  0
ARC
  8
3
  6
CONTINUOUS
 62
3
 10
11.54727897
 20
4.15287553647692
 30
0.0
 40
0.128499999999999
 50
1.02894260170562E-8
 51
180
  0
ARC
  8
2
  6
CONTINUOUS
 62
2
 10
7.94727897001123
 20
1.93287553650673
 30
0.0
 40
0.0999999999910203
 50
6.43174396612781E-9
 51
90.0000000167217
  0
ARC
  8
2
  6
CONTINUOUS
 62
2
 10
6.64727896999327
 20
1.93287553651122
 30
0.0
 40
0.0999999999910208
 50
90.000000006431
 51
180.000000006431
  0
LINE
  8
2
  6
CONTINUOUS
 62
2
 10
6.54727897
 20
1.9328755365
 30
0.0
 11
6.54727897
 21
1.6328755365
 31
0.0
  0
ARC
  8
2
  6
CONTINUOUS
 62
2
 10
6.6472789699798
 20
1.63287553650224
 30
0.0
 40
0.0999999999910208
 50
180.000000001286
 51
270.000000011576
  0
LINE
  8
2
  6
CONTINUOUS
 62
2
 10
6.64727897
 20
1.5328755365
 30
0.0
 11
7.94727897
 21
1.5328755365
 31
0.0
  0
ARC
  8
2
  6
CONTINUOUS
 62
2
 10
7.94727896999775
 20
1.63287553649776
 30
0.0
 40
0.1
 50
270.000000001286
 51
1.15766092188632E-8
  0
LINE
  8
2
  6
CONTINUOUS
 62
2
 10
8.04727897
 20
1.6328755365
 30
0.0
 11
8.04727897
 21
1.9328755365
 31
0.0
  0
ARC
  8
2
  6
CONTINUOUS
 62
2
 10
6.6472789699798
 20
15.1328755365022
 30
0.0
 40
0.0999999999910227
 50
180.000000001286
 51
270.000000011576
  0
ARC
  8
2
  6
CONTINUOUS
 62
2
 10
7.94727896999776
 20
15.1328755364978
 30
0.0
 40
0.1
 50
270.000000001286
 51
1.15771689964871E-8
  0
LINE
  8
2
  6
CONTINUOUS
 62
2
 10
8.04727897
 20
15.1328755365
 30
0.0
 11
8.04727897
 21
15.4328755365
 31
0.0
  0
ARC
  8
2
  6
CONTINUOUS
 62
2
 10
7.94727897001123
 20
15.4328755365067
 30
0.0
 40
0.0999999999910223
 50
6.43169307725291E-9
 51
90.000000016722
  0
LINE
  8
2
  6
CONTINUOUS
 62
2
 10
7.94727897
 20
15.5328755365
 30
0.0
 11
6.64727897
 21
15.5328755365
 31
0.0
  0
ARC
  8
2
  6
CONTINUOUS
 62
2
 10
6.64727896999327
 20
15.4328755365112
 30
0.0
 40
0.0999999999910215
 50
90.0000000064319
 51
180.000000006431
  0
LINE
  8
2
  6
CONTINUOUS
 62
2
 10
6.54727897
 20
15.4328755365
 30
0.0
 11
6.54727897
 21
15.1328755365
 31
0.0
  0
ARC
  8
2
  6
CONTINUOUS
 62
2
 10
16.1472789699798
 20
15.1328755365022
 30
0.0
 40
0.0999999999910191
 50
180.000000001286
 51
270.000000011577
  0
ARC
  8
2
  6
CONTINUOUS
 62
2
 10
17.4472789699978
 20
15.1328755364978
 30
0.0
 40
0.0999999999999986
 50
270.000000001289
 51
1.15779832184856E-8
  0
LINE
  8
2
  6
CONTINUOUS
 62
2
 10
17.54727897
 20
15.1328755365
 30
0.0
 11
17.54727897
 21
15.4328755365
 31
0.0
  0
ARC
  8
2
  6
CONTINUOUS
 62
2
 10
17.4472789700112
 20
15.4328755365067
 30
0.0
 40
0.0999999999910192
 50
6.42991196663129E-9
 51
90.0000000167187
  0
LINE
  8
2
  6
CONTINUOUS
 62
2
 10
17.44727897
 20
15.5328755365
 30
0.0
 11
16.14727897
 21
15.5328755365
 31
0.0
  0
ARC
  8
2
  6
CONTINUOUS
 62
2
 10
16.1472789699933
 20
15.4328755365112
 30
0.0
 40
0.0999999999910193
 50
90.0000000064316
 51
180.000000006433
  0
LINE
  8
2
  6
CONTINUOUS
 62
2
 10
16.04727897
 20
15.4328755365
 30
0.0
 11
16.04727897
 21
15.1328755365
 31
0.0
  0
LINE
  8
2
  6
CONTINUOUS
 62
2
 10
17.44727897
 20
2.0328755365
 30
0.0
 11
16.14727897
 21
2.0328755365
 31
0.0
  0
ARC
  8
2
  6
CONTINUOUS
 62
2
 10
16.1472789699933
 20
1.93287553651123
 30
0.0
 40
0.0999999999910193
 50
90.0000000064316
 51
180.000000006432
  0
LINE
  8
2
  6
CONTINUOUS
 62
2
 10
16.04727897
 20
1.9328755365
 30
0.0
 11
16.04727897
 21
1.6328755365
 31
0.0
  0
ARC
  8
2
  6
CONTINUOUS
 62
2
 10
16.1472789699798
 20
1.63287553650225
 30
0.0
 40
0.0999999999910216
 50
180.000000001286
 51
270.000000011577
  0
LINE
  8
2
  6
CONTINUOUS
 62
2
 10
16.14727897
 20
1.5328755365
 30
0.0
 11
17.44727897
 21
1.5328755365
 31
0.0
  0
ARC
  8
2
  6
CONTINUOUS
 62
2
 10
17.4472789699978
 20
1.63287553649776
 30
0.0
 40
0.100000000000002
 50
270.000000001286
 51
1.15766601077381E-8
  0
LINE
  8
2
  6
CONTINUOUS
 62
2
 10
17.54727897
 20
1.6328755365
 30
0.0
 11
17.54727897
 21
1.9328755365
 31
0.0
  0
ARC
  8
2
  6
CONTINUOUS
 62
2
 10
17.4472789700112
 20
7.08287553650673
 30
0.0
 40
0.0999999999910218
 50
6.43143863287839E-9
 51
90.0000000167213
  0
LINE
  8
2
  6
CONTINUOUS
 62
2
 10
17.44727897
 20
7.1828755365
 30
0.0
 11
16.14727897
 21
7.1828755365
 31
0.0
  0
ARC
  8
2
  6
CONTINUOUS
 62
2
 10
16.1472789699933
 20
7.08287553651123
 30
0.0
 40
0.0999999999910149
 50
90.0000000064311
 51
180.000000006431
  0
LINE
  8
2
  6
CONTINUOUS
 62
2
 10
16.04727897
 20
7.0828755365
 30
0.0
 11
16.04727897
 21
6.7828755365
 31
0.0
  0
LINE
  8
2
  6
CONTINUOUS
 62
2
 10
16.14727897
 20
6.6828755365
 30
0.0
 11
17.44727897
 21
6.6828755365
 31
0.0
  0
ARC
  8
2
  6
CONTINUOUS
 62
2
 10
17.4472789699978
 20
6.78287553649775
 30
0.0
 40
0.100000000000001
 50
270.000000001286
 51
1.15759476634895E-8
  0
LINE
  8
2
  6
CONTINUOUS
 62
2
 10
17.54727897
 20
6.7828755365
 30
0.0
 11
17.54727897
 21
7.0828755365
 31
0.0
  0
ARC
  8
2
  6
CONTINUOUS
 62
2
 10
7.94727897001122
 20
7.08287553650673
 30
0.0
 40
0.0999999999910218
 50
6.43143863287839E-9
 51
90.0000000167213
  0
LINE
  8
2
  6
CONTINUOUS
 62
2
 10
7.94727897
 20
7.1828755365
 30
0.0
 11
6.64727897
 21
7.1828755365
 31
0.0
  0
ARC
  8
2
  6
CONTINUOUS
 62
2
 10
6.64727896999327
 20
7.08287553651122
 30
0.0
 40
0.0999999999910228
 50
90.0000000064311
 51
180.000000006431
  0
LINE
  8
2
  6
CONTINUOUS
 62
2
 10
6.54727897
 20
7.0828755365
 30
0.0
 11
6.54727897
 21
6.7828755365
 31
0.0
  0
ARC
  8
2
  6
CONTINUOUS
 62
2
 10
6.64727896997979
 20
6.78287553650224
 30
0.0
 40
0.099999999991021
 50
180.000000001286
 51
270.000000011577
  0
ARC
  8
2
  6
CONTINUOUS
 62
2
 10
7.94727896999775
 20
6.78287553649775
 30
0.0
 40
0.100000000000002
 50
270.000000001286
 51
1.15761512189891E-8
  0
LINE
  8
2
  6
CONTINUOUS
 62
2
 10
8.04727897
 20
6.7828755365
 30
0.0
 11
8.04727897
 21
7.0828755365
 31
0.0
  0
ARC
  8
2
  6
CONTINUOUS
 62
2
 10
19.29727897
 20
13.0328755365
 30
0.0
 40
1.37500000000001
 50
180.000000005145
 51
2.04400334450929E-13
  0
ARC
  8
2
  6
CONTINUOUS
 62
2
 10
4.79727897
 20
13.0328755365
 30
0.0
 40
1.375
 50
1.02896804614307E-8
 51
180.000000005145
  0
ARC
  8
3
  6
CONTINUOUS
 62
3
 10
2.54727897
 20
7.03287553648846
 30
0.0
 40
0.128499999999999
 50
5.1446116531957E-9
 51
179.999999999999
  0
ARC
  8
3
  6
CONTINUOUS
 62
3
 10
2.54727897
 20
10.0328755365
 30
0.0
 40
0.128499999999999
 50
180.000000005145
 51
2.55289209354345E-13
  0
ARC
  8
3
  6
CONTINUOUS
 62
3
 10
21.54727897
 20
10.0328755365
 30
0.0
 40
0.128499999999999
 50
180.000000005145
 51
2.55289209354345E-13
  0
ARC
  8
3
  6
CONTINUOUS
 62
3
 10
21.54727897
 20
7.03287553651154
 30
0.0
 40
0.128499999999995
 50
5.14512054194474E-9
 51
180.000000005145
  0
ARC
  8
3
  6
CONTINUOUS
 62
3
 10
9.04727897
 20
7.03287553648846
 30
0.0
 40
0.128499999999999
 50
180.000000005145
 51
5.14471343094551E-9
  0
ARC
  8
3
  6
CONTINUOUS
 62
3
 10
9.04727897
 20
10.0328755365231
 30
0.0
 40
0.128499999999999
 50
180.00000001029
 51
3.57066959161178E-13
  0
ARC
  8
3
  6
CONTINUOUS
 62
3
 10
15.04727897
 20
7.0328755365
 30
0.0
 40
0.128499999999999
 50
180.000000005144
 51
1.02622584644096E-13
  0
ARC
  8
3
  6
CONTINUOUS
 62
3
 10
15.04727897
 20
10.0328755365
 30
0.0
 40
0.128499999999999
 50
180.000000005144
 51
1.02622584644096E-13
  0
ARC
  8
3
  6
CONTINUOUS
 62
3
 10
10.04727897
 20
7.0328755365
 30
0.0
 40
0.128499999999999
 50
180.000000005144
 51
1.02622584644096E-13
  0
ARC
  8
3
  6
CONTINUOUS
 62
3
 10
10.04727897
 20
10.0328755365
 30
0.0
 40
0.128499999999999
 50
180.000000005145
 51
2.55289209354345E-13
  0
ARC
  8
3
  6
CONTINUOUS
 62
3
 10
14.04727897
 20
10.0328755365115
 30
0.0
 40
0.128499999999999
 50
5.14471343094551E-9
 51
180.000000005144
  0
ARC
  8
3
  6
CONTINUOUS
 62
3
 10
14.04727897
 20
7.03287553648846
 30
0.0
 40
0.128499999999999
 50
180.000000005145
 51
5.14471343094551E-9
  0
LINE
  8
2
  6
CONTINUOUS
 62
2
 10
5.4614925323
 20
16.0328755365
 30
0.0
 11
18.6330654076
 21
16.0328755365
 31
0.0
  0
LINE
  8
2
  6
CONTINUOUS
 62
2
 10
23.04727897
 20
11.6186619741
 30
0.0
 11
23.04727897
 21
2.0328755365
 31
0.0
  0
LINE
  8
2
  6
CONTINUOUS
 62
2
 10
22.04727897
 20
1.0328755365
 30
0.0
 11
2.04727897
 21
1.0328755365
 31
0.0
  0
LINE
  8
2
  6
CONTINUOUS
 62
2
 10
1.04727897
 20
2.0328755365
 30
0.0
 11
1.04727897
 21
11.6186619741
 31
0.0
  0
LINE
  8
9
  6
CONTINUOUS
 62
9
 10
1.94406348935916
 20
0.906547001743291
 30
0.0
 11
1.89084450495839
 21
1.04518719599955
 31
0.0
  0
LINE
  8
9
  6
CONTINUOUS
 62
9
 10
1.85953581550858
 20
1.00652418441308
 30
0.0
 11
1.89084450495839
 21
1.04518719599955
 31
0.0
  0
LINE
  8
9
  6
CONTINUOUS
 62
9
 10
3.80127538447106
 20
2.52645983485722
 30
0.0
 11
3.80986107373657
 21
2.48229029270543
 31
0.0
  0
LINE
  8
9
  6
CONTINUOUS
 62
9
 10
3.84382300484083
 20
2.51181294901663
 30
0.0
 11
3.80986107373657
 21
2.48229029270543
 31
0.0
  0
LINE
  8
9
  6
CONTINUOUS
 62
9
 10
3.80127538447141
 20
5.06545983485582
 30
0.0
 11
3.80986107373929
 21
5.02129029270449
 31
0.0
  0
LINE
  8
9
  6
CONTINUOUS
 62
9
 10
3.84382300484197
 20
5.05081294901752
 30
0.0
 11
3.80986107373929
 21
5.02129029270449
 31
0.0
  0
LINE
  8
9
  6
CONTINUOUS
 62
9
 10
2.54409780998846
 20
6.96860598291055
 30
0.0
 11
2.65123765377854
 21
6.95734513158228
 31
0.0
  0
LINE
  8
9
  6
CONTINUOUS
 62
9
 10
2.63100250577586
 20
7.0027940180957
 30
0.0
 11
2.65123765377854
 21
6.95734513158228
 31
0.0
  0
LINE
  8
9
  6
CONTINUOUS
 62
9
 10
1.60941991523096
 20
7.16623968927362
 30
0.0
 11
1.65323765376497
 21
7.26465594143639
 31
0.0
  0
LINE
  8
9
  6
CONTINUOUS
 62
9
 10
1.60376018947185
 20
7.259455650375
 30
0.0
 11
1.65323765376497
 21
7.26465594143639
 31
0.0
  0
LINE
  8
9
  6
CONTINUOUS
 62
9
 10
1.58762927827152
 20
6.20800085863298
 30
0.0
 11
1.50757028620746
 21
6.28008629883894
 31
0.0
  0
LINE
  8
9
  6
CONTINUOUS
 62
9
 10
1.49722667960111
 20
6.23142345569991
 30
0.0
 11
1.50757028620746
 21
6.28008629883894
 31
0.0
  0
LINE
  8
9
  6
CONTINUOUS
 62
9
 10
4.6168859802352
 20
7.85821045782999
 30
0.0
 11
4.59448765375523
 21
7.96358629885106
 31
0.0
  0
LINE
  8
9
  6
CONTINUOUS
 62
9
 10
4.55751619869763
 20
7.93029705117371
 30
0.0
 11
4.59448765375523
 21
7.96358629885106
 31
0.0
  0
LINE
  8
9
  6
CONTINUOUS
 62
9
 10
4.49970784346443
 20
9.19120023059892
 30
0.0
 11
4.55253633577864
 21
9.0958951076723
 31
0.0
  0
LINE
  8
9
  6
CONTINUOUS
 62
9
 10
4.57815947999519
 20
9.13853918088838
 30
0.0
 11
4.55253633577864
 21
9.0958951076723
 31
0.0
  0
LINE
  8
9
  6
CONTINUOUS
 62
9
 10
2.59699528605177
 20
9.99207098095605
 30
0.0
 11
2.66948973233715
 21
10.072584220298
 31
0.0
  0
LINE
  8
9
  6
CONTINUOUS
 62
9
 10
2.62082688919766
 20
10.0829278269022
 30
0.0
 11
2.66948973233715
 21
10.072584220298
 31
0.0
  0
LINE
  8
9
  6
CONTINUOUS
 62
9
 10
1.61348463055861
 20
9.87283647498942
 30
0.0
 11
1.62480937490371
 21
9.98058422028871
 31
0.0
  0
LINE
  8
9
  6
CONTINUOUS
 62
9
 10
1.57936048839146
 20
9.96034907228341
 30
0.0
 11
1.62480937490371
 21
9.98058422028871
 31
0.0
  0
LINE
  8
9
  6
CONTINUOUS
 62
9
 10
1.49220784346443
 20
10.8747002305989
 30
0.0
 11
1.54503633577864
 21
10.7793951076723
 31
0.0
  0
LINE
  8
9
  6
CONTINUOUS
 62
9
 10
1.57065947999518
 20
10.8220391808884
 30
0.0
 11
1.54503633577864
 21
10.7793951076723
 31
0.0
  0
LINE
  8
9
  6
CONTINUOUS
 62
9
 10
3.58363924451994
 20
12.7394732096911
 30
0.0
 11
3.48235993058352
 21
12.6308644423993
 31
0.0
  0
LINE
  8
9
  6
CONTINUOUS
 62
9
 10
3.53083484130766
 20
12.6196731274504
 30
0.0
 11
3.48235993058352
 21
12.6308644423993
 31
0.0
  0
LINE
  8
9
  6
CONTINUOUS
 62
9
 10
7.61068919242013
 20
13.8088224469541
 30
0.0
 11
7.56639744637658
 21
13.799407945694
 31
0.0
  0
LINE
  8
9
  6
CONTINUOUS
 62
9
 10
7.5966756063231
 20
13.7657806423491
 30
0.0
 11
7.56639744637658
 21
13.799407945694
 31
0.0
  0
LINE
  8
9
  6
CONTINUOUS
 62
9
 10
7.26302709497305
 20
15.1614835565417
 30
0.0
 11
7.33727897
 21
15.0328755365
 31
0.0
  0
LINE
  8
9
  6
CONTINUOUS
 62
9
 10
7.36215396998968
 20
15.0759603003442
 30
0.0
 11
7.33727897
 21
15.0328755365
 31
0.0
  0
LINE
  8
9
  6
CONTINUOUS
 62
9
 10
10.5504601300049
 20
15.3471450900815
 30
0.0
 11
10.4433202862147
 21
15.3584059414084
 31
0.0
  0
LINE
  8
9
  6
CONTINUOUS
 62
9
 10
10.4635554342179
 20
15.3129570548952
 30
0.0
 11
10.4433202862147
 21
15.3584059414084
 31
0.0
  0
LINE
  8
9
  6
CONTINUOUS
 62
9
 10
11.4875497672671
 20
15.3068142996422
 30
0.0
 11
11.4420179323089
 21
15.2091709644288
 31
0.0
  0
LINE
  8
9
  6
CONTINUOUS
 62
9
 10
11.4915786185381
 20
15.2135069626402
 30
0.0
 11
11.4420179323089
 21
15.2091709644288
 31
0.0
  0
LINE
  8
9
  6
CONTINUOUS
 62
9
 10
12.5504601300049
 20
15.3471450900815
 30
0.0
 11
12.4433202862147
 21
15.3584059414084
 31
0.0
  0
LINE
  8
9
  6
CONTINUOUS
 62
9
 10
12.4635554342179
 20
15.3129570548952
 30
0.0
 11
12.4433202862147
 21
15.3584059414084
 31
0.0
  0
LINE
  8
9
  6
CONTINUOUS
 62
9
 10
13.5504601300049
 20
15.3471450900815
 30
0.0
 11
13.4433202862147
 21
15.3584059414084
 31
0.0
  0
LINE
  8
9
  6
CONTINUOUS
 62
9
 10
13.4635554342179
 20
15.3129570548952
 30
0.0
 11
13.4433202862147
 21
15.3584059414084
 31
0.0
  0
LINE
  8
9
  6
CONTINUOUS
 62
9
 10
13.5876292782715
 20
14.333000858633
 30
0.0
 11
13.5075702862075
 21
14.4050862988389
 31
0.0
  0
LINE
  8
9
  6
CONTINUOUS
 62
9
 10
13.4972266796011
 20
14.3564234556999
 30
0.0
 11
13.5075702862075
 21
14.4050862988389
 31
0.0
  0
LINE
  8
9
  6
CONTINUOUS
 62
9
 10
12.607419915231
 20
14.2599896892736
 30
0.0
 11
12.651237653765
 21
14.3584059414364
 31
0.0
  0
LINE
  8
9
  6
CONTINUOUS
 62
9
 10
12.6017601894719
 20
14.353205650375
 30
0.0
 11
12.651237653765
 21
14.3584059414364
 31
0.0
  0
LINE
  8
9
  6
CONTINUOUS
 62
9
 10
11.607419915231
 20
14.2599896892736
 30
0.0
 11
11.651237653765
 21
14.3584059414364
 31
0.0
  0
LINE
  8
9
  6
CONTINUOUS
 62
9
 10
11.6017601894719
 20
14.353205650375
 30
0.0
 11
11.651237653765
 21
14.3584059414364
 31
0.0
  0
LINE
  8
9
  6
CONTINUOUS
 62
9
 10
10.607419915231
 20
14.2599896892736
 30
0.0
 11
10.651237653765
 21
14.3584059414364
 31
0.0
  0
LINE
  8
9
  6
CONTINUOUS
 62
9
 10
10.6017601894719
 20
14.353205650375
 30
0.0
 11
10.651237653765
 21
14.3584059414364
 31
0.0
  0
LINE
  8
9
  6
CONTINUOUS
 62
9
 10
11.5876292782715
 20
13.333000858633
 30
0.0
 11
11.5075702862075
 21
13.4050862988389
 31
0.0
  0
LINE
  8
9
  6
CONTINUOUS
 62
9
 10
11.4972266796011
 20
13.3564234556999
 30
0.0
 11
11.5075702862075
 21
13.4050862988389
 31
0.0
  0
LINE
  8
9
  6
CONTINUOUS
 62
9
 10
12.5504601300003
 20
13.3471450900817
 30
0.0
 11
12.4433202862093
 21
13.3584059414009
 31
0.0
  0
LINE
  8
9
  6
CONTINUOUS
 62
9
 10
12.4635554342158
 20
13.3129570548892
 30
0.0
 11
12.4433202862093
 21
13.3584059414009
 31
0.0
  0
LINE
  8
9
  6
CONTINUOUS
 62
9
 10
12.6093859802364
 20
12.2997104578255
 30
0.0
 11
12.586987653764
 21
12.4050862988482
 31
0.0
  0
LINE
  8
9
  6
CONTINUOUS
 62
9
 10
12.550016198704
 20
12.3717970511735
 30
0.0
 11
12.586987653764
 21
12.4050862988482
 31
0.0
  0
LINE
  8
9
  6
CONTINUOUS
 62
9
 10
11.607419915231
 20
12.2599896892736
 30
0.0
 11
11.651237653765
 21
12.3584059414364
 31
0.0
  0
LINE
  8
9
  6
CONTINUOUS
 62
9
 10
11.6017601894719
 20
12.353205650375
 30
0.0
 11
11.651237653765
 21
12.3584059414364
 31
0.0
  0
LINE
  8
9
  6
CONTINUOUS
 62
9
 10
10.0722597555302
 20
11.8432159277013
 30
0.0
 11
10.0905613791934
 21
11.8843220475054
 31
0.0
  0
LINE
  8
9
  6
CONTINUOUS
 62
9
 10
10.0458078939035
 20
11.8796182666431
 30
0.0
 11
10.0905613791934
 21
11.8843220475054
 31
0.0
  0
LINE
  8
9
  6
CONTINUOUS
 62
9
 10
8.49310834498456
 20
10.8732018112688
 30
0.0
 11
8.54727897
 21
10.7793755365
 31
0.0
  0
LINE
  8
9
  6
CONTINUOUS
 62
9
 10
8.57215396999162
 20
10.8224603003431
 30
0.0
 11
8.54727897
 21
10.7793755365
 31
0.0
  0
LINE
  8
9
  6
CONTINUOUS
 62
9
 10
9.07072322189388
 20
10.0927678639555
 30
0.0
 11
8.97174856507481
 21
10.1368342202731
 31
0.0
  0
LINE
  8
9
  6
CONTINUOUS
 62
9
 10
8.97694885613087
 20
10.0873567559794
 30
0.0
 11
8.97174856507481
 21
10.1368342202731
 31
0.0
  0
LINE
  8
9
  6
CONTINUOUS
 62
9
 10
10.0504601300049
 20
10.0971450900815
 30
0.0
 11
9.94332028621468
 21
10.1084059414084
 31
0.0
  0
LINE
  8
9
  6
CONTINUOUS
 62
9
 10
9.96355543421795
 20
10.0629570548952
 30
0.0
 11
9.94332028621468
 21
10.1084059414084
 31
0.0
  0
LINE
  8
9
  6
CONTINUOUS
 62
9
 10
10.0876292782715
 20
7.08300085863298
 30
0.0
 11
10.0075702862075
 21
7.15508629883893
 31
0.0
  0
LINE
  8
9
  6
CONTINUOUS
 62
9
 10
9.99722667960112
 20
7.10642345569991
 30
0.0
 11
10.0075702862075
 21
7.15508629883893
 31
0.0
  0
LINE
  8
9
  6
CONTINUOUS
 62
9
 10
9.10741991523137
 20
7.0099896892747
 30
0.0
 11
9.15123765376362
 21
7.10840594143825
 31
0.0
  0
LINE
  8
9
  6
CONTINUOUS
 62
9
 10
9.10176018947059
 20
7.10320565037598
 30
0.0
 11
9.15123765376362
 21
7.10840594143825
 31
0.0
  0
LINE
  8
9
  6
CONTINUOUS
 62
9
 10
8.60741991523096
 20
6.13498968927362
 30
0.0
 11
8.65123765376497
 21
6.23340594143639
 31
0.0
  0
LINE
  8
9
  6
CONTINUOUS
 62
9
 10
8.60176018947185
 20
6.228205650375
 30
0.0
 11
8.65123765376497
 21
6.23340594143639
 31
0.0
  0
LINE
  8
9
  6
CONTINUOUS
 62
9
 10
7.32884104846142
 20
6.81148355654169
 30
0.0
 11
7.40309292348837
 21
6.6828755365
 31
0.0
  0
LINE
  8
9
  6
CONTINUOUS
 62
9
 10
7.42796792347805
 20
6.72596030034423
 30
0.0
 11
7.40309292348837
 21
6.6828755365
 31
0.0
  0
LINE
  8
9
  6
CONTINUOUS
 62
9
 10
6.86955451461661
 20
7.79196717366299
 30
0.0
 11
6.94834873405693
 21
7.71849037535877
 31
0.0
  0
LINE
  8
9
  6
CONTINUOUS
 62
9
 10
6.95954004900109
 20
7.76696528608402
 30
0.0
 11
6.94834873405693
 21
7.71849037535877
 31
0.0
  0
LINE
  8
9
  6
CONTINUOUS
 62
9
 10
6.8695545146166
 20
9.17496717366299
 30
0.0
 11
6.94834873405693
 21
9.10149037535877
 31
0.0
  0
LINE
  8
9
  6
CONTINUOUS
 62
9
 10
6.95954004900108
 20
9.14996528608402
 30
0.0
 11
6.94834873405693
 21
9.10149037535877
 31
0.0
  0
LINE
  8
9
  6
CONTINUOUS
 62
9
 10
7.55719893925577
 20
5.09674040208642
 30
0.0
 11
7.5158324589973
 21
5.11515794569539
 31
0.0
  0
LINE
  8
9
  6
CONTINUOUS
 62
9
 10
7.52056237197273
 20
5.07015582993129
 30
0.0
 11
7.5158324589973
 21
5.11515794569539
 31
0.0
  0
LINE
  8
9
  6
CONTINUOUS
 62
9
 10
11.9715308450038
 20
3.40426751644497
 30
0.0
 11
11.89727897
 21
3.5328755365
 31
0.0
  0
LINE
  8
9
  6
CONTINUOUS
 62
9
 10
11.8724039700026
 20
3.48979077266023
 30
0.0
 11
11.89727897
 21
3.5328755365
 31
0.0
  0
LINE
  8
9
  6
CONTINUOUS
 62
9
 10
7.57225975553024
 20
2.52321592770126
 30
0.0
 11
7.59056137919341
 21
2.56432204750542
 31
0.0
  0
LINE
  8
9
  6
CONTINUOUS
 62
9
 10
7.54580789390345
 20
2.55961826664306
 30
0.0
 11
7.59056137919341
 21
2.56432204750542
 31
0.0
  0
LINE
  8
9
  6
CONTINUOUS
 62
9
 10
7.36649208531393
 20
1.90426751644497
 30
0.0
 11
7.29224021031008
 21
2.0328755365
 31
0.0
  0
LINE
  8
9
  6
CONTINUOUS
 62
9
 10
7.26736521031266
 20
1.98979077266023
 30
0.0
 11
7.29224021031008
 21
2.0328755365
 31
0.0
  0
LINE
  8
9
  6
CONTINUOUS
 62
9
 10
8.5489467450276
 20
1.31397155378208
 30
0.0
 11
8.49695811294594
 21
1.31943577918717
 31
0.0
  0
LINE
  8
9
  6
CONTINUOUS
 62
9
 10
8.51719326095101
 20
1.27398689267481
 30
0.0
 11
8.49695811294594
 21
1.31943577918717
 31
0.0
  0
LINE
  8
9
  6
CONTINUOUS
 62
9
 10
11.4975626539424
 20
4.19368009204997
 30
0.0
 11
11.4250682076625
 21
4.11316685270307
 31
0.0
  0
LINE
  8
9
  6
CONTINUOUS
 62
9
 10
11.4737310508008
 20
4.10282324609348
 30
0.0
 11
11.4250682076625
 21
4.11316685270307
 31
0.0
  0
LINE
  8
9
  6
CONTINUOUS
 62
9
 10
12.5504601300003
 20
4.21714509008173
 30
0.0
 11
12.4433202862093
 21
4.22840594140091
 31
0.0
  0
LINE
  8
9
  6
CONTINUOUS
 62
9
 10
12.4635554342158
 20
4.18295705488921
 30
0.0
 11
12.4433202862093
 21
4.22840594140091
 31
0.0
  0
LINE
  8
9
  6
CONTINUOUS
 62
9
 10
12.4931083449877
 20
5.11820181126398
 30
0.0
 11
12.5472789700115
 21
5.0243755365
 31
0.0
  0
LINE
  8
9
  6
CONTINUOUS
 62
9
 10
12.5721539699993
 20
5.06746030034535
 30
0.0
 11
12.5472789700115
 21
5.0243755365
 31
0.0
  0
LINE
  8
9
  6
CONTINUOUS
 62
9
 10
11.5429691920265
 20
5.08867220439247
 30
0.0
 11
11.6499036330411
 21
5.07554230602501
 31
0.0
  0
LINE
  8
9
  6
CONTINUOUS
 62
9
 10
11.6304647593898
 20
5.12133742248048
 30
0.0
 11
11.6499036330411
 21
5.07554230602501
 31
0.0
  0
LINE
  8
9
  6
CONTINUOUS
 62
9
 10
14.1093859802352
 20
7.04971045782999
 30
0.0
 11
14.0869876537552
 21
7.15508629885106
 31
0.0
  0
LINE
  8
9
  6
CONTINUOUS
 62
9
 10
14.0500161986976
 20
7.12179705117372
 30
0.0
 11
14.0869876537552
 21
7.15508629885106
 31
0.0
  0
LINE
  8
9
  6
CONTINUOUS
 62
9
 10
15.0504601300049
 20
7.0971450900815
 30
0.0
 11
14.9433202862147
 21
7.10840594140838
 31
0.0
  0
LINE
  8
9
  6
CONTINUOUS
 62
9
 10
14.9635554342179
 20
7.06295705489522
 30
0.0
 11
14.9433202862147
 21
7.10840594140838
 31
0.0
  0
LINE
  8
9
  6
CONTINUOUS
 62
9
 10
15.5876292782688
 20
6.20800085863515
 30
0.0
 11
15.5075702862009
 21
6.28008629883679
 31
0.0
  0
LINE
  8
9
  6
CONTINUOUS
 62
9
 10
15.4972266795972
 20
6.23142345569721
 30
0.0
 11
15.5075702862009
 21
6.28008629883679
 31
0.0
  0
LINE
  8
9
  6
CONTINUOUS
 62
9
 10
16.0896486865369
 20
6.79348615218227
 30
0.0
 11
16.1316355234958
 21
6.68410670244995
 31
0.0
  0
LINE
  8
9
  6
CONTINUOUS
 62
9
 10
16.1629442129387
 20
6.72276971404205
 30
0.0
 11
16.1316355234958
 21
6.68410670244995
 31
0.0
  0
LINE
  8
9
  6
CONTINUOUS
 62
9
 10
16.0843698870162
 20
5.26845401498844
 30
0.0
 11
16.1115958210461
 21
5.32960446406649
 31
0.0
  0
LINE
  8
9
  6
CONTINUOUS
 62
9
 10
16.062118356753
 20
5.32440417300455
 30
0.0
 11
16.1115958210461
 21
5.32960446406649
 31
0.0
  0
LINE
  8
9
  6
CONTINUOUS
 62
9
 10
17.1287078434629
 20
7.80820023060139
 30
0.0
 11
17.1815363357729
 21
7.7128951076724
 31
0.0
  0
LINE
  8
9
  6
CONTINUOUS
 62
9
 10
17.2071594799913
 20
7.75553918088733
 30
0.0
 11
17.1815363357729
 21
7.7128951076724
 31
0.0
  0
LINE
  8
9
  6
CONTINUOUS
 62
9
 10
17.1425545146166
 20
9.17496717366299
 30
0.0
 11
17.2213487340569
 21
9.10149037535877
 31
0.0
  0
LINE
  8
9
  6
CONTINUOUS
 62
9
 10
17.2325400490011
 20
9.14996528608402
 30
0.0
 11
17.2213487340569
 21
9.10149037535877
 31
0.0
  0
LINE
  8
9
  6
CONTINUOUS
 62
9
 10
15.0969952860518
 20
9.99207098095605
 30
0.0
 11
15.1694897323372
 21
10.072584220298
 31
0.0
  0
LINE
  8
9
  6
CONTINUOUS
 62
9
 10
15.1208268891977
 20
10.0829278269022
 30
0.0
 11
15.1694897323372
 21
10.072584220298
 31
0.0
  0
LINE
  8
9
  6
CONTINUOUS
 62
9
 10
14.0429691920265
 20
9.96867220439247
 30
0.0
 11
14.1499036330411
 21
9.95554230602501
 31
0.0
  0
LINE
  8
9
  6
CONTINUOUS
 62
9
 10
14.1304647593898
 20
10.0013374224805
 30
0.0
 11
14.1499036330411
 21
9.95554230602501
 31
0.0
  0
LINE
  8
9
  6
CONTINUOUS
 62
9
 10
15.5310419413959
 20
10.9701096327577
 30
0.0
 11
15.4250682076522
 21
10.9475842202651
 31
0.0
  0
LINE
  8
9
  6
CONTINUOUS
 62
9
 10
15.4583574553265
 20
10.9106127652048
 30
0.0
 11
15.4250682076522
 21
10.9475842202651
 31
0.0
  0
LINE
  8
9
  6
CONTINUOUS
 62
9
 10
16.4569984037907
 20
11.8703502601022
 30
0.0
 11
16.4261166655573
 21
11.8372336502932
 31
0.0
  0
LINE
  8
9
  6
CONTINUOUS
 62
9
 10
16.4699633184736
 20
11.8271108528519
 30
0.0
 11
16.4261166655573
 21
11.8372336502932
 31
0.0
  0
LINE
  8
9
  6
CONTINUOUS
 62
9
 10
18.1348348468319
 20
13.4886495693104
 30
0.0
 11
17.9895762600522
 21
13.4577739036364
 31
0.0
  0
LINE
  8
9
  6
CONTINUOUS
 62
9
 10
18.022865507699
 20
13.4208024485512
 30
0.0
 11
17.9895762600522
 21
13.4577739036364
 31
0.0
  0
LINE
  8
9
  6
CONTINUOUS
 62
9
 10
22.5504601300095
 20
10.9721450900813
 30
0.0
 11
22.4433202862201
 21
10.9834059414158
 31
0.0
  0
LINE
  8
9
  6
CONTINUOUS
 62
9
 10
22.4635554342201
 20
10.9379570549012
 30
0.0
 11
22.4433202862201
 21
10.9834059414158
 31
0.0
  0
LINE
  8
9
  6
CONTINUOUS
 62
9
 10
22.5856292782715
 20
9.92675085863298
 30
0.0
 11
22.5055702862075
 21
9.99883629883894
 31
0.0
  0
LINE
  8
9
  6
CONTINUOUS
 62
9
 10
22.4952266796011
 20
9.95017345569991
 30
0.0
 11
22.5055702862075
 21
9.99883629883894
 31
0.0
  0
LINE
  8
9
  6
CONTINUOUS
 62
9
 10
21.607419915231
 20
10.0099896892736
 30
0.0
 11
21.651237653765
 21
10.1084059414364
 31
0.0
  0
LINE
  8
9
  6
CONTINUOUS
 62
9
 10
21.6017601894719
 20
10.103205650375
 30
0.0
 11
21.651237653765
 21
10.1084059414364
 31
0.0
  0
LINE
  8
9
  6
CONTINUOUS
 62
9
 10
19.6018859802352
 20
9.24121045782999
 30
0.0
 11
19.5794876537552
 21
9.34658629885106
 31
0.0
  0
LINE
  8
9
  6
CONTINUOUS
 62
9
 10
19.5425161986976
 20
9.31329705117372
 30
0.0
 11
19.5794876537552
 21
9.34658629885106
 31
0.0
  0
LINE
  8
9
  6
CONTINUOUS
 62
9
 10
19.5801292782688
 20
7.89150085863515
 30
0.0
 11
19.5000702862009
 21
7.96358629883679
 31
0.0
  0
LINE
  8
9
  6
CONTINUOUS
 62
9
 10
19.4897266795972
 20
7.91492345569721
 30
0.0
 11
19.5000702862009
 21
7.96358629883679
 31
0.0
  0
LINE
  8
9
  6
CONTINUOUS
 62
9
 10
21.5222254482796
 20
6.97366615422883
 30
0.0
 11
21.6209835420712
 21
6.9276144988089
 31
0.0
  0
LINE
  8
9
  6
CONTINUOUS
 62
9
 10
21.6166475438598
 20
6.97717518503812
 30
0.0
 11
21.6209835420712
 21
6.9276144988089
 31
0.0
  0
LINE
  8
9
  6
CONTINUOUS
 62
9
 10
22.6094846305587
 20
7.18533647499115
 30
0.0
 11
22.6208093749009
 21
7.29308422029075
 31
0.0
  0
LINE
  8
9
  6
CONTINUOUS
 62
9
 10
22.5753604883892
 20
7.27284907228422
 30
0.0
 11
22.6208093749009
 21
7.29308422029075
 31
0.0
  0
LINE
  8
9
  6
CONTINUOUS
 62
9
 10
22.6093859802364
 20
6.17471045782553
 30
0.0
 11
22.586987653764
 21
6.2800862988482
 31
0.0
  0
LINE
  8
9
  6
CONTINUOUS
 62
9
 10
22.550016198704
 20
6.24679705117352
 30
0.0
 11
22.586987653764
 21
6.2800862988482
 31
0.0
  0
LINE
  8
9
  6
CONTINUOUS
 62
9
 10
22.0808827200039
 20
5.30417213418362
 30
0.0
 11
22.0472789699893
 21
5.3623755365
 31
0.0
  0
LINE
  8
9
  6
CONTINUOUS
 62
9
 10
22.0224039700014
 20
5.31929077265472
 30
0.0
 11
22.0472789699893
 21
5.3623755365
 31
0.0
  0
LINE
  8
9
  6
CONTINUOUS
 62
9
 10
20.0564749878307
 20
5.24416907265303
 30
0.0
 11
20.1224476967602
 21
5.25699286822069
 31
0.0
  0
LINE
  8
9
  6
CONTINUOUS
 62
9
 10
20.0898087600606
 20
5.29453966983041
 30
0.0
 11
20.1224476967602
 21
5.25699286822069
 31
0.0
  0
LINE
  8
9
  6
CONTINUOUS
 62
9
 10
20.0724563757023
 20
2.31369459959266
 30
0.0
 11
20.0227121189336
 21
2.35848452954105
 31
0.0
  0
LINE
  8
9
  6
CONTINUOUS
 62
9
 10
20.0123685123313
 20
2.30982168640117
 30
0.0
 11
20.0227121189336
 21
2.35848452954105
 31
0.0
  0
LINE
  8
9
  6
CONTINUOUS
 62
9
 10
22.0102789864238
 20
2.29758532861832
 30
0.0
 11
21.982156382479
 21
2.23727620981006
 31
0.0
  0
LINE
  8
9
  6
CONTINUOUS
 62
9
 10
22.0317170687083
 20
2.24161220802142
 30
0.0
 11
21.982156382479
 21
2.23727620981006
 31
0.0
  0
LINE
  8
9
  6
CONTINUOUS
 62
9
 10
17.5090563352204
 20
1.88272260138051
 30
0.0
 11
17.4781806694205
 21
2.02798118813352
 31
0.0
  0
LINE
  8
9
  6
CONTINUOUS
 62
9
 10
17.4412092143642
 20
1.99469194045471
 30
0.0
 11
17.4781806694205
 21
2.02798118813352
 31
0.0
  0
LINE
  8
9
  6
CONTINUOUS
 62
9
 10
16.0447227500692
 20
2.24314088526875
 30
0.0
 11
16.1107704930488
 21
2.23503124215944
 31
0.0
  0
LINE
  8
9
  6
CONTINUOUS
 62
9
 10
16.0913316193975
 20
2.28082635861491
 30
0.0
 11
16.1107704930488
 21
2.23503124215944
 31
0.0
  0
LINE
  8
9
  6
CONTINUOUS
 62
9
 10
15.576337669041
 20
1.27168019039579
 30
0.0
 11
15.5975998270449
 21
1.31943577919982
 31
0.0
  0
LINE
  8
9
  6
CONTINUOUS
 62
9
 10
15.5481223627519
 20
1.31423548813736
 30
0.0
 11
15.5975998270449
 21
1.31943577919982
 31
0.0
  0
LINE
  8
9
  6
CONTINUOUS
 62
9
 10
14.0212753844714
 20
13.7764598348558
 30
0.0
 11
14.0298610737393
 21
13.7322902927045
 31
0.0
  0
LINE
  8
9
  6
CONTINUOUS
 62
9
 10
14.063823004842
 20
13.7618129490175
 30
0.0
 11
14.0298610737393
 21
13.7322902927045
 31
0.0
  0
LINE
  8
9
  6
CONTINUOUS
 62
9
 10
16.6530270949731
 20
15.1614835565417
 30
0.0
 11
16.72727897
 21
15.0328755365
 31
0.0
  0
LINE
  8
9
  6
CONTINUOUS
 62
9
 10
16.7521539699897
 20
15.0759603003442
 30
0.0
 11
16.72727897
 21
15.0328755365
 31
0.0
  0
LINE
  8
0
  6
CONTINUOUS
 62
0
 10
1.04727896988776
 20
0.906547001743291
 30
0.0
 11
16.6530270949731
 21
15.1614835565417
 31
0.0
  0
LINE
  8
0
  6
CONTINUOUS
 62
0
 10
16.7521539699897
 20
15.0759603003442
 30
0.0
 11
14.0212753844714
 21
13.7764598348558
 31
0.0
  0
LINE
  8
0
  6
CONTINUOUS
 62
0
 10
14.063823004842
 20
13.7618129490175
 30
0.0
 11
15.576337669041
 21
1.27168019039579
 31
0.0
  0
LINE
  8
0
  6
CONTINUOUS
 62
0
 10
15.5481223627519
 20
1.31423548813736
 30
0.0
 11
16.0447227500692
 21
2.24314088526875
 31
0.0
  0
LINE
  8
0
  6
CONTINUOUS
 62
0
 10
16.0913316193975
 20
2.28082635861491
 30
0.0
 11
17.5090563352204
 21
1.88272260138051
 31
0.0
  0
LINE
  8
0
  6
CONTINUOUS
 62
0
 10
17.4412092143642
 20
1.99469194045471
 30
0.0
 11
22.0102789864238
 21
2.29758532861832
 31
0.0
  0
LINE
  8
0
  6
CONTINUOUS
 62
0
 10
22.0317170687083
 20
2.24161220802142
 30
0.0
 11
20.0724563757023
 21
2.31369459959266
 31
0.0
  0
LINE
  8
0
  6
CONTINUOUS
 62
0
 10
20.0123685123313
 20
2.30982168640117
 30
0.0
 11
20.0564749878307
 21
5.24416907265303
 31
0.0
  0
LINE
  8
0
  6
CONTINUOUS
 62
0
 10
20.0898087600606
 20
5.29453966983041
 30
0.0
 11
22.0808827200039
 21
5.30417213418362
 31
0.0
  0
LINE
  8
0
  6
CONTINUOUS
 62
0
 10
22.0224039700014
 20
5.31929077265472
 30
0.0
 11
22.6093859802364
 21
6.17471045782553
 31
0.0
  0
LINE
  8
0
  6
CONTINUOUS
 62
0
 10
22.550016198704
 20
6.24679705117352
 30
0.0
 11
22.6094846305587
 21
7.18533647499115
 31
0.0
  0
LINE
  8
0
  6
CONTINUOUS
 62
0
 10
22.5753604883892
 20
7.27284907228422
 30
0.0
 11
21.5222254482796
 21
6.97366615422883
 31
0.0
  0
LINE
  8
0
  6
CONTINUOUS
 62
0
 10
21.6166475438598
 20
6.97717518503812
 30
0.0
 11
19.5801292782688
 21
7.89150085863515
 31
0.0
  0
LINE
  8
0
  6
CONTINUOUS
 62
0
 10
19.4897266795972
 20
7.91492345569721
 30
0.0
 11
19.6018859802352
 21
9.24121045782999
 31
0.0
  0
LINE
  8
0
  6
CONTINUOUS
 62
0
 10
19.5425161986976
 20
9.31329705117372
 30
0.0
 11
21.607419915231
 21
10.0099896892736
 31
0.0
  0
LINE
  8
0
  6
CONTINUOUS
 62
0
 10
21.6017601894719
 20
10.103205650375
 30
0.0
 11
22.5856292782715
 21
9.92675085863298
 31
0.0
  0
LINE
  8
0
  6
CONTINUOUS
 62
0
 10
22.4952266796011
 20
9.95017345569991
 30
0.0
 11
22.5504601300095
 21
10.9721450900813
 31
0.0
  0
LINE
  8
0
  6
CONTINUOUS
 62
0
 10
22.4635554342201
 20
10.9379570549012
 30
0.0
 11
18.1348348468319
 21
13.4886495693104
 31
0.0
  0
LINE
  8
0
  6
CONTINUOUS
 62
0
 10
18.022865507699
 20
13.4208024485512
 30
0.0
 11
16.4569984037907
 21
11.8703502601022
 31
0.0
  0
LINE
  8
0
  6
CONTINUOUS
 62
0
 10
16.4699633184736
 20
11.8271108528519
 30
0.0
 11
15.5310419413959
 21
10.9701096327577
 31
0.0
  0
LINE
  8
0
  6
CONTINUOUS
 62
0
 10
15.4583574553265
 20
10.9106127652048
 30
0.0
 11
14.0429691920265
 21
9.96867220439247
 31
0.0
  0
LINE
  8
0
  6
CONTINUOUS
 62
0
 10
14.1304647593898
 20
10.0013374224805
 30
0.0
 11
15.0969952860518
 21
9.99207098095605
 31
0.0
  0
LINE
  8
0
  6
CONTINUOUS
 62
0
 10
15.1208268891977
 20
10.0829278269022
 30
0.0
 11
17.1425545146166
 21
9.17496717366299
 31
0.0
  0
LINE
  8
0
  6
CONTINUOUS
 62
0
 10
17.2325400490011
 20
9.14996528608402
 30
0.0
 11
17.1287078434629
 21
7.80820023060139
 31
0.0
  0
LINE
  8
0
  6
CONTINUOUS
 62
0
 10
17.2071594799913
 20
7.75553918088733
 30
0.0
 11
16.0843698870162
 21
5.26845401498844
 31
0.0
  0
LINE
  8
0
  6
CONTINUOUS
 62
0
 10
16.062118356753
 20
5.32440417300455
 30
0.0
 11
16.0896486865369
 21
6.79348615218227
 31
0.0
  0
LINE
  8
0
  6
CONTINUOUS
 62
0
 10
16.1629442129387
 20
6.72276971404205
 30
0.0
 11
15.5876292782688
 21
6.20800085863515
 31
0.0
  0
LINE
  8
0
  6
CONTINUOUS
 62
0
 10
15.4972266795972
 20
6.23142345569721
 30
0.0
 11
15.0504601300049
 21
7.0971450900815
 31
0.0
  0
LINE
  8
0
  6
CONTINUOUS
 62
0
 10
14.9635554342179
 20
7.06295705489522
 30
0.0
 11
14.1093859802352
 21
7.04971045782999
 31
0.0
  0
LINE
  8
0
  6
CONTINUOUS
 62
0
 10
14.0500161986976
 20
7.12179705117372
 30
0.0
 11
11.5429691920265
 21
5.08867220439247
 31
0.0
  0
LINE
  8
0
  6
CONTINUOUS
 62
0
 10
11.6304647593898
 20
5.12133742248048
 30
0.0
 11
12.4931083449877
 21
5.11820181126398
 31
0.0
  0
LINE
  8
0
  6
CONTINUOUS
 62
0
 10
12.5721539699993
 20
5.06746030034535
 30
0.0
 11
12.5504601300003
 21
4.21714509008173
 31
0.0
  0
LINE
  8
0
  6
CONTINUOUS
 62
0
 10
12.4635554342158
 20
4.18295705488921
 30
0.0
 11
11.4975626539424
 21
4.19368009204997
 31
0.0
  0
LINE
  8
0
  6
CONTINUOUS
 62
0
 10
11.4737310508008
 20
4.10282324609348
 30
0.0
 11
8.5489467450276
 21
1.31397155378208
 31
0.0
  0
LINE
  8
0
  6
CONTINUOUS
 62
0
 10
8.51719326095101
 20
1.27398689267481
 30
0.0
 11
7.36649208531393
 21
1.90426751644497
 31
0.0
  0
LINE
  8
0
  6
CONTINUOUS
 62
0
 10
7.26736521031266
 20
1.98979077266023
 30
0.0
 11
7.57225975553024
 21
2.52321592770126
 31
0.0
  0
LINE
  8
0
  6
CONTINUOUS
 62
0
 10
7.54580789390345
 20
2.55961826664306
 30
0.0
 11
11.9715308450038
 21
3.40426751644497
 31
0.0
  0
LINE
  8
0
  6
CONTINUOUS
 62
0
 10
11.8724039700026
 20
3.48979077266023
 30
0.0
 11
7.55719893925577
 21
5.09674040208642
 31
0.0
  0
LINE
  8
0
  6
CONTINUOUS
 62
0
 10
7.52056237197273
 20
5.07015582993129
 30
0.0
 11
6.8695545146166
 21
9.17496717366299
 31
0.0
  0
LINE
  8
0
  6
CONTINUOUS
 62
0
 10
6.95954004900108
 20
9.14996528608402
 30
0.0
 11
6.86955451461661
 21
7.79196717366299
 31
0.0
  0
LINE
  8
0
  6
CONTINUOUS
 62
0
 10
6.95954004900109
 20
7.76696528608402
 30
0.0
 11
7.32884104846142
 21
6.81148355654169
 31
0.0
  0
LINE
  8
0
  6
CONTINUOUS
 62
0
 10
7.42796792347805
 20
6.72596030034423
 30
0.0
 11
8.60741991523096
 21
6.13498968927362
 31
0.0
  0
LINE
  8
0
  6
CONTINUOUS
 62
0
 10
8.60176018947185
 20
6.228205650375
 30
0.0
 11
9.10741991523137
 21
7.0099896892747
 31
0.0
  0
LINE
  8
0
  6
CONTINUOUS
 62
0
 10
9.10176018947059
 20
7.10320565037598
 30
0.0
 11
10.0876292782715
 21
7.08300085863298
 31
0.0
  0
LINE
  8
0
  6
CONTINUOUS
 62
0
 10
9.99722667960112
 20
7.10642345569991
 30
0.0
 11
10.0504601300049
 21
10.0971450900815
 31
0.0
  0
LINE
  8
0
  6
CONTINUOUS
 62
0
 10
9.96355543421795
 20
10.0629570548952
 30
0.0
 11
9.07072322189388
 21
10.0927678639555
 31
0.0
  0
LINE
  8
0
  6
CONTINUOUS
 62
0
 10
8.97694885613087
 20
10.0873567559794
 30
0.0
 11
8.49310834498456
 21
10.8732018112688
 31
0.0
  0
LINE
  8
0
  6
CONTINUOUS
 62
0
 10
8.57215396999162
 20
10.8224603003431
 30
0.0
 11
10.0722597555302
 21
11.8432159277013
 31
0.0
  0
LINE
  8
0
  6
CONTINUOUS
 62
0
 10
10.0458078939035
 20
11.8796182666431
 30
0.0
 11
11.607419915231
 21
12.2599896892736
 31
0.0
  0
LINE
  8
0
  6
CONTINUOUS
 62
0
 10
11.6017601894719
 20
12.353205650375
 30
0.0
 11
12.6093859802364
 21
12.2997104578255
 31
0.0
  0
LINE
  8
0
  6
CONTINUOUS
 62
0
 10
12.550016198704
 20
12.3717970511735
 30
0.0
 11
12.5504601300003
 21
13.3471450900817
 31
0.0
  0
LINE
  8
0
  6
CONTINUOUS
 62
0
 10
12.4635554342158
 20
13.3129570548892
 30
0.0
 11
11.5876292782715
 21
13.333000858633
 31
0.0
  0
LINE
  8
0
  6
CONTINUOUS
 62
0
 10
11.4972266796011
 20
13.3564234556999
 30
0.0
 11
10.607419915231
 21
14.2599896892736
 31
0.0
  0
LINE
  8
0
  6
CONTINUOUS
 62
0
 10
10.6017601894719
 20
14.353205650375
 30
0.0
 11
11.607419915231
 21
14.2599896892736
 31
0.0
  0
LINE
  8
0
  6
CONTINUOUS
 62
0
 10
11.6017601894719
 20
14.353205650375
 30
0.0
 11
12.607419915231
 21
14.2599896892736
 31
0.0
  0
LINE
  8
0
  6
CONTINUOUS
 62
0
 10
12.6017601894719
 20
14.353205650375
 30
0.0
 11
13.5876292782715
 21
14.333000858633
 31
0.0
  0
LINE
  8
0
  6
CONTINUOUS
 62
0
 10
13.4972266796011
 20
14.3564234556999
 30
0.0
 11
13.5504601300049
 21
15.3471450900815
 31
0.0
  0
LINE
  8
0
  6
CONTINUOUS
 62
0
 10
13.4635554342179
 20
15.3129570548952
 30
0.0
 11
12.5504601300049
 21
15.3471450900815
 31
0.0
  0
LINE
  8
0
  6
CONTINUOUS
 62
0
 10
12.4635554342179
 20
15.3129570548952
 30
0.0
 11
11.4875497672671
 21
15.3068142996422
 31
0.0
  0
LINE
  8
0
  6
CONTINUOUS
 62
0
 10
11.4915786185381
 20
15.2135069626402
 30
0.0
 11
10.5504601300049
 21
15.3471450900815
 31
0.0
  0
LINE
  8
0
  6
CONTINUOUS
 62
0
 10
10.4635554342179
 20
15.3129570548952
 30
0.0
 11
7.26302709497305
 21
15.1614835565417
 31
0.0
  0
LINE
  8
0
  6
CONTINUOUS
 62
0
 10
7.36215396998968
 20
15.0759603003442
 30
0.0
 11
7.61068919242013
 21
13.8088224469541
 31
0.0
  0
LINE
  8
0
  6
CONTINUOUS
 62
0
 10
7.5966756063231
 20
13.7657806423491
 30
0.0
 11
3.58363924451994
 21
12.7394732096911
 31
0.0
  0
LINE
  8
0
  6
CONTINUOUS
 62
0
 10
3.53083484130766
 20
12.6196731274504
 30
0.0
 11
1.49220784346443
 21
10.8747002305989
 31
0.0
  0
LINE
  8
0
  6
CONTINUOUS
 62
0
 10
1.57065947999518
 20
10.8220391808884
 30
0.0
 11
1.61348463055861
 21
9.87283647498942
 31
0.0
  0
LINE
  8
0
  6
CONTINUOUS
 62
0
 10
1.57936048839146
 20
9.96034907228341
 30
0.0
 11
2.59699528605177
 21
9.99207098095605
 31
0.0
  0
LINE
  8
0
  6
CONTINUOUS
 62
0
 10
2.62082688919766
 20
10.0829278269022
 30
0.0
 11
4.49970784346443
 21
9.19120023059892
 31
0.0
  0
LINE
  8
0
  6
CONTINUOUS
 62
0
 10
4.57815947999519
 20
9.13853918088838
 30
0.0
 11
4.6168859802352
 21
7.85821045782999
 31
0.0
  0
LINE
  8
0
  6
CONTINUOUS
 62
0
 10
4.55751619869763
 20
7.93029705117371
 30
0.0
 11
1.58762927827152
 21
6.20800085863298
 31
0.0
  0
LINE
  8
0
  6
CONTINUOUS
 62
0
 10
1.49722667960111
 20
6.23142345569991
 30
0.0
 11
1.60941991523096
 21
7.16623968927362
 31
0.0
  0
LINE
  8
0
  6
CONTINUOUS
 62
0
 10
1.60376018947185
 20
7.259455650375
 30
0.0
 11
2.54409780998846
 21
6.96860598291055
 31
0.0
  0
LINE
  8
0
  6
CONTINUOUS
 62
0
 10
2.63100250577586
 20
7.0027940180957
 30
0.0
 11
3.80127538447141
 21
5.06545983485582
 31
0.0
  0
LINE
  8
0
  6
CONTINUOUS
 62
0
 10
3.84382300484197
 20
5.05081294901752
 30
0.0
 11
3.80127538447106
 21
2.52645983485722
 31
0.0
  0
LINE
  8
0
  6
CONTINUOUS
 62
0
 10
3.84382300484083
 20
2.51181294901663
 30
0.0
 11
1.94406348935916
 21
0.906547001743291
 31
0.0
  0
ARC
  8
2
  6
CONTINUOUS
 62
2
 10
2.04727896979796
 20
2.03287553547128
 30
0.0
 40
0.999999998859037
 50
261.000000001286
 51
270.000000011576
  0
ARC
  8
2
  6
CONTINUOUS
 62
2
 10
2.04727896978262
 20
2.03287553652245
 30
0.0
 40
0.999999999894863
 50
180.000000001286
 51
261.000000011576
  0
ARC
  8
3
  6
CONTINUOUS
 62
3
 10
3.82727897
 20
2.5328755365
 30
0.0
 40
0.0534999999999998
 50
251.000000000029
 51
1.0290596461179E-8
  0
ARC
  8
3
  6
CONTINUOUS
 62
3
 10
3.82727896999327
 20
2.5328755364952
 30
0.0
 40
0.0534999999932647
 50
179.999999994855
 51
251.000000005173
  0
ARC
  8
3
  6
CONTINUOUS
 62
3
 10
3.82727897000343
 20
5.0718755364952
 30
0.0
 40
0.0534999999965725
 50
250.99999999797
 51
5.14512054194474E-9
  0
ARC
  8
3
  6
CONTINUOUS
 62
3
 10
3.82727896999326
 20
5.0718755364952
 30
0.0
 40
0.0534999999932641
 50
180
 51
251.00000000826
  0
ARC
  8
3
  6
CONTINUOUS
 62
3
 10
2.54727897003551
 20
7.03287553648846
 30
0.0
 40
0.128499999964487
 50
323.999999995884
 51
5.14501876419493E-9
  0
ARC
  8
3
  6
CONTINUOUS
 62
3
 10
2.54727896999625
 20
7.03287553648846
 30
0.0
 40
0.128499999996251
 50
180
 51
324.000000006173
  0
ARC
  8
3
  6
CONTINUOUS
 62
3
 10
1.54927896999625
 20
7.18912553651154
 30
0.0
 40
0.128499999996252
 50
36.0000000144055
 51
180.00000001029
  0
ARC
  8
3
  6
CONTINUOUS
 62
3
 10
1.54927897003551
 20
7.18912553651154
 30
0.0
 40
0.128499999964489
 50
5.14506965306984E-9
 51
36.0000000246957
  0
ARC
  8
3
  6
CONTINUOUS
 62
3
 10
1.54727896998412
 20
6.15787553651154
 30
0.0
 40
0.128499999984119
 50
108.000000012348
 51
180.00000001029
  0
ARC
  8
3
  6
CONTINUOUS
 62
3
 10
1.54727897000838
 20
6.15787553651154
 30
0.0
 40
0.128499999991617
 50
5.14506965306984E-9
 51
108.000000022638
  0
ARC
  8
3
  6
CONTINUOUS
 62
3
 10
4.55477896999162
 20
7.84137553651154
 30
0.0
 40
0.128499999991615
 50
72.000000015434
 51
180.000000015434
  0
ARC
  8
3
  6
CONTINUOUS
 62
3
 10
4.55477897001588
 20
7.84137553651154
 30
0.0
 40
0.128499999984117
 50
5.14522231969455E-9
 51
72.0000000257245
  0
ARC
  8
3
  6
CONTINUOUS
 62
3
 10
4.55477897001134
 20
9.22437553648846
 30
0.0
 40
0.128499999988661
 50
268.999999997456
 51
5.14496787532003E-9
  0
ARC
  8
3
  6
CONTINUOUS
 62
3
 10
4.55477896998826
 20
9.22437553648846
 30
0.0
 40
0.128499999988258
 50
180
 51
269.000000007746
  0
ARC
  8
3
  6
CONTINUOUS
 62
3
 10
2.54727896999817
 20
10.0328755365115
 30
0.0
 40
0.128499999998172
 50
18.0000000149197
 51
180.000000010289
  0
ARC
  8
3
  6
CONTINUOUS
 62
3
 10
2.54727897007285
 20
10.0328755365115
 30
0.0
 40
0.128499999927151
 50
5.1445607643208E-9
 51
18.0000000252095
  0
ARC
  8
3
  6
CONTINUOUS
 62
3
 10
1.54927896999412
 20
9.87662553651154
 30
0.0
 40
0.128499999994121
 50
54.0000000138911
 51
180.00000001029
  0
ARC
  8
3
  6
CONTINUOUS
 62
3
 10
1.54927897002265
 20
9.87662553651154
 30
0.0
 40
0.128499999977354
 50
5.14522231969455E-9
 51
54.0000000241813
  0
ARC
  8
3
  6
CONTINUOUS
 62
3
 10
1.54727897001134
 20
10.9078755364885
 30
0.0
 40
0.12849999998866
 50
268.999999997456
 51
5.14491698644513E-9
  0
ARC
  8
3
  6
CONTINUOUS
 62
3
 10
1.54727896998826
 20
10.9078755364885
 30
0.0
 40
0.128499999988257
 50
180
 51
269.000000007746
  0
ARC
  8
2
  6
CONTINUOUS
 62
2
 10
4.79727897001845
 20
13.0328755363765
 30
0.0
 40
1.37499999998155
 50
196.999999999514
 51
5.14512054194474E-9
  0
ARC
  8
2
  6
CONTINUOUS
 62
2
 10
4.79727896917385
 20
13.0328755363765
 30
0.0
 40
1.37499999917385
 50
180
 51
197.000000009804
  0
ARC
  8
3
  6
CONTINUOUS
 62
3
 10
7.61727896996966
 20
13.7828755365048
 30
0.0
 40
0.0534999999696591
 50
162.000000010806
 51
180.000000010291
  0
ARC
  8
3
  6
CONTINUOUS
 62
3
 10
7.61727897000076
 20
13.7828755365048
 30
0.0
 40
0.0534999999992373
 50
5.14496787532003E-9
 51
162.000000021095
  0
LINE
  8
2
  6
CONTINUOUS
 62
2
 10
6.64727897
 20
15.0328755365
 30
0.0
 11
7.33727897
 21
15.0328755365
 31
0.0
  0
LINE
  8
2
  6
CONTINUOUS
 62
2
 10
7.33727897
 20
15.0328755365
 30
0.0
 11
7.94727897
 21
15.0328755365
 31
0.0
  0
ARC
  8
3
  6
CONTINUOUS
 62
3
 10
10.5472789699645
 20
15.2828755365115
 30
0.0
 40
0.128499999964489
 50
144.000000011319
 51
180.00000001029
  0
ARC
  8
3
  6
CONTINUOUS
 62
3
 10
10.5472789700037
 20
15.2828755365115
 30
0.0
 40
0.128499999996254
 50
5.14466254207061E-9
 51
144.000000021608
  0
ARC
  8
3
  6
CONTINUOUS
 62
3
 10
11.54727897
 20
15.2828755365
 30
0.0
 40
0.128499999999999
 50
215.000000000029
 51
1.02902402390546E-8
  0
ARC
  8
3
  6
CONTINUOUS
 62
3
 10
11.5472789699634
 20
15.2828755364885
 30
0.0
 40
0.128499999963403
 50
179.999999994855
 51
215.000000005174
  0
ARC
  8
3
  6
CONTINUOUS
 62
3
 10
12.5472789699645
 20
15.2828755365115
 30
0.0
 40
0.128499999964485
 50
144.000000011318
 51
180.000000010289
  0
ARC
  8
3
  6
CONTINUOUS
 62
3
 10
12.5472789700038
 20
15.2828755365115
 30
0.0
 40
0.12849999999625
 50
5.14476431982041E-9
 51
144.000000021609
  0
ARC
  8
3
  6
CONTINUOUS
 62
3
 10
13.5472789699645
 20
15.2828755365115
 30
0.0
 40
0.12849999996449
 50
144.000000011319
 51
180.00000001029
  0
ARC
  8
3
  6
CONTINUOUS
 62
3
 10
13.5472789700037
 20
15.2828755365115
 30
0.0
 40
0.128499999996252
 50
5.14435720882119E-9
 51
144.000000021608
  0
ARC
  8
3
  6
CONTINUOUS
 62
3
 10
13.5472789699841
 20
14.2828755365115
 30
0.0
 40
0.128499999984119
 50
108.000000012348
 51
180.00000001029
  0
ARC
  8
3
  6
CONTINUOUS
 62
3
 10
13.5472789700084
 20
14.2828755365115
 30
0.0
 40
0.128499999991618
 50
5.14476431982041E-9
 51
108.000000022638
  0
ARC
  8
3
  6
CONTINUOUS
 62
3
 10
12.5472789699962
 20
14.2828755365115
 30
0.0
 40
0.128499999996253
 50
36.0000000144056
 51
180.00000001029
  0
ARC
  8
3
  6
CONTINUOUS
 62
3
 10
12.5472789700355
 20
14.2828755365115
 30
0.0
 40
0.128499999964492
 50
5.14481520869532E-9
 51
36.0000000246956
  0
ARC
  8
3
  6
CONTINUOUS
 62
3
 10
11.5472789699962
 20
14.2828755365115
 30
0.0
 40
0.128499999996249
 50
36.0000000144055
 51
180.000000010289
  0
ARC
  8
3
  6
CONTINUOUS
 62
3
 10
11.5472789700355
 20
14.2828755365115
 30
0.0
 40
0.128499999964486
 50
5.14542587519416E-9
 51
36.0000000246965
  0
ARC
  8
3
  6
CONTINUOUS
 62
3
 10
10.5472789699963
 20
14.2828755365115
 30
0.0
 40
0.12849999999625
 50
36.0000000144059
 51
180.00000001029
  0
ARC
  8
3
  6
CONTINUOUS
 62
3
 10
10.5472789700355
 20
14.2828755365115
 30
0.0
 40
0.128499999964492
 50
5.14369565344744E-9
 51
36.0000000246943
  0
ARC
  8
3
  6
CONTINUOUS
 62
3
 10
11.5472789699841
 20
13.2828755365115
 30
0.0
 40
0.128499999984118
 50
108.000000012348
 51
180.00000001029
  0
ARC
  8
3
  6
CONTINUOUS
 62
3
 10
11.5472789700084
 20
13.2828755365115
 30
0.0
 40
0.128499999991617
 50
5.14440809769609E-9
 51
108.000000022637
  0
ARC
  8
3
  6
CONTINUOUS
 62
3
 10
12.5472789699645
 20
13.2828755365115
 30
0.0
 40
0.128499999964487
 50
144.000000015434
 51
180.000000015433
  0
ARC
  8
3
  6
CONTINUOUS
 62
3
 10
12.54727897
 20
13.2828755365
 30
0.0
 40
0.128499999999997
 50
359.999999999998
 51
144.000000020578
  0
ARC
  8
3
  6
CONTINUOUS
 62
3
 10
12.5472789699916
 20
12.2828755365115
 30
0.0
 40
0.128499999991618
 50
72.0000000113194
 51
180.000000005145
  0
ARC
  8
3
  6
CONTINUOUS
 62
3
 10
12.5472789700159
 20
12.2828755365115
 30
0.0
 40
0.12849999998412
 50
5.14501876419493E-9
 51
72.0000000216089
  0
ARC
  8
3
  6
CONTINUOUS
 62
3
 10
11.5472789699963
 20
12.2828755365115
 30
0.0
 40
0.128499999996251
 50
36.0000000144059
 51
180.00000001029
  0
ARC
  8
3
  6
CONTINUOUS
 62
3
 10
11.5472789700355
 20
12.2828755365115
 30
0.0
 40
0.128499999964492
 50
5.14481520869532E-9
 51
36.0000000246956
  0
ARC
  8
3
  6
CONTINUOUS
 62
3
 10
10.0472789699984
 20
11.8528755365048
 30
0.0
 40
0.0534999999984385
 50
36.0000000154342
 51
180.000000015433
  0
ARC
  8
3
  6
CONTINUOUS
 62
3
 10
10.04727897
 20
11.8528755365
 30
0.0
 40
0.0534999999999983
 50
8.44834837263747E-16
 51
36.0000000205807
  0
ARC
  8
3
  6
CONTINUOUS
 62
3
 10
8.54727897
 20
10.9078755365
 30
0.0
 40
0.128499999999999
 50
270
 51
1.0290596461179E-8
  0
ARC
  8
3
  6
CONTINUOUS
 62
3
 10
8.54727896998846
 20
10.9078755364885
 30
0.0
 40
0.128499999988461
 50
179.999999994855
 51
270.000000005145
  0
ARC
  8
3
  6
CONTINUOUS
 62
3
 10
9.04727896997735
 20
10.0328755365115
 30
0.0
 40
0.12849999997735
 50
126.000000008232
 51
180.000000005145
  0
ARC
  8
3
  6
CONTINUOUS
 62
3
 10
9.04727897000588
 20
10.0328755365115
 30
0.0
 40
0.12849999999412
 50
5.14583298619339E-9
 51
126.000000018523
  0
ARC
  8
3
  6
CONTINUOUS
 62
3
 10
10.0472789699645
 20
10.0328755365115
 30
0.0
 40
0.128499999964485
 50
144.000000011318
 51
180.000000010289
  0
ARC
  8
3
  6
CONTINUOUS
 62
3
 10
10.0472789700038
 20
10.0328755365115
 30
0.0
 40
0.12849999999625
 50
5.14476431982041E-9
 51
144.000000021609
  0
ARC
  8
3
  6
CONTINUOUS
 62
3
 10
10.0472789699841
 20
7.03287553651154
 30
0.0
 40
0.128499999984117
 50
108.000000012348
 51
180.00000001029
  0
ARC
  8
3
  6
CONTINUOUS
 62
3
 10
10.04727897
 20
7.0328755365
 30
0.0
 40
0.128499999999999
 50
360
 51
108.000000017493
  0
ARC
  8
3
  6
CONTINUOUS
 62
3
 10
9.04727896999625
 20
7.03287553651154
 30
0.0
 40
0.12849999999625
 50
36.0000000154346
 51
180.000000015434
  0
ARC
  8
3
  6
CONTINUOUS
 62
3
 10
9.04727897003551
 20
7.03287553651154
 30
0.0
 40
0.128499999964487
 50
5.14491698644513E-9
 51
36.0000000257246
  0
ARC
  8
3
  6
CONTINUOUS
 62
3
 10
8.54727896999625
 20
6.15787553651154
 30
0.0
 40
0.12849999999625
 50
36.0000000144058
 51
180.00000001029
  0
ARC
  8
3
  6
CONTINUOUS
 62
3
 10
8.54727897003551
 20
6.15787553651154
 30
0.0
 40
0.128499999964487
 50
5.1445607643208E-9
 51
36.0000000246951
  0
LINE
  8
2
  6
CONTINUOUS
 62
2
 10
6.64727897
 20
6.6828755365
 30
0.0
 11
7.40309292348837
 21
6.6828755365
 31
0.0
  0
LINE
  8
2
  6
CONTINUOUS
 62
2
 10
7.40309292348837
 20
6.6828755365
 30
0.0
 11
7.94727897
 21
6.6828755365
 31
0.0
  0
ARC
  8
3
  6
CONTINUOUS
 62
3
 10
6.91077897
 20
7.8413755365
 30
0.0
 40
0.1285
 50
287.000000000028
 51
1.02903929056794E-8
  0
ARC
  8
3
  6
CONTINUOUS
 62
3
 10
6.91077896999146
 20
7.84137553648846
 30
0.0
 40
0.128499999991462
 50
179.999999994855
 51
287.000000005173
  0
ARC
  8
3
  6
CONTINUOUS
 62
3
 10
6.91077897
 20
9.2243755365
 30
0.0
 40
0.128499999999999
 50
287.000000000028
 51
1.02903929056794E-8
  0
ARC
  8
3
  6
CONTINUOUS
 62
3
 10
6.91077896999146
 20
9.22437553648846
 30
0.0
 40
0.12849999999146
 50
179.999999994855
 51
287.000000005174
  0
ARC
  8
3
  6
CONTINUOUS
 62
3
 10
7.54727896999057
 20
5.0718755365048
 30
0.0
 40
0.05349999999057
 50
126.000000011834
 51
180.00000001029
  0
ARC
  8
3
  6
CONTINUOUS
 62
3
 10
7.54727897000245
 20
5.0718755365048
 30
0.0
 40
0.0534999999975504
 50
5.14486609757022E-9
 51
126.000000022123
  0
LINE
  8
2
  6
CONTINUOUS
 62
2
 10
9.29727897
 20
3.5328755365
 30
0.0
 11
11.89727897
 21
3.5328755365
 31
0.0
  0
LINE
  8
2
  6
CONTINUOUS
 62
2
 10
11.89727897
 20
3.5328755365
 30
0.0
 11
14.79727897
 21
3.5328755365
 31
0.0
  0
ARC
  8
3
  6
CONTINUOUS
 62
3
 10
7.54727896999844
 20
2.5328755365048
 30
0.0
 40
0.0534999999984387
 50
36.0000000154348
 51
180.000000015434
  0
ARC
  8
3
  6
CONTINUOUS
 62
3
 10
7.54727897
 20
2.5328755365
 30
0.0
 40
0.0534999999999994
 50
360
 51
36.0000000205803
  0
LINE
  8
2
  6
CONTINUOUS
 62
2
 10
7.94727897
 20
2.0328755365
 30
0.0
 11
7.29224021031008
 21
2.0328755365
 31
0.0
  0
LINE
  8
2
  6
CONTINUOUS
 62
2
 10
7.29224021031008
 20
2.0328755365
 30
0.0
 11
6.64727897
 21
2.0328755365
 31
0.0
  0
ARC
  8
3
  6
CONTINUOUS
 62
3
 10
8.54727896998281
 20
1.28287553650559
 30
0.0
 40
0.0621999999828118
 50
144.000000011319
 51
180.00000001029
  0
ARC
  8
3
  6
CONTINUOUS
 62
3
 10
8.54727897000181
 20
1.28287553650559
 30
0.0
 40
0.0621999999981861
 50
5.14486609757022E-9
 51
144.000000021609
  0
ARC
  8
3
  6
CONTINUOUS
 62
3
 10
11.5472789700018
 20
4.15287553648846
 30
0.0
 40
0.128499999998171
 50
198.000000004115
 51
5.14481520869532E-9
  0
ARC
  8
3
  6
CONTINUOUS
 62
3
 10
11.5472789699271
 20
4.15287553648846
 30
0.0
 40
0.128499999927145
 50
180.000000005145
 51
198.000000014406
  0
ARC
  8
3
  6
CONTINUOUS
 62
3
 10
12.5472789699645
 20
4.15287553651154
 30
0.0
 40
0.128499999964487
 50
144.000000015434
 51
180.000000015434
  0
ARC
  8
3
  6
CONTINUOUS
 62
3
 10
12.54727897
 20
4.1528755365
 30
0.0
 40
0.128499999999999
 50
359.999999999999
 51
144.000000020579
  0
ARC
  8
3
  6
CONTINUOUS
 62
3
 10
12.5472789700115
 20
5.15287553648846
 30
0.0
 40
0.12849999998846
 50
269.999999999999
 51
5.14445898657099E-9
  0
ARC
  8
3
  6
CONTINUOUS
 62
3
 10
12.5472789699885
 20
5.15287553648846
 30
0.0
 40
0.12849999998846
 50
180.000000005145
 51
270.000000010289
  0
ARC
  8
3
  6
CONTINUOUS
 62
3
 10
11.54727897
 20
5.1528755365
 30
0.0
 40
0.128499999999998
 50
323.000000000029
 51
1.0290596461179E-8
  0
ARC
  8
3
  6
CONTINUOUS
 62
3
 10
11.5472789699961
 20
5.15287553648846
 30
0.0
 40
0.128499999996138
 50
179.999999994855
 51
323.000000005174
  0
ARC
  8
3
  6
CONTINUOUS
 62
3
 10
14.0472789699916
 20
7.03287553651154
 30
0.0
 40
0.128499999991615
 50
72.0000000154345
 51
180.000000015434
  0
ARC
  8
3
  6
CONTINUOUS
 62
3
 10
14.0472789700159
 20
7.03287553651154
 30
0.0
 40
0.128499999984118
 50
5.14522231969455E-9
 51
72.0000000257247
  0
ARC
  8
3
  6
CONTINUOUS
 62
3
 10
15.0472789699645
 20
7.03287553651154
 30
0.0
 40
0.128499999964486
 50
144.000000011318
 51
180.000000010289
  0
ARC
  8
3
  6
CONTINUOUS
 62
3
 10
15.04727897
 20
7.0328755365
 30
0.0
 40
0.128499999999999
 50
359.999999999999
 51
144.000000016464
  0
ARC
  8
3
  6
CONTINUOUS
 62
3
 10
15.5472789699841
 20
6.15787553651154
 30
0.0
 40
0.128499999984117
 50
108.000000015435
 51
180.000000015434
  0
ARC
  8
3
  6
CONTINUOUS
 62
3
 10
15.54727897
 20
6.1578755365
 30
0.0
 40
0.128499999999999
 50
8.44834837263747E-16
 51
108.00000002058
  0
ARC
  8
2
  6
CONTINUOUS
 62
2
 10
16.1472789699798
 20
6.78287553639713
 30
0.0
 40
0.0999999998859054
 50
261.000000001287
 51
270.000000011576
  0
ARC
  8
2
  6
CONTINUOUS
 62
2
 10
16.1472789699783
 20
6.78287553650225
 30
0.0
 40
0.0999999999894876
 50
180.000000001287
 51
261.000000011578
  0
ARC
  8
3
  6
CONTINUOUS
 62
3
 10
16.0472789699977
 20
5.28287553650714
 30
0.0
 40
0.0794999999976803
 50
36.000000013377
 51
180.000000005145
  0
ARC
  8
3
  6
CONTINUOUS
 62
3
 10
16.047278970022
 20
5.28287553650714
 30
0.0
 40
0.0794999999780285
 50
5.14471343094551E-9
 51
36.0000000236665
  0
ARC
  8
3
  6
CONTINUOUS
 62
3
 10
17.18377897
 20
7.8413755365
 30
0.0
 40
0.128500000000002
 50
269.000000000028
 51
1.02903929056794E-8
  0
ARC
  8
3
  6
CONTINUOUS
 62
3
 10
17.1837789699883
 20
7.84137553648846
 30
0.0
 40
0.12849999998826
 50
179.999999994856
 51
269.000000005174
  0
ARC
  8
3
  6
CONTINUOUS
 62
3
 10
17.18377897
 20
9.2243755365
 30
0.0
 40
0.1285
 50
287.000000000027
 51
1.02894260170562E-8
  0
ARC
  8
3
  6
CONTINUOUS
 62
3
 10
17.1837789699915
 20
9.22437553648846
 30
0.0
 40
0.128499999991463
 50
179.999999994856
 51
287.000000005174
  0
ARC
  8
3
  6
CONTINUOUS
 62
3
 10
15.0472789699982
 20
10.0328755365115
 30
0.0
 40
0.128499999998171
 50
18.0000000149198
 51
180.000000010289
  0
ARC
  8
3
  6
CONTINUOUS
 62
3
 10
15.04727897
 20
10.0328755365
 30
0.0
 40
0.128499999999997
 50
359.999999999999
 51
18.0000000200651
  0
ARC
  8
3
  6
CONTINUOUS
 62
3
 10
14.0472789700345
 20
10.0328755364885
 30
0.0
 40
0.128499999965515
 50
322.999999994884
 51
5.146036541693E-9
  0
ARC
  8
3
  6
CONTINUOUS
 62
3
 10
14.0472789699961
 20
10.0328755364885
 30
0.0
 40
0.128499999996139
 50
179.999999994855
 51
323.000000005173
  0
ARC
  8
3
  6
CONTINUOUS
 62
3
 10
15.5472789699271
 20
10.9078755365115
 30
0.0
 40
0.128499999927148
 50
162.000000010804
 51
180.00000001029
  0
ARC
  8
3
  6
CONTINUOUS
 62
3
 10
15.5472789700018
 20
10.9078755365115
 30
0.0
 40
0.128499999998175
 50
5.14466254207061E-9
 51
162.000000021094
  0
ARC
  8
3
  6
CONTINUOUS
 62
3
 10
16.4772789700007
 20
11.8528755364952
 30
0.0
 40
0.0534999999992806
 50
196.999999999513
 51
5.14491698644513E-9
  0
ARC
  8
3
  6
CONTINUOUS
 62
3
 10
16.4772789699679
 20
11.8528755364952
 30
0.0
 40
0.0534999999678564
 50
180.000000000007
 51
197.000000009811
  0
ARC
  8
2
  6
CONTINUOUS
 62
2
 10
19.2972789692204
 20
13.0328755366235
 30
0.0
 40
1.37499999922045
 50
162.000000010804
 51
180.00000001029
  0
ARC
  8
2
  6
CONTINUOUS
 62
2
 10
19.2972789700196
 20
13.0328755366235
 30
0.0
 40
1.37499999998045
 50
5.14512054194474E-9
 51
162.000000021094
  0
ARC
  8
3
  6
CONTINUOUS
 62
3
 10
22.5472789699645
 20
10.9078755365115
 30
0.0
 40
0.128499999964482
 50
144.000000007205
 51
180.000000005147
  0
ARC
  8
3
  6
CONTINUOUS
 62
3
 10
22.5472789700038
 20
10.9078755365115
 30
0.0
 40
0.128499999996248
 50
5.14537498631926E-9
 51
144.000000017494
  0
ARC
  8
3
  6
CONTINUOUS
 62
3
 10
22.5452789699841
 20
9.87662553651154
 30
0.0
 40
0.128499999984121
 50
108.000000012347
 51
180.00000001029
  0
ARC
  8
3
  6
CONTINUOUS
 62
3
 10
22.5452789700084
 20
9.87662553651154
 30
0.0
 40
0.128499999991619
 50
5.14527320856945E-9
 51
108.000000022637
  0
ARC
  8
3
  6
CONTINUOUS
 62
3
 10
21.5472789699963
 20
10.0328755365115
 30
0.0
 40
0.12849999999625
 50
36.0000000144051
 51
180.000000010289
  0
ARC
  8
3
  6
CONTINUOUS
 62
3
 10
21.5472789700355
 20
10.0328755365115
 30
0.0
 40
0.128499999964487
 50
5.1445098754459E-9
 51
36.0000000246951
  0
ARC
  8
3
  6
CONTINUOUS
 62
3
 10
19.5397789699916
 20
9.22437553651154
 30
0.0
 40
0.128499999991613
 50
72.0000000154348
 51
180.000000015435
  0
ARC
  8
3
  6
CONTINUOUS
 62
3
 10
19.53977897
 20
9.2243755365
 30
0.0
 40
0.128499999999997
 50
359.999999999999
 51
72.000000020579
  0
ARC
  8
3
  6
CONTINUOUS
 62
3
 10
19.5397789699841
 20
7.84137553651154
 30
0.0
 40
0.128499999984114
 50
108.000000015435
 51
180.000000015434
  0
ARC
  8
3
  6
CONTINUOUS
 62
3
 10
19.53977897
 20
7.8413755365
 30
0.0
 40
0.128499999999996
 50
359.999999999999
 51
108.00000002058
  0
ARC
  8
3
  6
CONTINUOUS
 62
3
 10
21.5472789700222
 20
7.03287553648846
 30
0.0
 40
0.128499999977831
 50
304.999999994885
 51
5.1459856528181E-9
  0
ARC
  8
3
  6
CONTINUOUS
 62
3
 10
21.547278969994
 20
7.03287553648846
 30
0.0
 40
0.12849999999399
 50
179.999999994855
 51
305.000000005174
  0
ARC
  8
3
  6
CONTINUOUS
 62
3
 10
22.5452789699941
 20
7.18912553651154
 30
0.0
 40
0.12849999999412
 50
54.000000015434
 51
180.000000015434
  0
ARC
  8
3
  6
CONTINUOUS
 62
3
 10
22.54527897
 20
7.1891255365
 30
0.0
 40
0.128499999999999
 50
359.999999999999
 51
54.0000000205789
  0
ARC
  8
3
  6
CONTINUOUS
 62
3
 10
22.5472789699916
 20
6.15787553651154
 30
0.0
 40
0.128499999991612
 50
72.0000000113198
 51
180.000000005145
  0
ARC
  8
3
  6
CONTINUOUS
 62
3
 10
22.5472789700159
 20
6.15787553651154
 30
0.0
 40
0.128499999984114
 50
5.14573120844358E-9
 51
72.0000000216102
  0
ARC
  8
3
  6
CONTINUOUS
 62
3
 10
22.0472789699929
 20
5.28287553650714
 30
0.0
 40
0.0794999999928641
 50
90.0000000128624
 51
180.00000001029
  0
ARC
  8
3
  6
CONTINUOUS
 62
3
 10
22.0472789700071
 20
5.28287553650714
 30
0.0
 40
0.0794999999928647
 50
5.14537498631926E-9
 51
90.0000000231524
  0
ARC
  8
3
  6
CONTINUOUS
 62
3
 10
20.04727897
 20
5.2828755365
 30
0.0
 40
0.0795000000000014
 50
341.000000000027
 51
1.02894769059311E-8
  0
ARC
  8
3
  6
CONTINUOUS
 62
3
 10
20.0472789699988
 20
5.28287553649286
 30
0.0
 40
0.0794999999988081
 50
179.999999994856
 51
341.000000005174
  0
ARC
  8
3
  6
CONTINUOUS
 62
3
 10
20.0472789699902
 20
2.28287553650714
 30
0.0
 40
0.0794999999901741
 50
108.000000015433
 51
180.000000015434
  0
ARC
  8
3
  6
CONTINUOUS
 62
3
 10
20.04727897
 20
2.2828755365
 30
0.0
 40
0.0794999999999994
 50
359.999999999999
 51
108.000000020579
  0
ARC
  8
3
  6
CONTINUOUS
 62
3
 10
22.04727897
 20
2.2828755365
 30
0.0
 40
0.0795000000000023
 50
215.000000000028
 51
1.02902911279295E-8
  0
ARC
  8
3
  6
CONTINUOUS
 62
3
 10
22.0472789699774
 20
2.28287553649286
 30
0.0
 40
0.0794999999773604
 50
179.999999994857
 51
215.000000005175
  0
ARC
  8
2
  6
CONTINUOUS
 62
2
 10
17.4472789700112
 20
1.93287553655446
 30
0.0
 40
0.0999999999433011
 50
72.0000000167211
 51
90.0000000167214
  0
ARC
  8
2
  6
CONTINUOUS
 62
2
 10
17.4472789700146
 20
1.93287553650673
 30
0.0
 40
0.0999999999876425
 50
6.43255818812627E-9
 51
72.0000000270117
  0
ARC
  8
3
  6
CONTINUOUS
 62
3
 10
16.04727897
 20
2.2828755365
 30
0.0
 40
0.0794999999999992
 50
323.000000000031
 51
1.02923775718006E-8
  0
ARC
  8
3
  6
CONTINUOUS
 62
3
 10
16.0472789699976
 20
2.28287553649286
 30
0.0
 40
0.0794999999976118
 50
179.999999994855
 51
323.000000005174
  0
ARC
  8
3
  6
CONTINUOUS
 62
3
 10
15.5472789699982
 20
1.28287553650559
 30
0.0
 40
0.0621999999981864
 50
36.0000000133766
 51
180.000000005145
  0
ARC
  8
3
  6
CONTINUOUS
 62
3
 10
15.5472789700172
 20
1.28287553650559
 30
0.0
 40
0.0621999999828105
 50
5.14420454219648E-9
 51
36.0000000236656
  0
ARC
  8
3
  6
CONTINUOUS
 62
3
 10
14.0472789700034
 20
13.7828755364952
 30
0.0
 40
0.0534999999965727
 50
250.999999997971
 51
5.14486609757022E-9
  0
ARC
  8
3
  6
CONTINUOUS
 62
3
 10
14.0472789699933
 20
13.7828755364952
 30
0.0
 40
0.0534999999932649
 50
180
 51
251.000000008261
  0
LINE
  8
2
  6
CONTINUOUS
 62
2
 10
16.14727897
 20
15.0328755365
 30
0.0
 11
16.72727897
 21
15.0328755365
 31
0.0
  0
LINE
  8
2
  6
CONTINUOUS
 62
2
 10
16.72727897
 20
15.0328755365
 30
0.0
 11
17.44727897
 21
15.0328755365
 31
0.0
  0
ENDSEC
  0
EOF
