  0
SECTION
  2
HEADER
  9
$ACADVER
  1
AC1003
  9
$EXTMIN
 10
0.587271808221908
 20
4.78060085840561
  9
$EXTMAX
 10
3.71587982830561
 20
0.780600858394388
  9
$INSBASE
 10
2.15157581826376
 20
2.7806008584
999
Created with OMAX Windows DXF File exporter 7/17/2007
  0
ENDSEC
  0
SECTION
  2
TABLES
  0
TABLE
  2
LAYER
 70
    10
  0
LAYER
  2
0
 70
     0
 62
     7
  6
CONTINUOUS
  0
LAYER
  2
1
 70
     0
 62
     7
  6
CONTINUOUS
  0
LAYER
  2
2
 70
     0
 62
     7
  6
CONTINUOUS
  0
LAYER
  2
3
 70
     0
 62
     7
  6
CONTINUOUS
  0
LAYER
  2
4
 70
     0
 62
     7
  6
CONTINUOUS
  0
LAYER
  2
5
 70
     0
 62
     7
  6
CONTINUOUS
  0
LAYER
  2
6
 70
     0
 62
     7
  6
CONTINUOUS
  0
LAYER
  2
7
 70
     0
 62
     7
  6
CONTINUOUS
  0
LAYER
  2
8
 70
     0
 62
     7
  6
CONTINUOUS
  0
LAYER
  2
9
 70
     0
 62
     7
  6
CONTINUOUS
  0
LAYER
  2
10
 70
     0
 62
     7
  6
CONTINUOUS
  0
LAYER
  2
11
 70
     0
 62
     7
  6
CONTINUOUS
  0
LAYER
  2
12
 70
     0
 62
     7
  6
CONTINUOUS
  0
ENDTAB
  0
ENDSEC
  0
SECTION
  2
ENTITIES
  0
ARC
  8
3
  6
CONTINUOUS
 62
3
 10
3.21587982826538
 20
4.2806008584
 30
0.0
 40
0.128500000000001
 50
270.000000005145
 51
89.9999999948552
  0
LINE
  8
3
  6
CONTINUOUS
 62
3
 10
1.4728798283
 20
4.4091008584
 30
0.0
 11
3.2158798283
 21
4.4091008584
 31
0.0
  0
ARC
  8
3
  6
CONTINUOUS
 62
3
 10
1.47287982827404
 20
4.02360085844327
 30
0.0
 40
0.385499999965384
 50
90.000000006431
 51
180.000000006431
  0
LINE
  8
3
  6
CONTINUOUS
 62
3
 10
1.0873798283
 20
2.2806008584
 30
0.0
 11
1.0873798283
 21
4.0236008584
 31
0.0
  0
ARC
  8
3
  6
CONTINUOUS
 62
3
 10
1.2158798283
 20
2.28060085842308
 30
0.0
 40
0.1285
 50
180.00000001029
 51
2.55289209354345E-13
  0
LINE
  8
3
  6
CONTINUOUS
 62
3
 10
1.3443798283
 20
4.0236008584
 30
0.0
 11
1.3443798283
 21
2.2806008584
 31
0.0
  0
ARC
  8
3
  6
CONTINUOUS
 62
3
 10
1.47287982829135
 20
4.02360085841442
 30
0.0
 40
0.128499999988462
 50
90.0000000064309
 51
180.000000006431
  0
ARC
  8
3
  6
CONTINUOUS
 62
3
 10
3.2158798283
 20
1.28060085838846
 30
0.0
 40
0.1285
 50
180.000000005145
 51
5.14506965306984E-9
  0
ARC
  8
3
  6
CONTINUOUS
 62
3
 10
1.2158798283
 20
1.2806008584
 30
0.0
 40
0.1285
 50
180.000000005145
 51
1.53511459547513E-13
  0
ARC
  8
2
  6
CONTINUOUS
 62
2
 10
0.965879828283163
 20
4.53060085842806
 30
0.0
 40
0.249999999977551
 50
90.0000000064308
 51
180.000000006431
  0
LINE
  8
2
  6
CONTINUOUS
 62
2
 10
0.9658798283
 20
4.7806008584
 30
0.0
 11
3.4658798283
 21
4.7806008584
 31
0.0
  0
ARC
  8
2
  6
CONTINUOUS
 62
2
 10
3.46587982832806
 20
4.53060085841684
 30
0.0
 40
0.24999999997755
 50
6.4315912995031E-9
 51
90.0000000167215
  0
LINE
  8
2
  6
CONTINUOUS
 62
2
 10
3.7158798283
 20
4.5306008584
 30
0.0
 11
3.7158798283
 21
1.0306008584
 31
0.0
  0
ARC
  8
2
  6
CONTINUOUS
 62
2
 10
3.46587982829439
 20
1.03060085839439
 30
0.0
 40
0.25
 50
270.000000001286
 51
1.15762529967389E-8
  0
LINE
  8
2
  6
CONTINUOUS
 62
2
 10
3.4658798283
 20
0.7806008584
 30
0.0
 11
0.9658798283
 21
0.7806008584
 31
0.0
  0
LINE
  8
2
  6
CONTINUOUS
 62
2
 10
0.7158798283
 20
1.0306008584
 30
0.0
 11
0.7158798283
 21
4.5306008584
 31
0.0
  0
ARC
  8
3
  6
CONTINUOUS
 62
3
 10
2.2158798283
 20
1.28060085838846
 30
0.0
 40
0.128500000000001
 50
180.000000005145
 51
5.14496787532003E-9
  0
ARC
  8
3
  6
CONTINUOUS
 62
3
 10
3.2158798283
 20
2.2806008584
 30
0.0
 40
0.128500000000001
 50
180.000000005145
 51
1.53511459547513E-13
  0
LINE
  8
3
  6
CONTINUOUS
 62
3
 10
3.3443798283
 20
2.5236008584
 30
0.0
 11
3.3443798283
 21
2.2806008584
 31
0.0
  0
ARC
  8
3
  6
CONTINUOUS
 62
3
 10
2.95887982834327
 20
2.52360085842596
 30
0.0
 40
0.385499999965384
 50
6.43123507737878E-9
 51
90.0000000167211
  0
LINE
  8
3
  6
CONTINUOUS
 62
3
 10
2.2158798283
 20
2.9091008584
 30
0.0
 11
2.9588798283
 21
2.9091008584
 31
0.0
  0
ARC
  8
3
  6
CONTINUOUS
 62
3
 10
2.21587982831154
 20
2.7806008584
 30
0.0
 40
0.1285
 50
90.0000000025723
 51
269.999999997427
  0
ARC
  8
3
  6
CONTINUOUS
 62
3
 10
2.95887982831442
 20
2.52360085840866
 30
0.0
 40
0.128499999988461
 50
6.43118418850387E-9
 51
90.0000000167211
  0
LINE
  8
3
  6
CONTINUOUS
 62
3
 10
3.0873798283
 20
2.2806008584
 30
0.0
 11
3.0873798283
 21
2.5236008584
 31
0.0
  0
LINE
  8
9
  6
CONTINUOUS
 62
9
 10
0.587271808221908
 20
0.956348983387489
 30
0.0
 11
0.715879828271939
 21
1.0306008584
 31
0.0
  0
LINE
  8
9
  6
CONTINUOUS
 62
9
 10
0.672795064430499
 20
1.05547585839452
 30
0.0
 11
0.715879828271939
 21
1.0306008584
 31
0.0
  0
LINE
  8
9
  6
CONTINUOUS
 62
9
 10
1.19964279969595
 20
1.34283495465768
 30
0.0
 11
1.09366906595215
 21
1.32030954216511
 31
0.0
  0
LINE
  8
9
  6
CONTINUOUS
 62
9
 10
1.1269583136265
 20
1.28333808710481
 30
0.0
 11
1.09366906595215
 21
1.32030954216511
 31
0.0
  0
LINE
  8
9
  6
CONTINUOUS
 62
9
 10
2.21906098830029
 20
1.34487041198173
 30
0.0
 11
2.11192114450925
 21
1.35613126330091
 31
0.0
  0
LINE
  8
9
  6
CONTINUOUS
 62
9
 10
2.13215629251578
 20
1.31068237678921
 30
0.0
 11
2.11192114450925
 21
1.35613126330091
 31
0.0
  0
LINE
  8
9
  6
CONTINUOUS
 62
9
 10
3.21906098830029
 20
1.34487041198173
 30
0.0
 11
3.11192114450925
 21
1.35613126330091
 31
0.0
  0
LINE
  8
9
  6
CONTINUOUS
 62
9
 10
3.13215629251578
 20
1.31068237678921
 30
0.0
 11
3.11192114450925
 21
1.35613126330091
 31
0.0
  0
LINE
  8
9
  6
CONTINUOUS
 62
9
 10
2.57377815597955
 20
2.76261327763181
 30
0.0
 11
2.6375825310027
 21
2.6521008584
 31
0.0
  0
LINE
  8
9
  6
CONTINUOUS
 62
9
 10
2.66245753099239
 20
2.69518562224423
 30
0.0
 11
2.6375825310027
 21
2.6521008584
 31
0.0
  0
LINE
  8
9
  6
CONTINUOUS
 62
9
 10
2.280575453257
 20
4.26261327762035
 30
0.0
 11
2.3443798283
 21
4.1521008584
 31
0.0
  0
LINE
  8
9
  6
CONTINUOUS
 62
9
 10
2.36925482828195
 20
4.1951856222487
 30
0.0
 11
2.3443798283
 21
4.1521008584
 31
0.0
  0
LINE
  8
0
  6
CONTINUOUS
 62
0
 10
0.587271808221908
 20
0.7806008584
 30
0.0
 11
2.280575453257
 21
4.26261327762035
 31
0.0
  0
LINE
  8
0
  6
CONTINUOUS
 62
0
 10
2.36925482828195
 20
4.1951856222487
 30
0.0
 11
2.57377815597955
 21
2.76261327763181
 31
0.0
  0
LINE
  8
0
  6
CONTINUOUS
 62
0
 10
2.66245753099239
 20
2.69518562224423
 30
0.0
 11
3.21906098830029
 21
1.34487041198173
 31
0.0
  0
LINE
  8
0
  6
CONTINUOUS
 62
0
 10
3.13215629251578
 20
1.31068237678921
 30
0.0
 11
2.21906098830029
 21
1.34487041198173
 31
0.0
  0
LINE
  8
0
  6
CONTINUOUS
 62
0
 10
2.13215629251578
 20
1.31068237678921
 30
0.0
 11
1.19964279969595
 21
1.34283495465768
 31
0.0
  0
LINE
  8
0
  6
CONTINUOUS
 62
0
 10
1.1269583136265
 20
1.28333808710481
 30
0.0
 11
0.587271808221908
 21
0.956348983387489
 31
0.0
  0
ARC
  8
2
  6
CONTINUOUS
 62
2
 10
0.965879828249491
 20
1.03060085840561
 30
0.0
 40
0.249999999977551
 50
180.000000001286
 51
270.000000011576
  0
ARC
  8
3
  6
CONTINUOUS
 62
3
 10
1.21587982822715
 20
1.28060085841154
 30
0.0
 40
0.128499999927147
 50
162.000000010804
 51
180.00000001029
  0
ARC
  8
3
  6
CONTINUOUS
 62
3
 10
1.21587982830183
 20
1.28060085841154
 30
0.0
 40
0.128499999998173
 50
5.14517143081964E-9
 51
162.000000021094
  0
ARC
  8
3
  6
CONTINUOUS
 62
3
 10
2.21587982826449
 20
1.28060085841154
 30
0.0
 40
0.128499999964488
 50
144.000000015435
 51
180.000000015435
  0
ARC
  8
3
  6
CONTINUOUS
 62
3
 10
2.2158798283
 20
1.2806008584
 30
0.0
 40
0.128500000000001
 50
1.02622584644096E-13
 51
144.00000002058
  0
ARC
  8
3
  6
CONTINUOUS
 62
3
 10
3.21587982826449
 20
1.28060085841154
 30
0.0
 40
0.128499999964487
 50
144.000000015435
 51
180.000000015435
  0
ARC
  8
3
  6
CONTINUOUS
 62
3
 10
3.2158798283
 20
1.2806008584
 30
0.0
 40
0.1285
 50
1.53511459547513E-13
 51
144.00000002058
  0
LINE
  8
3
  6
CONTINUOUS
 62
3
 10
2.9588798283
 20
2.6521008584
 30
0.0
 11
2.6375825310027
 21
2.6521008584
 31
0.0
  0
LINE
  8
3
  6
CONTINUOUS
 62
3
 10
2.6375825310027
 20
2.6521008584
 30
0.0
 11
2.2158798283
 21
2.6521008584
 31
0.0
  0
LINE
  8
3
  6
CONTINUOUS
 62
3
 10
3.2158798283
 20
4.1521008584
 30
0.0
 11
2.3443798283
 21
4.1521008584
 31
0.0
  0
LINE
  8
3
  6
CONTINUOUS
 62
3
 10
2.3443798283
 20
4.1521008584
 30
0.0
 11
1.4728798283
 21
4.1521008584
 31
0.0
  0
ENDSEC
  0
EOF
