;Holesize 1 =   28.0 PLATED MILS
;Holesize 2 =   45.0 PLATED MILS
;Holesize 3 =   25.0 PLATED MILS
;Holesize 4 =   60.0 PLATED MILS
;Holesize 5 =   35.0 PLATED MILS
;Holesize 6 =  196.0 PLATED MILS
;Holesize 7 =   14.0 PLATED MILS
M48
INCH
T01C0.028
T02C0.045
T03C0.025
T04C0.060
T05C0.035
T06C0.196
T07C0.014
%
G05
G90
T01
X018000Y030500
X018000Y029500
X018000Y028500
X018000Y027500
X018000Y026500
X018000Y025500
X018000Y024500
X018000Y023500
X018000Y022500
X018000Y021500
X018000Y020500
X018000Y019500
X018000Y018500
X018000Y017500
X018000Y016500
X018000Y015500
X018000Y014500
X018000Y013500
X018000Y012500
X018000Y011500
X024000Y011500
X024000Y012500
X024000Y013500
X024000Y014500
X024000Y015500
X024000Y016500
X024000Y017500
X024000Y018500
X024000Y019500
X024000Y020500
X024000Y021500
X024000Y022500
X024000Y023500
X024000Y024500
X024000Y025500
X024000Y026500
X024000Y027500
X024000Y028500
X024000Y029500
X024000Y030500
X013500Y027500
X013500Y029500
X014500Y021500
X014500Y025500
X014000Y019000
X014000Y018000
X013000Y015500
X013000Y014500
X013000Y013500
X014000Y004500
X014000Y005500
X014000Y006500
X015000Y004500
X015000Y005500
X015000Y006500
X017000Y004500
X017000Y005500
X017000Y006500
X018000Y004500
X018000Y005500
X018000Y006500
X019000Y004500
X019000Y005500
X019000Y006500
X020000Y004500
X020000Y005500
X020000Y006500
X022000Y004500
X022000Y005500
X022000Y006500
X023000Y004500
X023000Y005500
X023000Y006500
X024000Y004500
X024000Y005500
X024000Y006500
X025000Y004500
X025000Y005500
X025000Y006500
X027500Y017000
X027500Y021000
X008970Y026500
X007000Y026500
X033500Y019500
X034500Y019500
X035500Y019500
X036500Y019500
T02
X009000Y022000
X010000Y022000
X011000Y022000
X026000Y029500
X027000Y029500
X028000Y029500
T03
X030500Y028000
X030500Y027220
X030500Y026430
X030500Y025640
X030500Y024860
X030500Y024070
X030500Y023280
X030500Y022490
X030500Y021710
X030500Y020920
X039160Y028000
X039160Y027220
X039160Y026430
X039160Y025640
X039160Y024860
X039160Y024070
X039160Y023280
X039160Y022490
X039160Y021710
X039160Y020920
T04
X006500Y015000
X006500Y013000
T05
X006500Y018000
X006500Y022000
T06
X002500Y002500
X002500Y032500
X042500Y032500
X042500Y002500
X062500Y032500
X062500Y002500
T07
X037000Y014800
X029600Y014800
X021000Y014000
X021000Y024000
X018800Y010200
X026400Y014000
X037000Y014000
X019200Y009600
X037000Y012400
X010300Y017800
X009700Y019200
X030900Y008200
X032900Y009800
X032900Y006000
X033100Y012400
X028100Y025200
X027300Y025000
M30
