G04 FreePCB version 1.200*
G04 C:\My Stuff\School\Summer 07\Segway\CAM\top_mask.grb*
G04  layer *
G04 Scale: 100 percent, Rotated: No, Reflected: No *
%FSLAX26Y26*%
%MOIN*%
%LNTop*%
%ADD10C,0.005000*%
%ADD11R,0.071000X0.071000*%
%ADD12C,0.071000*%
%ADD13R,0.066000X0.066000*%
%ADD14C,0.066000*%
%ADD15C,0.091000*%
%ADD16R,0.055000X0.055000*%
%ADD17C,0.055000*%
%ADD18C,0.081000*%
%ADD19R,0.116000X0.116000*%
%ADD20C,0.116000*%
%ADD21C,0.101000*%
%ADD22C,0.266000*%
%ADD23C,0.044000*%
%ADD24C,0.016000*%
G90*
G70D02*

G04 ----------------------- Draw board outline (positive)*
%LPD*%
G54D10*
G01X0Y0D02*
G01X6500000Y0D01*
G04 end of side 1*
G01X6500000Y3500000D01*
G04 end of side 2*
G01X0Y3500000D01*
G04 end of side 3*
G01X0Y0D01*

G04 -------------- Draw Parts, Pads, Traces, Vias and Text (positive)*
%LPD*%
G04 Draw part U1*
G54D11*
G01X1800000Y3050000D03*
G54D12*
G01X1800000Y2950000D03*
G01X1800000Y2850000D03*
G01X1800000Y2750000D03*
G01X1800000Y2650000D03*
G01X1800000Y2550000D03*
G01X1800000Y2450000D03*
G01X1800000Y2350000D03*
G01X1800000Y2250000D03*
G01X1800000Y2150000D03*
G01X1800000Y2050000D03*
G01X1800000Y1950000D03*
G01X1800000Y1850000D03*
G01X1800000Y1750000D03*
G01X1800000Y1650000D03*
G01X1800000Y1550000D03*
G01X1800000Y1450000D03*
G01X1800000Y1350000D03*
G01X1800000Y1250000D03*
G01X1800000Y1150000D03*
G01X2400000Y1150000D03*
G01X2400000Y1250000D03*
G01X2400000Y1350000D03*
G01X2400000Y1450000D03*
G01X2400000Y1550000D03*
G01X2400000Y1650000D03*
G01X2400000Y1750000D03*
G01X2400000Y1850000D03*
G01X2400000Y1950000D03*
G01X2400000Y2050000D03*
G01X2400000Y2150000D03*
G01X2400000Y2250000D03*
G01X2400000Y2350000D03*
G01X2400000Y2450000D03*
G01X2400000Y2550000D03*
G01X2400000Y2650000D03*
G01X2400000Y2750000D03*
G01X2400000Y2850000D03*
G01X2400000Y2950000D03*
G01X2400000Y3050000D03*
G04 Draw part SW1*
G54D13*
G01X1350000Y2750000D03*
G54D14*
G01X1350000Y2950000D03*
G04 Draw part R1*
G54D15*
G01X1450000Y2150000D03*
G01X1450000Y2550000D03*
G04 Draw part C1*
G54D13*
G01X1400000Y1900000D03*
G54D14*
G01X1400000Y1800000D03*
G04 Draw part U2*
G54D13*
G01X1300000Y1550000D03*
G54D14*
G01X1300000Y1450000D03*
G01X1300000Y1350000D03*
G04 Draw part J1*
G54D13*
G01X1400000Y450000D03*
G54D14*
G01X1400000Y550000D03*
G01X1400000Y650000D03*
G04 Draw part J2*
G54D13*
G01X1500000Y450000D03*
G54D14*
G01X1500000Y550000D03*
G01X1500000Y650000D03*
G04 Draw part J3*
G54D13*
G01X1700000Y450000D03*
G54D14*
G01X1700000Y550000D03*
G01X1700000Y650000D03*
G04 Draw part J4*
G54D13*
G01X1800000Y450000D03*
G54D14*
G01X1800000Y550000D03*
G01X1800000Y650000D03*
G04 Draw part J5*
G54D13*
G01X1900000Y450000D03*
G54D14*
G01X1900000Y550000D03*
G01X1900000Y650000D03*
G04 Draw part J6*
G54D13*
G01X2000000Y450000D03*
G54D14*
G01X2000000Y550000D03*
G01X2000000Y650000D03*
G04 Draw part J7*
G54D13*
G01X2200000Y450000D03*
G54D14*
G01X2200000Y550000D03*
G01X2200000Y650000D03*
G04 Draw part J8*
G54D13*
G01X2300000Y450000D03*
G54D14*
G01X2300000Y550000D03*
G01X2300000Y650000D03*
G04 Draw part J9*
G54D13*
G01X2400000Y450000D03*
G54D14*
G01X2400000Y550000D03*
G01X2400000Y650000D03*
G04 Draw part J10*
G54D13*
G01X2500000Y450000D03*
G54D14*
G01X2500000Y550000D03*
G01X2500000Y650000D03*
G04 Draw part VR1*
G54D15*
G01X900000Y2200000D03*
G01X1000000Y2200000D03*
G01X1100000Y2200000D03*
G04 Draw part VR2*
G01X2600000Y2950000D03*
G01X2700000Y2950000D03*
G01X2800000Y2950000D03*
G04 Draw part U3*
G54D16*
G01X3050000Y2800000D03*
G54D17*
G01X3050000Y2722000D03*
G01X3050000Y2643000D03*
G01X3050000Y2564000D03*
G01X3050000Y2486000D03*
G01X3050000Y2407000D03*
G01X3050000Y2328000D03*
G01X3050000Y2249000D03*
G01X3050000Y2171000D03*
G01X3050000Y2092000D03*
G01X3916000Y2800000D03*
G01X3916000Y2722000D03*
G01X3916000Y2643000D03*
G01X3916000Y2564000D03*
G01X3916000Y2486000D03*
G01X3916000Y2407000D03*
G01X3916000Y2328000D03*
G01X3916000Y2249000D03*
G01X3916000Y2171000D03*
G01X3916000Y2092000D03*
G04 Draw part R2*
G54D15*
G01X2750000Y1700000D03*
G01X2750000Y2100000D03*
G04 Draw part J11*
G36*
G01X3337866Y1522315D02*
G01X3337866Y1577684D01*
G01X3462133Y1577684D01*
G01X3462133Y1522315D01*
G01X3337866Y1522315D01*
G37*
G36*
G01X3337866Y1443574D02*
G01X3337866Y1498944D01*
G01X3462133Y1498944D01*
G01X3462133Y1443574D01*
G01X3337866Y1443574D01*
G37*
G36*
G01X3337866Y1364834D02*
G01X3337866Y1420204D01*
G01X3462133Y1420204D01*
G01X3462133Y1364834D01*
G01X3337866Y1364834D01*
G37*
G36*
G01X3337866Y1286094D02*
G01X3337866Y1341464D01*
G01X3462133Y1341464D01*
G01X3462133Y1286094D01*
G01X3337866Y1286094D01*
G37*
G36*
G01X3337866Y1207354D02*
G01X3337866Y1262724D01*
G01X3462133Y1262724D01*
G01X3462133Y1207354D01*
G01X3337866Y1207354D01*
G37*
G36*
G01X3337866Y1128614D02*
G01X3337866Y1183984D01*
G01X3462133Y1183984D01*
G01X3462133Y1128614D01*
G01X3337866Y1128614D01*
G37*
G36*
G01X3505000Y1522500D02*
G01X3505000Y1577500D01*
G01X3629000Y1577500D01*
G01X3629000Y1522500D01*
G01X3505000Y1522500D01*
G37*
G36*
G01X3505000Y1444500D02*
G01X3505000Y1499500D01*
G01X3629000Y1499500D01*
G01X3629000Y1444500D01*
G01X3505000Y1444500D01*
G37*
G36*
G01X3505000Y1365500D02*
G01X3505000Y1420500D01*
G01X3629000Y1420500D01*
G01X3629000Y1365500D01*
G01X3505000Y1365500D01*
G37*
G36*
G01X3505000Y1286500D02*
G01X3505000Y1341500D01*
G01X3629000Y1341500D01*
G01X3629000Y1286500D01*
G01X3505000Y1286500D01*
G37*
G36*
G01X3505000Y1208500D02*
G01X3505000Y1263500D01*
G01X3629000Y1263500D01*
G01X3629000Y1208500D01*
G01X3505000Y1208500D01*
G37*
G36*
G01X3505000Y1129500D02*
G01X3505000Y1184500D01*
G01X3629000Y1184500D01*
G01X3629000Y1129500D01*
G01X3505000Y1129500D01*
G37*
G04 Draw part J12*
G36*
G01X3337866Y722315D02*
G01X3337866Y777684D01*
G01X3462133Y777684D01*
G01X3462133Y722315D01*
G01X3337866Y722315D01*
G37*
G36*
G01X3337866Y643574D02*
G01X3337866Y698944D01*
G01X3462133Y698944D01*
G01X3462133Y643574D01*
G01X3337866Y643574D01*
G37*
G36*
G01X3337866Y564834D02*
G01X3337866Y620204D01*
G01X3462133Y620204D01*
G01X3462133Y564834D01*
G01X3337866Y564834D01*
G37*
G36*
G01X3337866Y486094D02*
G01X3337866Y541464D01*
G01X3462133Y541464D01*
G01X3462133Y486094D01*
G01X3337866Y486094D01*
G37*
G36*
G01X3337866Y407354D02*
G01X3337866Y462724D01*
G01X3462133Y462724D01*
G01X3462133Y407354D01*
G01X3337866Y407354D01*
G37*
G36*
G01X3337866Y328614D02*
G01X3337866Y383984D01*
G01X3462133Y383984D01*
G01X3462133Y328614D01*
G01X3337866Y328614D01*
G37*
G36*
G01X3505000Y722500D02*
G01X3505000Y777500D01*
G01X3629000Y777500D01*
G01X3629000Y722500D01*
G01X3505000Y722500D01*
G37*
G36*
G01X3505000Y644500D02*
G01X3505000Y699500D01*
G01X3629000Y699500D01*
G01X3629000Y644500D01*
G01X3505000Y644500D01*
G37*
G36*
G01X3505000Y565500D02*
G01X3505000Y620500D01*
G01X3629000Y620500D01*
G01X3629000Y565500D01*
G01X3505000Y565500D01*
G37*
G36*
G01X3505000Y486500D02*
G01X3505000Y541500D01*
G01X3629000Y541500D01*
G01X3629000Y486500D01*
G01X3505000Y486500D01*
G37*
G36*
G01X3505000Y408500D02*
G01X3505000Y463500D01*
G01X3629000Y463500D01*
G01X3629000Y408500D01*
G01X3505000Y408500D01*
G37*
G36*
G01X3505000Y329500D02*
G01X3505000Y384500D01*
G01X3629000Y384500D01*
G01X3629000Y329500D01*
G01X3505000Y329500D01*
G37*
G04 Draw part C2*
G36*
G01X2937000Y1015000D02*
G01X2937000Y1085000D01*
G01X3063000Y1085000D01*
G01X3063000Y1015000D01*
G01X2937000Y1015000D01*
G37*
G36*
G01X2937000Y858000D02*
G01X2937000Y928000D01*
G01X3063000Y928000D01*
G01X3063000Y858000D01*
G01X2937000Y858000D01*
G37*
G04 Draw part C3*
G36*
G01X3168377Y1020346D02*
G01X3168377Y1079653D01*
G01X3231622Y1079653D01*
G01X3231622Y1020346D01*
G01X3168377Y1020346D01*
G37*
G36*
G01X3168377Y953417D02*
G01X3168377Y1012724D01*
G01X3231622Y1012724D01*
G01X3231622Y953417D01*
G01X3168377Y953417D01*
G37*
G04 Draw part C4*
G36*
G01X2537000Y2615000D02*
G01X2537000Y2685000D01*
G01X2663000Y2685000D01*
G01X2663000Y2615000D01*
G01X2537000Y2615000D01*
G37*
G36*
G01X2537000Y2458000D02*
G01X2537000Y2528000D01*
G01X2663000Y2528000D01*
G01X2663000Y2458000D01*
G01X2537000Y2458000D01*
G37*
G04 Draw part C5*
G36*
G01X2768377Y2620346D02*
G01X2768377Y2679653D01*
G01X2831622Y2679653D01*
G01X2831622Y2620346D01*
G01X2768377Y2620346D01*
G37*
G36*
G01X2768377Y2553417D02*
G01X2768377Y2612724D01*
G01X2831622Y2612724D01*
G01X2831622Y2553417D01*
G01X2768377Y2553417D01*
G37*
G04 Draw part C6*
G54D18*
G01X897000Y2650000D03*
G01X700000Y2650000D03*
G04 Draw part C7*
G36*
G01X1065000Y1956500D02*
G01X1065000Y2043500D01*
G01X1135000Y2043500D01*
G01X1135000Y1956500D01*
G01X1065000Y1956500D01*
G37*
G36*
G01X947000Y1956500D02*
G01X947000Y2043500D01*
G01X1017000Y2043500D01*
G01X1017000Y1956500D01*
G01X947000Y1956500D01*
G37*
G04 Draw part C8*
G36*
G01X1070346Y1818377D02*
G01X1070346Y1881622D01*
G01X1129653Y1881622D01*
G01X1129653Y1818377D01*
G01X1070346Y1818377D01*
G37*
G36*
G01X1003417Y1818377D02*
G01X1003417Y1881622D01*
G01X1062724Y1881622D01*
G01X1062724Y1818377D01*
G01X1003417Y1818377D01*
G37*
G04 Draw part J13*
G54D19*
G01X650000Y1500000D03*
G54D20*
G01X650000Y1300000D03*
G04 Draw part D1*
G54D21*
G01X650000Y1800000D03*
G01X650000Y2200000D03*
G04 Draw part J14*
G54D13*
G01X3350000Y1950000D03*
G54D14*
G01X3450000Y1950000D03*
G01X3550000Y1950000D03*
G01X3650000Y1950000D03*
G04 Draw part L1*
G04 Draw part H1*
G54D22*
G01X250000Y250000D03*
G04 Draw part H2*
G01X250000Y3250000D03*
G04 Draw part H3*
G01X4250000Y3250000D03*
G04 Draw part H4*
G01X4250000Y250000D03*
G04 Draw part H5*
G01X6250000Y3250000D03*
G04 Draw part H6*
G01X6250000Y250000D03*

G04 Draw traces*
G54D23*
G01X3700000Y1480000D03*
G01X2960000Y1480000D03*
G01X2100000Y1400000D03*
G01X2100000Y2400000D03*
G01X1880000Y1020000D03*
G01X2640000Y1400000D03*
G01X3700000Y1400000D03*
G01X1920000Y960000D03*
G01X3700000Y1240000D03*
G01X1030000Y1780000D03*
G01X970000Y1920000D03*
G01X3090000Y820000D03*
G01X3290000Y980000D03*
G01X3290000Y600000D03*
G01X3310000Y1240000D03*
G01X2810000Y2520000D03*
G01X2730000Y2500000D03*

G04 Draw Text*

G04 Draw solder mask cutouts*
G54D24*
M00*
M02*
